<?xml version="1.0" encoding="utf-8"?>
<!-- Generator: Adobe Illustrator 15.0.0, SVG Export Plug-In . SVG Version: 6.00 Build 0)  -->
<!DOCTYPE svg PUBLIC "-//W3C//DTD SVG 1.1//EN" "http://www.w3.org/Graphics/SVG/1.1/DTD/svg11.dtd">
<svg version="1.1" id="レイヤー_1" xmlns="http://www.w3.org/2000/svg" xmlns:xlink="http://www.w3.org/1999/xlink" x="0px"
	 y="0px" width="800px" height="152px" viewBox="0 0 800 152" enable-background="new 0 0 800 152" xml:space="preserve">
<g>
	<g>
		<path fill="#FFFFFF" d="M121.724,78.848h-4.468v-4.042h4.468v-5.404c0,0,0-1.555-0.115-2.602c0,0,3.731,0,5.09,0.233
			c0.466,0.078,0.736,0.274,0.736,0.466c0,0.274-0.348,0.544-1.203,0.74c-0.078,0.503-0.078,1.825-0.078,1.825v4.741h4.005v4.042
			h-4.005v7.188c0.896-0.349,1.673-0.696,2.332-1.007v-3.461h24.132v3.575h-14.649c-0.274,0.467-0.622,1.011-1.051,1.633
			l14.731-0.037c-0.192,9.245-0.699,14.805-8.395,14.805c-0.274,0-0.585,0-0.855,0c-0.233,0-0.311,0-0.352-0.192
			c-0.115-0.585-0.737-1.673-1.318-2.643c-1.243,1.317-2.724,2.487-4.393,3.339c-0.115,0.04-0.196,0.118-0.271,0.118
			c-0.041,0-0.118-0.037-0.155-0.078c-0.896-0.736-4.197-1.824-4.197-1.824c6.063-2.177,9.246-7.27,10.645-10.342h-1.866
			c-4.582,7.348-10.375,9.912-10.686,9.912c-0.041,0-0.115-0.037-0.156-0.077c-0.854-0.777-3.845-2.136-3.845-2.136
			c5.556-1.673,8.898-5.249,10.608-7.699h-1.943c-3.305,3.771-6.918,5.638-7.384,5.638c-0.078,0-0.119,0-0.193-0.078
			c-0.663-0.699-3.771-2.099-3.771-2.099c5.948-1.98,9.25-5.793,10.882-8.239h-3.886c0,0.933,0.078,2.254,0.196,2.839
			c0.037,0.074,0.037,0.155,0.037,0.192c0,0.192-6.218,3.228-10.882,4.938c0.037,0.192,0.037,0.386,0.037,0.541
			c0,0.466-0.156,0.703-0.348,0.703s-0.429-0.155-0.659-0.507c-1.014-1.633-2.295-4.468-2.295-4.468
			c1.747-0.393,3.653-0.974,5.478-1.636L121.724,78.848z M131.673,67.188h17.333v13.214h-4.275v-0.659h-8.939v0.777h-4.119V67.188z
			 M144.731,72.2v-1.71h-8.939v1.71H144.731z M144.731,76.79v-1.791h-8.939v1.791H144.731z M146.245,89.922
			c-0.777,1.906-2.136,4.705-4.157,7.232c0.507,0.074,1.011,0.155,1.514,0.155c2.258,0,3.42-1.518,3.694-7.388H146.245z"/>
		<path fill="#FFFFFF" d="M168.382,87.05h-5.363c-0.192,10.608-3.342,14.065-3.457,14.065c-0.082,0-0.119-0.037-0.196-0.074
			c-1.01-0.663-4.586-1.088-4.586-1.088c3.613-4.042,4.042-10.571,4.042-14.965c0-1.166-0.037-2.177-0.037-2.954
			c0-1.554-0.082-7.229-0.082-7.229h13.721V88.76h-4.042V87.05z M156.956,68.003h16.441V72.2h-16.441V68.003z M168.382,83.2v-4.626
			h-5.4c0,0,0.037,1.554,0.037,3.575V83.2H168.382z M182.799,82.386h-3.69c-0.078,6.604-0.974,13.718-7.037,18.729
			c-0.074,0.081-0.155,0.118-0.229,0.118c-0.041,0-0.081,0-0.155-0.078c-0.933-0.817-5.015-1.906-5.015-1.906
			c7.347-4.271,8.125-10.882,8.125-17.255c0-0.737-0.041-1.514-0.041-2.251c-0.078-4.589-0.311-10.3-0.311-10.3l4.275,0.699
			c4.042-1.051,7.736-2.68,8.824-3.539c0,0,2.524,2.643,3.265,3.501c0.229,0.271,0.348,0.541,0.348,0.737
			c0,0.27-0.156,0.426-0.466,0.426c-0.274,0-0.622-0.115-1.088-0.385c0,0-5.012,1.98-10.534,3.146l0.041,4.16h12.669v4.197h-4.508
			v19.313h-4.471V82.386z"/>
		<path fill="#FFFFFF" d="M209.485,71.66h6.137v6.137h-6.137V71.66z M209.485,90.077h6.137v6.145h-6.137V90.077z"/>
		<path fill="#FFFFFF" d="M239.629,89.456c0.274,5.093,3.42,6.062,6.566,6.062c2.528,0,5.171-1.28,5.171-4.353
			c0-2.836-2.839-4.042-5.363-4.778c-1.244-0.352-2.565-0.7-3.85-1.048c-3.96-1.129-7.617-3.346-7.617-8.084
			c0-5.367,4.9-8.979,11-8.979c6.411,0,11.23,3.653,11.349,9.52h-5.944c-0.311-3.613-2.724-4.701-5.678-4.701
			c-2.524,0-4.819,1.362-4.819,3.768c0,1.947,1.362,3.035,4.316,3.731c1.166,0.273,2.369,0.703,3.539,1.051
			c4.778,1.362,9.327,3.457,9.327,9.446c0,6.218-5.715,9.327-11.504,9.327c-5.907,0-12.437-2.295-12.829-10.963H239.629z"/>
		<path fill="#FFFFFF" d="M269.336,74.029h-10.142v-5.093h26.346v5.093h-10.178v25.805h-6.026V74.029z"/>
		<path fill="#FFFFFF" d="M295.737,68.625h5.907l11.97,31.247h-6.296l-2.917-7.888h-11.463l-2.876,7.888h-6.296L295.737,68.625z
			 M303.044,87.087l-3.031-8.432c-0.348-0.933-0.933-2.684-1.362-4.123c-0.385,1.48-0.892,2.953-1.317,4.123l-3.035,8.432H303.044z"
			/>
		<path fill="#FFFFFF" d="M316.938,68.936h10.841c6.063,0,12.088,1.595,12.088,9.017c0,3.19-1.865,6.803-5.789,8.084
			c1.162,1.129,2.176,2.643,3.183,4.315c1.906,3.228,3.616,6.762,5.752,9.482h-6.685c-1.162-1.71-2.602-4.431-3.887-6.84
			c-1.317-2.409-2.913-5.13-3.96-5.829h-5.792v12.669h-5.752V68.936z M328.131,82.346c3.187,0,5.83-1.321,5.83-4.394
			c0-2.717-1.632-4.116-6.492-4.116h-4.778v8.51H328.131z"/>
		<path fill="#FFFFFF" d="M357.69,68.936h10.841c6.063,0,12.089,1.595,12.089,9.017c0,3.19-1.866,6.803-5.789,8.084
			c1.162,1.129,2.176,2.643,3.183,4.315c1.906,3.228,3.616,6.762,5.752,9.482h-6.685c-1.163-1.71-2.602-4.431-3.886-6.84
			c-1.318-2.409-2.913-5.13-3.961-5.829h-5.792v12.669h-5.752V68.936z M368.883,82.346c3.187,0,5.83-1.321,5.83-4.394
			c0-2.717-1.633-4.116-6.492-4.116h-4.778v8.51H368.883z"/>
		<path fill="#FFFFFF" d="M386.734,68.936h6.026v30.898h-6.026V68.936z"/>
		<path fill="#FFFFFF" d="M403.457,89.456c0.273,5.093,3.422,6.062,6.568,6.062c2.524,0,5.167-1.28,5.167-4.353
			c0-2.836-2.835-4.042-5.359-4.778c-1.244-0.352-2.569-0.7-3.85-1.048c-3.962-1.129-7.619-3.346-7.619-8.084
			c0-5.367,4.9-8.979,11.002-8.979c6.411,0,11.229,3.653,11.349,9.52h-5.944c-0.312-3.613-2.725-4.701-5.678-4.701
			c-2.524,0-4.821,1.362-4.821,3.768c0,1.947,1.364,3.035,4.317,3.731c1.162,0.273,2.369,0.703,3.538,1.051
			c4.775,1.362,9.328,3.457,9.328,9.446c0,6.218-5.715,9.327-11.504,9.327c-5.909,0-12.438-2.295-12.831-10.963H403.457z"/>
		<path fill="#FFFFFF" d="M425.859,68.936h20.79v5.015h-15.001v7.192h13.373v4.934h-13.373v8.706h15.971v5.052h-21.76V68.936z"/>
		<path fill="#FFFFFF" d="M472.359,74.029h-10.142v-5.093h26.346v5.093h-10.179v25.805h-6.025V74.029z"/>
		<path fill="#FFFFFF" d="M490.059,84.252c0-9.368,5.989-15.975,15.161-15.975s15.153,6.685,15.153,15.975
			c0,8.395-4.856,16.241-15.153,16.241C494.959,100.493,490.059,92.646,490.059,84.252z M514.236,84.056
			c0-5.13-2.762-10.686-9.017-10.686c-6.263,0-9.062,5.556-9.062,10.686c0,6.218,3.154,11.308,9.062,11.308
			S514.236,90.273,514.236,84.056z"/>
		<path fill="#FFFFFF" d="M522.683,68.936h6.218l4.472,18.151c0.348,1.477,0.858,4.586,1.169,6.492
			c0.229-1.828,0.777-4.819,1.162-6.3l4.472-17.759h6.137l4.472,17.645c0.392,1.514,0.969,4.467,1.28,6.218
			c0.311-1.865,0.777-5.016,1.133-6.414l4.353-18.033h6.174l-8.705,31.21h-5.908l-4.545-17.645
			c-0.311-1.244-0.933-4.156-1.317-6.333c-0.43,2.291-0.978,5.322-1.288,6.566l-4.619,17.411h-5.907L522.683,68.936z"/>
		<path fill="#FFFFFF" d="M567.172,68.936h20.794v5.015h-15.005v7.192h13.369v4.934h-13.369v8.706h15.975v5.052h-21.764V68.936z"/>
		<path fill="#FFFFFF" d="M593.148,68.936h10.837c6.063,0,12.089,1.595,12.089,9.017c0,3.19-1.865,6.803-5.789,8.084
			c1.162,1.129,2.177,2.643,3.184,4.315c1.909,3.228,3.619,6.762,5.752,9.482h-6.686c-1.162-1.71-2.598-4.431-3.886-6.84
			c-1.317-2.409-2.909-5.13-3.961-5.829H598.9v12.669h-5.752V68.936z M604.341,82.346c3.184,0,5.826-1.321,5.826-4.394
			c0-2.717-1.629-4.116-6.492-4.116H598.9v8.51H604.341z"/>
		<path fill="#FFFFFF" d="M639.341,90.854c0.236,3.502,2.413,4.664,4.938,4.664c3.85,0,5.715-2.717,5.715-6.219
			c0-3.612-1.865-6.062-5.367-6.062c-1.939,0-4.197,0.777-5.248,3.228h-5.708l2.251-17.529h17.995v4.938h-13.295l-1.088,6.84
			c1.71-1.477,4.16-1.902,5.485-1.902c0.074,0,0.155,0,0.267,0c6.766,0,10.652,4.623,10.652,10.416
			c0,6.799-4.782,11.229-11.585,11.229c-6.329,0-10.993-3.072-11.304-9.602H639.341z"/>
		<path fill="#FFFFFF" d="M660.846,68.936h21.297v5.056h-15.427v7.536h13.295v5.016h-13.295v13.291h-5.87V68.936z"/>
		<path fill="#FFFFFF" d="M125.088,122.79c0-3.224,0.933-7.381,6.292-7.81v3.108c-1.98,0.274-2.913,1.984-2.913,3.612h2.876v6.145
			h-6.255V122.79z M133.286,122.79c0-3.224,0.933-7.381,6.259-7.81v3.108c-1.947,0.274-2.917,1.984-2.917,3.612h2.917v6.145h-6.259
			V122.79z"/>
		<path fill="#FFFFFF" d="M149.776,136.122c0.274,5.089,3.42,6.062,6.566,6.062c2.528,0,5.171-1.284,5.171-4.353
			c0-2.835-2.839-4.042-5.363-4.782c-1.244-0.348-2.565-0.695-3.85-1.048c-3.96-1.129-7.617-3.342-7.617-8.083
			c0-5.363,4.9-8.976,11-8.976c6.411,0,11.23,3.649,11.348,9.52h-5.944c-0.311-3.612-2.724-4.701-5.678-4.701
			c-2.524,0-4.819,1.358-4.819,3.769c0,1.943,1.362,3.031,4.316,3.73c1.166,0.274,2.369,0.7,3.539,1.052
			c4.778,1.358,9.327,3.457,9.327,9.441c0,6.219-5.715,9.328-11.504,9.328c-5.907,0-12.436-2.295-12.829-10.96H149.776z"/>
		<path fill="#FFFFFF" d="M173.612,129.008h-3.731v-4.156h3.731v-6.022h5.404v6.022h6.255v4.156h-6.255v10.108
			c0,2.446,0.74,3.224,3.613,3.224c1.051,0,3.072-0.114,3.886-0.195l-1.98,4.508c-0.933,0.041-2.447,0.081-3.224,0.041
			c-5.056-0.115-7.699-2.021-7.699-6.178V129.008z"/>
		<path fill="#FFFFFF" d="M188.977,124.852h5.481v13.332c0,2.603,0.622,4.427,4.001,4.427c2.487,0,4.549-1.902,4.86-4.042v-13.717
			h5.515v14.612c0,1.71,0.155,5.167,0.896,7.033h-5.633c-0.196-0.541-0.274-1.555-0.311-2.095c-1.088,1.398-3.539,2.643-6.415,2.643
			c-6.529,0-8.395-3.928-8.395-8.239V124.852z"/>
		<path fill="#FFFFFF" d="M230.302,146.497c-0.229-0.696-0.311-1.67-0.385-2.251c-1.244,1.514-3.265,2.758-6.374,2.758
			c-7.58,0-10.571-5.83-10.571-11.192c0-5.441,2.991-11.541,10.686-11.541c2.487,0,4.819,0.97,5.597,1.939v-10.571h5.363v23.012
			c0,2.095,0.155,5.515,0.97,7.847H230.302z M229.45,135.463c0-1.48-0.155-2.916-0.429-3.73c-0.503-1.555-2.176-3.228-4.819-3.228
			c-3.539,0-5.634,2.798-5.634,7.113c0,4.079,1.784,6.992,5.597,6.992C225.757,142.61,229.45,142.145,229.45,135.463z"/>
		<path fill="#FFFFFF" d="M239.955,115.602h6.144v5.56h-6.144V115.602z M240.307,124.852h5.441v21.646h-5.441V124.852z"/>
		<path fill="#FFFFFF" d="M250.107,135.578c0-6.607,4.549-11.39,11.426-11.39c6.877,0,11.426,4.782,11.426,11.39
			c0,5.789-3.69,11.54-11.426,11.54S250.107,141.367,250.107,135.578z M267.285,135.423c0-3.461-1.865-6.996-5.751-6.996
			c-3.887,0-5.752,3.535-5.752,6.996c0,4.078,2.099,7.384,5.752,7.384C265.187,142.807,267.285,139.501,267.285,135.423z"/>
		<path fill="#FFFFFF" d="M288.25,115.602h20.794v5.012h-15.002v7.191h13.37v4.935h-13.37v8.709h15.972v5.049H288.25V115.602z"/>
		<path fill="#FFFFFF" d="M327.758,146.497c-0.352-0.659-0.585-1.71-0.663-2.251c-1.285,1.514-3.379,2.758-6.218,2.758
			c-3.342,0-7.928-1.129-7.928-6.374c0-2.876,1.595-4.7,3.731-5.829c2.798-1.44,7.502-1.555,10.104-2.021c0-0.114,0-0.195,0-0.311
			c0-2.254-0.855-4.156-3.498-4.156c-2.369,0-3.886,1.162-4.119,3.027h-5.363c0.348-3.73,3.694-7.151,9.209-7.151
			c6.921,0,8.824,4.124,8.824,8.01c0,0.037,0,0.074,0,0.115v7.695c0,2.602,0.466,4.934,1.244,6.488H327.758z M326.862,136.629
			c-1.943,0.229-5.715,0.504-7.269,1.474c-1.474,0.933-1.514,1.983-1.514,2.372c0,1.943,1.44,2.528,3.068,2.528
			c2.839,0,5.326-1.751,5.678-4.197L326.862,136.629z"/>
		<path fill="#FFFFFF" d="M337.019,124.852h5.322v2.684c1.555-2.177,4.897-3.228,7.54-3.265l1.203,4.778c-0.229,0-0.503,0-0.737,0
			c-4.042,0-7.347,1.824-7.888,4.275v13.173h-5.44V124.852z"/>
		<path fill="#FFFFFF" d="M355.873,129.008h-3.731v-4.156h3.731v-6.022h5.404v6.022h6.255v4.156h-6.255v10.108
			c0,2.446,0.74,3.224,3.612,3.224c1.051,0,3.072-0.114,3.886-0.195l-1.98,4.508c-0.933,0.041-2.447,0.081-3.224,0.041
			c-5.056-0.115-7.699-2.021-7.699-6.178V129.008z"/>
		<path fill="#FFFFFF" d="M371.47,115.639h5.441v11.037c0.659-0.736,2.721-2.368,5.83-2.368c6.141,0,8.591,3.809,8.591,8.202v13.987
			h-5.522v-13.292c0-2.176-0.541-4.508-4.001-4.508c-0.041,0-0.041,0-0.078,0c-2.565,0-4.508,2.14-4.819,4.16v13.64h-5.441V115.639z
			"/>
		<path fill="#FFFFFF" d="M396.321,125.358c1.98-0.273,2.913-1.946,2.913-3.575h-2.913v-6.182h6.255v5.094
			c0,3.183-0.933,7.343-6.255,7.81V125.358z M404.518,125.358c1.947-0.273,2.88-1.946,2.917-3.575h-2.917v-6.182h6.263v5.094
			c0,3.183-0.933,7.343-6.263,7.81V125.358z"/>
		<path fill="#FFFFFF" d="M437.389,148.052c-3.523-2.477-6.325-8.014-6.325-13.758c0-5.741,2.831-11.278,6.325-13.755l4.435,0.03
			c-4.493,3.027-7.41,8.306-7.41,13.725c0,5.422,2.887,10.7,7.439,13.731L437.389,148.052z"/>
		<path fill="#FFFFFF" d="M455.77,145.023c0-0.817,0.089-2.509,0.178-3.908c-4.9,4.896-9.098,6.296-9.179,6.296
			c-0.03,0-0.089,0-0.119-0.056c-0.644-0.818-3.176-2.361-3.176-2.361c5.271-1.458,9.298-4.608,11.541-6.763l-4.108,0.085v1.166
			h-3.124v-11.629h8.017v-1.488h-10.874v-2.942h10.874v-0.467c0,0-0.029-1.106-0.088-2.039c0,0,2.887,0.029,3.849,0.203
			c0.349,0.06,0.526,0.175,0.526,0.322c0,0.174-0.289,0.378-0.903,0.496c-0.03,0.407-0.06,1.191-0.06,1.191v0.293h10.985v2.942
			h-10.985v1.488h8.165v11.455h-3.213v-0.992l-4.249-0.085c2.272,1.921,6.44,4.809,11.83,6.148c0,0-2.503,1.751-3.235,2.684
			c-0.029,0.029-0.06,0.055-0.118,0.055c-0.111,0-4.894-1.95-9.298-6.088c0.089,1.369,0.178,3.116,0.178,3.993v2.621h-3.413V145.023
			z M455.799,131.932v-1.569h-4.893v1.569H455.799z M455.799,135.87v-1.662h-4.893v1.662H455.799z M464.075,131.932v-1.569h-4.952
			v1.569H464.075z M464.075,135.87v-1.662h-4.952v1.662H464.075z"/>
		<path fill="#FFFFFF" d="M483.626,141.03c0,0.174-0.229,0.288-0.496,0.288c-0.178,0-0.378-0.056-0.556-0.114
			c-1.806,1.954-3.73,3.964-6.499,5.304c-0.06,0.029-0.089,0.06-0.141,0.06c-0.029,0-0.06-0.03-0.089-0.06
			c-0.645-0.729-3.153-2.158-3.153-2.158c4.782-1.572,7.351-5.215,7.58-5.626C483.219,140.36,483.626,140.737,483.626,141.03z
			 M473.98,124.004h10.956v-0.933c0,0,0-1.251-0.089-2.095c0.325,0.029,2.887,0.059,3.968,0.229
			c0.496,0.089,0.726,0.236,0.726,0.381c0,0.203-0.378,0.437-1.015,0.552c-0.06,0.525-0.089,1.344-0.089,1.344v0.521h10.985v3.095
			l-25.472-0.03L473.98,124.004z M477.652,128.989h18.069v9.505h-3.354v-0.703h-3.671v2.917c0,1.458,0.118,2.477,0.118,2.68
			c0,0.029,0,0.029,0,0.06c0,3.205-2.539,4.111-5.278,4.111c-0.378,0-0.785-0.029-1.162-0.059c-0.118,0-0.178-0.029-0.207-0.145
			c-0.26-0.962-2.125-3.294-2.125-3.294c1.073,0.203,2.095,0.318,2.939,0.318c1.428,0,2.42-0.349,2.42-1.311v-5.278h-4.427v0.729
			h-3.323V128.989z M492.368,134.997v-3.091h-11.393v3.091H492.368z M492.517,138.872c0.466,0.467,3.908,3.643,8.047,4.927
			c0,0-2.599,1.662-3.265,2.476c-0.029,0.03-0.089,0.06-0.148,0.06c-0.029,0-0.059,0-0.089-0.029
			c-3.761-1.807-6.906-5.334-7.136-5.597L492.517,138.872z"/>
		<path fill="#FFFFFF" d="M513.836,131.673c1.288,0.611,3.124,1.603,4.723,2.913c1.488-1.95,2.599-3.994,3.531-5.944h-7.202
			c-3.613,4.689-7.811,7.317-7.899,7.317c-0.059,0-0.088-0.029-0.147-0.089c-0.963-0.788-3.465-2.014-3.465-2.014
			c5.708-3.176,9.587-7.81,11.452-12.066c4.168,1.255,4.286,1.281,4.286,1.548c0,0.229-0.378,0.377-0.844,0.377
			c-0.06,0-0.089,0-0.148,0c-0.348,0.611-0.695,1.196-1.051,1.747c3.124,0,6.736,0,6.766-0.029c0.259-0.029,0.349-0.2,0.556-0.2
			c0.377,0,2.857,1.747,2.857,2.125c0,0.207-0.267,0.377-0.645,0.466c-3.73,8.191-8.92,15.916-18.973,18.6
			c-0.06,0.025-0.089,0.025-0.148,0.025c-0.089,0-0.178-0.025-0.236-0.114c-0.844-1.051-3.554-2.798-3.554-2.798
			c5.39-0.963,9.298-3.235,12.244-6.004c-1.369-1.314-2.857-2.336-4.634-3.294L513.836,131.673z"/>
		<path fill="#FFFFFF" d="M535.312,124.033l16.93-0.029c0.267,0,0.355-0.229,0.614-0.229c0.318,0,3.146,1.629,3.146,2.095
			c0,0.207-0.26,0.352-0.607,0.496c-1.11,10.057-5.337,16.967-14.457,19.735c-0.03,0-0.06,0-0.089,0
			c-0.089,0-0.178-0.029-0.237-0.089c-0.844-1.166-3.871-3.146-3.871-3.146c9.882-1.633,13.636-7.755,14.339-15.42l-11.866,0.029
			v6.966h-3.901V124.033z"/>
		<path fill="#FFFFFF" d="M562.812,132.343h22.622v3.846h-22.622V132.343z"/>
		<path fill="#FFFFFF" d="M597.723,127.794h4.168c0.052-0.318,0.17-0.873,0.289-1.573h-11.371v-3.061h11.837
			c0.089-0.726,0.148-1.488,0.178-2.214c0,0,2.938,0.115,3.931,0.289c0.267,0.029,0.407,0.178,0.407,0.322
			c0,0.174-0.229,0.381-0.873,0.466c-0.06,0.322-0.119,0.7-0.2,1.137h10.053v3.061h-10.607c-0.148,0.641-0.237,1.226-0.326,1.573
			h7.521v14.372h-3.176v-0.67h-8.743v0.755h-3.087V127.794z M592.067,130.885c0,0,0-0.145,0-0.378c0-0.466,0-1.313-0.089-2.099
			c0,0,2.798,0.06,3.85,0.204c0.318,0.029,0.496,0.174,0.496,0.321c0,0.2-0.267,0.407-0.852,0.522c-0.06,0.67-0.06,1.573-0.06,1.573
			v12.273h20.986v3.091h-20.986v1.398h-3.346V130.885z M609.582,131.525v-1.34h-8.772v1.34H609.582z M609.582,135.285v-1.458h-8.772
			v1.458H609.582z M609.553,139.105v-1.518h-8.743v1.518H609.553z"/>
		<path fill="#FFFFFF" d="M623.706,138.376c-0.081,0.089-0.288,0.204-0.606,0.233c-0.06,0.352-0.438,4.575-1.488,7.491
			c-0.029,0.115-0.06,0.174-0.118,0.174c-0.03,0-0.06,0-0.119-0.029c-0.606-0.289-2.857-0.289-2.857-0.289
			c1.666-3.294,2.073-7.521,2.103-8.572c0.207,0.06,2.214,0.263,2.828,0.407c0.118,0.03,0.199,0.089,0.289,0.148v-2.069
			c-1.074,0.145-2.214,0.289-3.295,0.437c-0.059,0.467-0.229,0.845-0.437,0.845c-0.496,0-1.044-3.524-1.044-3.613
			c0.785,0,1.629-0.029,2.473-0.089c0.467-0.61,0.963-1.221,1.429-1.865c-0.814-1.021-2.243-2.65-3.85-3.875l1.577-2.276
			c0.289,0.237,0.614,0.496,0.903,0.759c1.458-2.128,2.539-5.156,2.568-5.245c2.88,1.281,3.376,1.573,3.376,1.896
			c0,0.174-0.171,0.288-0.525,0.288c-0.082,0-0.2,0-0.318-0.029c-0.171,0.322-1.925,3.442-3.117,5.045
			c0.378,0.407,0.726,0.788,1.021,1.106c1.511-2.302,2.71-4.4,3.058-5.219c0.147,0.06,2.184,1.284,2.887,1.811l0.178,0.174v-0.814
			h5.597v-1.488c0,0-0.029-1.576-0.089-2.564c0,0,3.235,0.056,3.819,0.174c0.26,0.06,0.407,0.178,0.407,0.322
			c0,0.174-0.267,0.407-0.821,0.521c-0.029,0.614-0.029,1.691-0.029,1.691v1.344h6.507v3.027h-6.507v2.857h5.596v2.946h-14.161
			v-2.946h5.278v-2.857h-5.597v-1.747c-0.089,0.06-0.178,0.089-0.325,0.089c-0.119,0-0.26-0.029-0.467-0.089
			c-0.141,0.233-1.399,2.014-2.887,4.023l1.865-0.729c0.933,1.572,2.014,3.875,2.421,5.885l-2.332,1.11
			c-0.089-0.496-0.229-1.081-0.378-1.662c-0.466,0.085-1.08,0.204-1.806,0.322l0.089,12.181h-3.124L623.706,138.376z
			 M627.793,132.694c-0.297-0.732-0.645-1.398-1.022-1.954c-0.584,0.785-1.199,1.603-1.776,2.361
			C626.127,132.954,627.119,132.81,627.793,132.694z M628.459,145.197c-0.171-2.624-1.104-6.296-1.569-7.491l2.243-0.61
			c0.495,1.162,1.688,4.516,2.095,7.021L628.459,145.197z M631.901,136.481h12.214v10.93h-3.265v-1.28h-5.833v1.428h-3.116V136.481z
			 M640.881,143.069v-3.616h-5.863v3.616H640.881z"/>
		<path fill="#FFFFFF" d="M648.209,148.025c4.553-3.031,7.433-8.31,7.433-13.731c0-5.419-2.909-10.697-7.403-13.725l4.435-0.03
			c3.494,2.477,6.321,8.014,6.321,13.755c0,5.744-2.798,11.281-6.321,13.758L648.209,148.025z"/>
	</g>
</g>
<g>
	<g>
		<path fill="#FFFFFF" d="M6.896,43.322c0.877-1.536,3.079-3.775,4.656-5.315c2.132-2.065,4.756-4.234,7.207-6.511
			c1.75-1.643,2.624-3.146,2.624-4.934c0-2.587-2.065-3.779-4.445-3.779c-3.113,0-4.897,2.31-4.897,6.019H6.722
			c0.037-5.526,3.849-10.427,10.323-10.427c6.718,0,9.549,4.305,9.549,7.873c0,3.324-0.977,5.459-3.602,7.873
			c-2.413,2.239-5.459,4.408-7.732,6.44c-0.633,0.559-1.192,1.155-1.577,1.644l12.633-0.174v4.723H6.896V43.322z"/>
		<path fill="#FFFFFF" d="M30.662,32.862c0-9.271,3.919-14.52,10.601-14.52c6.685,0,10.601,5.249,10.601,14.52
			c0,9.342-3.916,14.45-10.601,14.45C34.581,47.312,30.662,42.205,30.662,32.862z M46.511,32.862c0-7.417-2.239-10.286-5.249-10.286
			c-3.042,0-5.249,2.868-5.249,10.286c0,7.277,2.206,10.075,5.249,10.075C44.271,42.938,46.511,40.139,46.511,32.862z"/>
		<path fill="#FFFFFF" d="M63.907,26.426h-5.981v-3.464c5.282-0.385,6.925-2.694,7.558-4.305h3.812v28.097h-5.389V26.426z"/>
		<path fill="#FFFFFF" d="M84.172,46.716c1.014-7.591,5.107-16.164,9.764-23.229l-13.543,0.104v-4.69h19.876v3.676
			c-5.844,8.432-9.586,17.074-10.008,24.14H84.172z"/>
		<path fill="#FFFFFF" d="M114.619,18.901h4.653l-12.807,27.815h-4.616L114.619,18.901z"/>
		<path fill="#FFFFFF" d="M134.928,16.769h-8.983v-5.2c7.932-0.578,10.401-4.042,11.344-6.459h5.723v42.169h-8.084V16.769z"/>
		<path fill="#FFFFFF" d="M171.675,16.769h-8.983v-5.2c7.932-0.578,10.401-4.042,11.345-6.459h5.722v42.169h-8.083V16.769z"/>
		<path fill="#FFFFFF" d="M212.463,5.48h6.984l-19.221,41.748h-6.929L212.463,5.48z"/>
		<path fill="#FFFFFF" d="M235.138,16.769h-8.979v-5.2c7.932-0.578,10.4-4.042,11.345-6.459h5.722v42.169h-8.087V16.769z"/>
		<path fill="#FFFFFF" d="M271.892,16.769h-8.983v-5.2c7.932-0.578,10.401-4.042,11.344-6.459h5.723v42.169h-8.084V16.769z"/>
		<path fill="#FFFFFF" d="M319.032,33.207c0.367,6.877,4.619,8.191,8.872,8.191c3.417,0,6.984-1.732,6.984-5.882
			c0-3.834-3.831-5.463-7.247-6.458c-1.681-0.474-3.464-0.948-5.197-1.418c-5.356-1.525-10.293-4.515-10.293-10.922
			c0-7.247,6.618-12.133,14.861-12.133c8.665,0,15.176,4.938,15.335,12.866h-8.036c-0.418-4.882-3.675-6.352-7.665-6.352
			c-3.413,0-6.511,1.836-6.511,5.093c0,2.624,1.836,4.097,5.826,5.041c1.577,0.366,3.206,0.944,4.782,1.417
			c6.459,1.84,12.603,4.675,12.603,12.762c0,8.402-7.721,12.603-15.545,12.603c-7.98,0-16.804-3.102-17.33-14.809H319.032z"/>
		<path fill="#FFFFFF" d="M367.171,47.228c-0.474-0.892-0.788-2.313-0.892-3.046c-1.732,2.047-4.567,3.727-8.402,3.727
			c-4.516,0-10.711-1.521-10.711-8.613c0-3.883,2.15-6.352,5.041-7.876c3.779-1.943,10.134-2.099,13.654-2.728
			c0-0.159,0-0.263,0-0.422c0-3.046-1.159-5.619-4.727-5.619c-3.206,0-5.252,1.577-5.567,4.098h-7.247
			c0.474-5.042,4.989-9.665,12.444-9.665c9.35,0,11.922,5.567,11.922,10.819c0,0.052,0,0.104,0,0.155v10.397
			c0,3.52,0.629,6.67,1.681,8.772H367.171z M365.964,33.888c-2.628,0.314-7.721,0.685-9.819,1.995
			c-1.995,1.262-2.047,2.68-2.047,3.205c0,2.625,1.939,3.413,4.146,3.413c3.834,0,7.195-2.365,7.669-5.67L365.964,33.888z"/>
		<path fill="#FFFFFF" d="M382.18,23.594h-5.042v-5.619h5.042V9.836h7.299v8.139h8.454v5.619h-8.454v13.654
			c0,3.309,1,4.36,4.886,4.36c1.417,0,4.149-0.159,5.249-0.263l-2.676,6.089c-1.263,0.056-3.31,0.107-4.36,0.056
			c-6.825-0.159-10.397-2.732-10.397-8.35V23.594z"/>
		<path fill="#FFFFFF" d="M430.797,16.769h-8.983v-5.2c7.933-0.578,10.401-4.042,11.345-6.459h5.723v42.169h-8.084V16.769z"/>
		<path fill="#FFFFFF" d="M455.521,42.134c1.311-2.313,4.619-5.674,6.98-7.984c3.206-3.098,7.145-6.355,10.819-9.768
			c2.624-2.469,3.938-4.727,3.938-7.403c0-3.886-3.098-5.674-6.67-5.674c-4.671,0-7.351,3.468-7.351,9.035h-7.98
			c0.052-8.298,5.774-15.649,15.49-15.649c10.082,0,14.335,6.458,14.335,11.814c0,4.989-1.469,8.191-5.407,11.814
			c-3.624,3.361-8.191,6.618-11.607,9.664c-0.944,0.84-1.784,1.732-2.361,2.469l18.958-0.263v7.088h-29.145V42.134z"/>
		<path fill="#FFFFFF" d="M493.001,18.027h8.51v8.299h-8.51V18.027z M493.001,38.929h8.51v8.299h-8.51V38.929z"/>
		<path fill="#FFFFFF" d="M508.069,26.43c0-13.914,5.882-21.79,15.908-21.79c10.03,0,15.912,7.876,15.912,21.79
			c0,14.024-5.882,21.689-15.912,21.689C513.951,48.119,508.069,40.454,508.069,26.43z M531.857,26.43
			c0-11.13-3.36-15.438-7.88-15.438c-4.567,0-7.876,4.309-7.876,15.438c0,10.922,3.309,15.124,7.876,15.124
			C528.497,41.553,531.857,37.352,531.857,26.43z"/>
		<path fill="#FFFFFF" d="M544.82,26.43c0-13.914,5.881-21.79,15.908-21.79c10.03,0,15.912,7.876,15.912,21.79
			c0,14.024-5.882,21.689-15.912,21.689C550.701,48.119,544.82,40.454,544.82,26.43z M568.608,26.43
			c0-11.13-3.36-15.438-7.88-15.438c-4.567,0-7.877,4.309-7.877,15.438c0,10.922,3.31,15.124,7.877,15.124
			C565.248,41.553,568.608,37.352,568.608,26.43z"/>
		<path fill="#FFFFFF" d="M581.829,30.053c4.042-6.825,9.769-11.026,15.542-11.026c2.994,0,6.2,1.051,11.607,5.515
			c1.892,1.521,3.676,2.413,5.408,2.413c2.783,0,5.463-2.206,8.246-7.402l5.882,2.469c-4.309,8.087-9.558,11.289-14.495,11.289
			c-3.257,0-6.354-1.366-8.928-3.676c-4.305-3.834-6.51-4.516-8.19-4.516c-3.099,0-6.093,2.362-9.087,7.248L581.829,30.053z"/>
		<path fill="#FFFFFF" d="M647.088,16.769h-8.983v-5.2c7.932-0.578,10.4-4.042,11.345-6.459h5.722v42.169h-8.083V16.769z"/>
		<path fill="#FFFFFF" d="M672.071,16.347c0-6.352,5.723-11.708,14.543-11.708c9.35,0,14.494,5.408,14.494,11.552
			c0,4.516-2.887,7.876-5.934,8.927c4.098,1.311,7.3,5.042,7.3,10.345c0,8.032-6.67,12.603-15.805,12.603
			c-9.35,0-15.912-4.623-15.912-12.551c0-5.304,3.623-9.086,7.191-10.397C674.906,24.12,672.071,20.708,672.071,16.347z
			 M686.67,41.764c5.196,0,7.928-2.835,7.928-6.511c0-3.886-3.149-6.722-8.035-6.722c-4.883,0-7.98,2.887-7.98,6.773
			C678.582,39.033,681.521,41.764,686.67,41.764z M686.67,22.125c3.886,0,6.721-1.995,6.721-5.83c0-3.253-2.205-5.774-6.776-5.774
			c-4.094,0-6.773,2.465-6.773,5.826C679.841,20.182,682.783,22.125,686.67,22.125z"/>
		<path fill="#FFFFFF" d="M709.292,18.027h8.509v8.299h-8.509V18.027z M709.292,38.929h8.509v8.299h-8.509V38.929z"/>
		<path fill="#FFFFFF" d="M724.36,26.43c0-13.914,5.881-21.79,15.908-21.79c10.03,0,15.912,7.876,15.912,21.79
			c0,14.024-5.882,21.689-15.912,21.689C730.241,48.119,724.36,40.454,724.36,26.43z M748.148,26.43
			c0-11.13-3.361-15.438-7.88-15.438c-4.567,0-7.877,4.309-7.877,15.438c0,10.922,3.31,15.124,7.877,15.124
			C744.787,41.553,748.148,37.352,748.148,26.43z"/>
		<path fill="#FFFFFF" d="M761.106,26.43c0-13.914,5.882-21.79,15.908-21.79c10.031,0,15.912,7.876,15.912,21.79
			c0,14.024-5.881,21.689-15.912,21.689C766.988,48.119,761.106,40.454,761.106,26.43z M784.896,26.43
			c0-11.13-3.361-15.438-7.881-15.438c-4.567,0-7.876,4.309-7.876,15.438c0,10.922,3.309,15.124,7.876,15.124
			C781.534,41.553,784.896,37.352,784.896,26.43z"/>
	</g>
</g>
</svg>
