<?xml version="1.0" encoding="utf-8"?>
<!-- Generator: Adobe Illustrator 15.0.0, SVG Export Plug-In . SVG Version: 6.00 Build 0)  -->
<!DOCTYPE svg PUBLIC "-//W3C//DTD SVG 1.1//EN" "http://www.w3.org/Graphics/SVG/1.1/DTD/svg11.dtd">
<svg version="1.1" id="レイヤー_1" xmlns="http://www.w3.org/2000/svg" xmlns:xlink="http://www.w3.org/1999/xlink" x="0px"
	 y="0px" width="900px" height="235px" viewBox="0 0 900 235" enable-background="new 0 0 900 235" xml:space="preserve">
<g>
	<path fill="#FFFFFF" d="M22.783,139.905l-0.621-0.429l0.458-0.443c-1.248-1.214-2.025-2.664-2.334-4.351l-0.655-0.603l-0.006-2.977
		c-0.988-1.44-1.756-4.638-2.31-9.588l-0.792-0.395c-0.165-2.193-0.257-3.35-0.278-3.467c-0.098-0.524-0.404-1.699-0.921-3.53
		l-0.088,0.017l0.073-0.104c-0.422-1.305-0.658-2.405-0.701-3.299l-0.697,0.128l-0.627-3.402c-0.257-1.396-0.453-3.764-0.587-7.11
		l2.007-0.369c-0.875-0.5-1.979-1.439-3.316-2.817c1.147-0.632,2.145-1.568,3.001-2.809l-0.227-1.222l-1.78,1.592l-0.046,0.729
		c-1.138-1.594-1.982-3.903-2.542-6.929l-0.416-2.269l1.123-1.741l-1.086-1.966c0.367-1.93,1.273-4.684,2.72-8.258l-0.404-2.182
		c2.616-3.428,5.363-7.934,8.245-13.518c1.309-0.722,2.466-2.109,3.472-4.159l0.829,0.569l1.178-0.939l0.349-0.064
		c1.453-0.268,2.995-1.543,4.62-3.827l0.728,0.046c1.496-0.696,2.545-1.372,3.145-2.023c0.116-0.021,1.462-0.39,4.038-1.104
		c1.481-0.455,2.87-0.589,4.164-0.407l0.658-0.843c1.337-0.246,2.747-0.266,4.228-0.058l2.362-1.878
		c1.655,0.176,3.151,0.141,4.491-0.105l0.395-0.795c2.726,0.76,5.097,0.564,7.11-0.589l0.223,1.222l1.3-0.782l1.906,0.552
		l1.297,1.655l-2.518,5.426l4.029,2.774l0.569-0.826l0.697-0.128l-0.829-1.562l1.6-2.099l-1.768-1.749l1.621-2.464l1.655,1.138
		l0.128,0.699l-0.459,1.436l1.527,0.441l1.484-0.272l1.049,1.79l-0.52,1.089l-3.151-0.953l-0.202,2.833L70.9,53.45l1.566,1.155
		c-1.282,0.237-2.922,0.3-4.929,0.187l0.569-0.826l-0.826-0.569L66.1,54.335c0.982,1.082,2.282,1.774,3.901,2.078l1.655,1.138
		l1.181-0.939l1.652,1.14c1.227-0.526,2.273-1.201,3.145-2.024l1.23,2.75l1.208-1.756l0.147,0.785l1.75,1.663l0.808-0.511
		l0.413,0.286l1.257-1.496l0.795,0.395l1.78-1.591l-1.756-1.21l0.199-2.833l1.484-0.274c0.181,0.327,1.429,2.204,3.745,5.625
		l0.783-0.144c0.737,1.067,1.921,2.262,3.549,3.585l-2.665,1.213l1.101,2.053l0.698-0.128l0.44-1.525l1.566,1.155l0.569-0.826
		c0.257,1.395,1.15,3.636,2.683,6.722l-0.474,1.351l1.655,1.14l-0.459,1.436c0.734,1.369,1.306,3.159,1.713,5.369l1.756,1.21
		l-1,2.89l2.013,2.607l-0.783,0.145l-0.331,2.135c0.869,1.766,1.612,3.041,2.24,3.828l-0.655,0.843
		c0.453,2.142,1.478,5.26,3.078,9.355l-0.027,2.802l0.523-0.098l0.165,1.864c0.63,1.147,1.117,2.321,1.459,3.52l0.104,0.072
		l-0.085,0.015c0.141,0.456,0.257,0.917,0.342,1.381l-1.478-1.171l1.135-0.21l-0.019-0.087l-0.737-0.584l-1.863,1.155
		c1.013,2.88,1.716,5.398,2.114,7.549l-0.698,0.129l1.049,1.793l-0.896,2.961l0.603-0.654l0.499,2.704l0.955,1.27l0.223,1.221
		l-0.697,0.129c-0.181,3.585-0.331,7.189-0.44,10.817c-0.343,2.711-1.466,6.254-3.362,10.635l0.651,0.6l-0.523,0.098l-1.741,2.307
		l0.144,0.783c-2.588,2.282-5.865,6.195-9.836,11.735l-0.912-0.55c-0.902,1.309-4.115,3.132-9.637,5.476l0.223,1.218l-13.088,2.414
		l-1.82,1.869l-2.279-1.113l-1.267,0.954l-0.787,0.146c-2.328,0.429-3.518,0.166-3.573-0.786c-0.728-0.046-1.863,0.162-3.402,0.627
		l-1.01-1.076l-0.697,0.128l-0.572,0.826c-2.209,0.41-4.219-0.214-6.027-1.866l0.872-0.159c1.224-1.848,2.322-3.225,3.301-4.127
		l0.826,0.569l0.44-1.523l3.203,2.205c1.114-0.808,2.781-2.046,4.999-3.72c-0.569-0.795-1.343-1.404-2.322-1.823l-1.395,0.257
		l0.841,0.654l-0.44,1.524l-1.484,0.274l-0.499-2.704l-0.967-0.364l-0.856,1.239l-3.402,0.63l-0.352-1.921l1.349,0.472l0.44-1.524
		l-0.128-0.697c-1.098-0.397-2.135-1.138-3.117-2.221l-2.053,1.098l0.226,1.221l2.454,1.083l-0.526,1.542l0.129,0.698l-1.921,0.354
		l-1.242,1.579l-1.539-0.526l-0.227-1.224l1.395-0.258l-0.826-0.568l1.924-1.799l-1.389-0.193l-2.885,0.982l0.826,0.569
		l-0.924,2.337l1.551,1.064l0.257,1.398l2.224,0.312l0.128,0.698l-0.459,1.438l-3.402,0.627c-0.945-1.208-2.71-1.813-5.299-1.82
		l0.443-1.526l0.523-0.095l0.639-0.93l-2.561,1.281c-1.303-1.199-2.879-2.083-4.727-2.643l2.487-1.182l-1.918,0.355
		c-1.04-1.074-3.289-2.824-6.743-5.256l-0.223-1.221l-1.398,0.257l0.297-2.31c-0.795-1.056-2.215-2.387-4.255-3.996l1.181-0.942
		l-0.786,0.147l-0.795-1.39l0.187-0.936c-1.447-3.94-2.246-6.321-2.398-7.135l0.829,0.569l-0.257-1.396l-0.829-0.568l0.697-0.129
		l-0.239-1.31l1.227-0.679l0.08,0.438L22.783,139.905z M16.419,78.468l-1.927-2.622l-0.523,0.097l-1.08,2.455l0.955,1.267
		l-0.199,2.834l1.612,0.423C15.807,81.678,16.196,80.193,16.419,78.468z M31.566,90.651c-0.6-0.971-1.361-2.486-2.279-4.542
		l-1.998,0.91l-1.407-0.283l0.122-2.277l-1.08,0.018l-1.762-0.757l0.994-2.438l-1.398,0.257l-1.921,1.799l-2.178-1.043l-0.658,0.843
		c0.728,1.01,1.199,2.096,1.413,3.258l-0.438,0.081c-1.744,0.321-3.748,1.683-6.012,4.084l0.227,1.222l1.667,1.226
		c0.581-0.768,1.548-1.877,2.906-3.332l2.879-0.531l1.576,1.695l-1.646,1.837l-0.786,0.144l-0.071,3.532l0.569-0.826
		c1.918-0.354,3.708,0.219,5.369,1.716l0.697-0.128l0.912-2.874l0.783,1.299c0.492-1.233,1.043-2.327,1.649-3.281l0.826,0.569
		L31.566,90.651z M15.324,114.124l1.003-0.907l-0.618-0.427l-0.401,1.247L15.324,114.124z M17.343,118.713l-0.388-2.092
		l-0.523,0.097l0.389,2.094L17.343,118.713z M18.12,102.874l-1.493-0.266l0.242,1.308L18.12,102.874z M18.279,99.326l-0.227-1.222
		L17.27,98.25l0.224,1.221L18.279,99.326z M18.242,123.603l-0.4-2.185l-0.526,0.098l0.404,2.182L18.242,123.603z M19.414,125.548
		l-1.067,1.551l0.523-0.095L19.414,125.548z M19.65,111.161l-0.811-0.481l0.272,1.483L19.65,111.161z M19.925,120.494l-0.698,0.128
		l0.223,1.221L19.925,120.494z M22.241,110.052l-1.396,0.257l0.11,0.612l-0.361,0.969l0.523-0.097L22.241,110.052z M22.525,99.355
		l-0.844-0.656l0.698-0.13L21.553,98l-0.786,0.146l0.915,0.554l-0.639,0.93l0.915,0.552L22.525,99.355z M29.535,106.543
		l-5.868-0.993l-2.637,1.839l0.257,1.396l1.523,0.44l0.128,0.698l1.484-0.274l0.184-2.92l0.523-0.097l0.257,1.397l0.569-0.828
		l1.132,1.236l1.435,0.456L29.535,106.543z M25.117,140.826l-0.939-1.181l-0.162-0.869l-0.536,0.997L25.117,140.826z
		 M26.812,103.527l0.012-1.897l-0.768-2.204l-0.787,0.145c-0.78,0.987-1.254,2.005-1.419,3.058l1.221-0.225l-0.242-1.309
		L26.812,103.527z M26.659,144.785l-1.982-2.433l-0.698,0.129C24.582,143.151,25.475,143.919,26.659,144.785z M26.068,91.666
		l0.226,1.221l-0.697,0.128L26.068,91.666z M28.5,89.683l-1.34,1.059l0.642-0.93L28.5,89.683z M33.304,100.074l-0.227-1.221
		l-1.652-1.14l-0.569,0.828l-0.701,0.128l-0.97-1.355l0.569-0.826l2.793-0.514l-0.627-3.403c-1.193,1.363-2.683,3.561-4.47,6.597
		l4.601,1.949L33.304,100.074z M31.483,101.943l-1.114-0.156l-1.594,0.655l1.695,1.854l0.713-1.034L31.483,101.943z M29.813,100.718
		l-0.098-0.523l-0.783,0.144C29.008,100.446,29.305,100.573,29.813,100.718z M32.496,107.441l-0.826-0.569l-0.572,0.826l0.829,0.569
		L32.496,107.441z M35.944,145.238l-1.395,0.257l-0.544,1.453l1.612,0.425L35.944,145.238z M36.372,151.473l-0.098-0.523
		c-0.337,0.126-0.802,0.389-1.386,0.799L36.372,151.473z M85.961,116.081l-1.523-0.44c-0.621-3.373-0.866-5.673-0.731-6.902
		c-0.704-1.193-1.37-2.545-2.01-4.051l0.474-1.351l-1.199-2.576l0.425-1.612l-0.955-1.267l0.44-1.525l-0.795-0.395l-0.529-2.879
		l-0.826-0.57l0.456-1.437l2.19,0.138l-0.226-1.222l-2.919-0.184l1.267-0.955l-2.377-1.637l0.924-2.336l-4.176-3.561l0.44-1.525
		l-0.569,0.828c-1.542-1.521-2.567-2.986-3.065-4.398c-1.979-0.956-3.105-2.163-3.375-3.618l-3.901-2.077l-1.955,1.623l-0.924-1.092
		c-1.63-0.361-4.075-0.902-7.336-1.626c-0.34,0.124-1.041,0.404-2.102,0.838c-0.829,0.395-1.536,0.644-2.117,0.751l-0.434,0.081
		l-0.845-0.656l0.275,1.482c-1.264,0.655-2.87,1.898-4.815,3.729c-1.949,1.834-3.466,3.061-4.555,3.682
		c0.269,1.455,0.404,2.843,0.407,4.165l-2.812,1.871l0.379,0.11c-0.205,2.145-0.443,5.256-0.716,9.334l1.239,3.291l-0.385,1.334
		c0.63,1.147,1.178,2.972,1.64,5.472l-0.354,1.51l0.404,2.181l1.707,0.947l-0.187,0.938l0.59,1.244
		c-0.22,0.764-0.303,1.951-0.245,3.564l1.523,0.44c-0.566,0.526-1.349,1.331-2.353,2.419l1.713,1.94l-0.605,2.096
		c0.52,1.526,1.062,2.661,1.618,3.398c0.771,4.188,1.465,6.979,2.083,8.367l0.841-0.333l1.013,5.494
		c1.774,1.478,4.562,3.549,8.361,6.217c0.808,1.113,1.875,1.854,3.203,2.209l0.7-0.129c2.264,0.545,5.682,1.147,10.255,1.806
		c0.712-1.031,1.48-1.925,2.303-2.681l1.671,1.23c2.417-2.552,4.531-5.106,6.345-7.667l0.915,0.554
		c1.221-0.227,2.15-1.539,2.79-3.943c0.397-1.756,0.795-3.513,1.193-5.271l-0.128-0.7l1.267-0.955l-1.383-1.64l0.355-3.943
		l0.514-0.637l1.395-0.257l-1.524-0.44l-0.272-1.483l0.841,0.657l1.123-1.74l-0.755-4.102L85.961,116.081z M39.275,148.141
		c-0.636-0.841-1.667-1.373-3.09-1.594l1.606,1.866L39.275,148.141z M39.333,152.372l-0.257-1.395
		c-0.744,0.856-1.328,1.443-1.75,1.762L39.333,152.372z M38.881,119.074l-0.845-0.654l-0.296,2.307L38.881,119.074z M43.562,152.311
		c-0.48,0.331-1.059,0.949-1.731,1.854l0.792,0.397C42.897,154.092,43.21,153.339,43.562,152.311z M43.874,150.09l-0.44,1.523
		l0.826,0.569L43.874,150.09z M54.688,158.834l0.697-0.129l-1.6-4.761l-2.616,0.483l-0.416,2.154l-0.205-0.144l-0.493,0.271
		l0.955,1.267l1.655-2.288l0.955,1.267l-1.221,0.227l0.432,1.364l-0.064,0.643l1.224-0.227l-0.275-1.483l0.698-0.129L54.688,158.834
		z M57.748,160.253l-2.104-0.153l0.098,0.523L57.748,160.253z M57.876,160.95l-0.379,0.882l0.523-0.096L57.876,160.95z
		 M58.405,163.832l0.698-0.128l-0.413-0.288L58.405,163.832z M62.294,160.95l-0.841-0.657l-1.251,1.043L62.294,160.95z
		 M67.81,167.871l-1.796-1.922c-1.003,1.083-1.738,2.154-2.206,3.2l-0.7,0.129l0.257,1.395l1.921-0.352l-0.129-0.697l1.955-1.625
		l0.587,0.254L67.81,167.871z M66.396,160.191l-0.144-0.783l-1.398,0.258l0.147,0.783L66.396,160.191z M66.782,162.287l-0.826-0.568
		l0.257,1.395l0.698-0.128L66.782,162.287z M70.683,164.365l-0.97-1.353l-1.398,0.257l1.102,2.05L70.683,164.365z M70.208,69.276
		l-0.915-0.554l0.257,1.396L70.208,69.276z M72.007,167.639l-1.637-1.053l-0.456,1.438L72.007,167.639z M73.115,162.383
		l-0.098-0.523l-1.609-0.426L73.115,162.383z M83.116,162.795c-0.982-0.419-1.988-0.987-3.02-1.697l1.221-0.227
		c-0.74-0.104-1.909-0.067-3.5,0.104l0.939,1.182l-0.698,0.128l-2.16-0.954l-2.086,0.924l0.973,1.355l-1.664,1.75l-0.129-0.698
		l-1.483,0.272l0.26,1.396l1.723,1.037l0.428-0.621l0.792,0.397l0.131,0.697c0.887,0.254,1.921,0.817,3.105,1.683l-0.627-3.404
		l-0.428,0.621l-1.722-1.034l-0.303-0.667l0.744-0.86l1.31-0.241l0.257,1.396l3.121,0.779l1.3-0.779l0.746,1.125l-0.627-3.404
		L83.116,162.795z M76.458,157.527l-1.633-0.059l-2.466,0.814l2.368,1.095L76.458,157.527z M84.382,50.244l0.627,3.403l-1.221,0.225
		l-0.242-1.31l-1.114,2.281c-1.043-0.769-2.732-0.94-5.057-0.512c1.12-1.107,1.875-2.059,2.27-2.854l-0.587-0.252l1.518-2.535
		l0.973,1.355l1.612,0.424L84.382,50.244z M82.666,98.194l-0.26-1.396l-0.698,0.128l0.257,1.396L82.666,98.194z M84.578,108.576
		l-0.697,0.13l0.226,1.221l0.698-0.128L84.578,108.576z M84.948,110.583l-0.697,0.128l0.826,0.571L84.948,110.583z M85.924,104.629
		l-0.395,0.794l0.655,0.603L85.924,104.629z M89.036,71.58l-0.272-1.484l-2.178-1.042C87.062,69.688,87.879,70.529,89.036,71.58z
		 M90.097,100.342c-0.343-1.199-0.682-2.068-1.022-2.608l-0.758,0.772L90.097,100.342z M91.811,66.558l-1.493-0.266l1.637,1.051
		L91.811,66.558z M92.637,63.699l-1.582-1.242l-0.425,1.611l0.128,0.699l0.569-0.828L92.637,63.699z M93.117,66.316l-0.095-0.523
		l-0.688,0.667l0.144,0.786L93.117,66.316z M93.873,93.422l-0.658-3.578l-0.786,0.146l0.661,3.576L93.873,93.422z M95.295,97.218
		l-0.113-0.61l-0.697,0.128l0.113,0.612L95.295,97.218z M97.226,153.7l-0.128-0.698l-1.484,0.272l0.128,0.698L97.226,153.7z
		 M98.538,118.726l-0.786,0.144l-0.297,2.31l0.7-0.128L98.538,118.726z M98.841,128.681l-0.759-4.1
		c0.113,0.942,0.193,2.344,0.232,4.197L98.841,128.681z M99.844,153.217l-0.128-0.698l-1.398,0.258l0.128,0.697L99.844,153.217z
		 M107.064,107.229l-0.272-1.482l-3.549-3.587c0.343,1.863,1.236,4.103,2.683,6.723L107.064,107.229z M106.443,119.521l-0.869-1.281
		l0.303-0.327l-0.447-0.458l-0.297,2.311L106.443,119.521z M107.691,110.632l-2.239-0.399l0.404,2.181l0.826,0.569l0.156-1.112
		L107.691,110.632z M106.798,121.442l-0.741-0.588l0.129,0.698L106.798,121.442z M109.108,118.31l-2.096,0.386l0.826,0.568
		L109.108,118.31z"/>
	<path fill="#FFFFFF" d="M206.227,40.942c-0.146,0.791-0.187,2.016-0.113,3.674c-1.355,1.168-3.182,1.854-5.479,2.059l-4.066,0.378
		l-1.579-0.532l-1.777,1.632l-1.658-1.238l-1.955,1.654l-0.786-0.625l-1.239,0.858l-3.072-1.077l-0.624,0.787l-0.612-0.644
		l0.162,1.41l-0.704,0.081l-0.869-1.329l-2.12,0.959l-0.624,0.786l-3.601-1.016c-1.502,0.412-2.481,0.942-2.943,1.589l0.374,0.136
		l-2.644,0.304l-1.661-1.239l-1.248,1.572l-0.866-1.329c-1.245,1.097-2.31,1.934-3.197,2.512l-0.866-1.329l-0.792,0.092
		l-0.624,0.786l-0.691-1.351l-2.083,1.311l0.043,0.354l-1.411,0.162l0.41-0.315l-1.808-0.953l-0.542,1.492l-0.44,0.05
		c-0.707,0.081-1.612-0.023-2.717-0.313c-1.288-0.328-2.169-0.494-2.646-0.499l-1.113,1.2c-0.132,0.908-0.462,2.464-0.979,4.668
		c0.581,0.41,1.217,1.556,1.912,3.44l-0.737,1.335l1.193,2.631l-0.78,0.983l0.371,1.653l-0.095,0.725l0.435,3.791l0.964,0.604
		l0.477,4.142l-0.801,0.806c0.223,1.94,0.856,3.295,1.896,4.069l0.083,0.706l2.114-0.243l2.561-1.813l1.67,1.326l4.143-0.477
		l0.532-1.579l1.407,1.355l0.532-1.579l0.884,0.702l0.083,0.706l1.328-0.868l2.02,0.482l1.419-0.878l1.41-0.162l1.579,0.534
		l1.765-1.722l1.674,1.326c1.009-0.532,2.566-1.218,4.674-2.056l0.618,0.733l0.707-0.081l1.408-0.965l-0.704,0.884l1.539,0.181
		l1.371-0.516l0.691,1.349l-0.447,0.766l1.15-0.847l-0.08-0.705l2.91-0.333l1.009,2.562l-1.321,0.956l-3.142-1.693l-2.5,1.539
		c0.327,0.795,0.643,1.711,0.939,2.749l-2.123,0.156l-1.838,1.104l0.07,0.616l-2.748,1.746l-0.786-0.624l-1.322,0.151l0.245,2.115
		l-0.395-0.312l-1.016,0.474l0.542-1.491l-0.786-0.624l-3.356,1.1l0.707-0.081l-1.187,2.102l-2.028,0.234l-0.453,2.284l1.236-0.142
		l1.75,2.031l2.909-0.335l0.67,1.173l-3.518-0.309l-2.649,1.019l-0.847-1.152l-0.483,2.02l-2.286-0.451l-3.273,1.805l-0.869-1.329
		l-0.979,2.347l0.609,0.644c0.829-0.57,2.417-0.993,4.766-1.262c0.058-0.008,1.056,0.116,2.989,0.37l0.453-2.285l1.233-0.143
		c0.058-0.006,1.056,0.118,2.992,0.372l0.171,1.498c0.694,0.338,1.676,0.879,2.955,1.625l-1.233,0.142l0.171,1.499l-2.203,0.252
		l-0.799-0.711l-0.26,0.834l-1.147,0.131l-1.325-0.652l-1.942,1.743c-0.915-0.193-2.117-0.56-3.61-1.103l0.092,0.792l-1.588-0.62
		l-0.615,0.874l-0.795-0.711l-1.144,0.935l-1.499,0.173l-1.502-0.632l-3.873,1.25c-0.089,0.785-0.251,1.964-0.486,3.538
		l-0.618,0.072c0.741,0.75,2.102,2.467,4.078,5.157l-1.621,1.438l0.443,0.753l-1.866,1.643c0.945,0.965,2.276,2.446,3.996,4.453
		c0.184,1.585-0.275,3.305-1.371,5.158l1.478,1.974l0.79,6.874l-2.732,0.315c0.694,0.872,1.765,2.15,3.209,3.827l0.254,2.203
		l-1.175,0.673l0.691,1.349l0.624-0.786c0.486,4.231,1.282,6.997,2.383,8.297l0.061,0.532l0.967,1.407l-0.63,1.5l-1.955,1.654
		l-0.609-0.646l-0.801,0.808l-1.484-1.26l-1.249,1.572c-2.704,0.312-5.023,0.343-6.957,0.086l-0.08-0.704l-2.827,1.04l-2.102-1.187
		l0.162,1.41c-1.438-0.073-2.188-0.107-2.246-0.101l-1.897,0.574c-0.44-0.722-1.285-1.578-2.53-2.563l0.061-2.601l-0.373-0.134
		l0.532-1.579c-0.15-1.291-0.609-3.203-1.374-5.736c-0.768-2.53-1.23-4.47-1.386-5.822c-0.202-1.765,0.263-3.931,1.396-6.504
		l-1.328,0.869c-0.544-2.142-1.389-5.348-2.536-9.622l0.624-0.786l-0.866-1.327l-0.073-0.618l0.624-0.786
		c-0.45-1.319-1.107-2.641-1.973-3.971l-0.376,1.382c-0.762-0.924-1.364-2.016-1.808-3.275c0.355-1.052,0.896-2.037,1.627-2.955
		l-0.612-0.644l0.214-2.793l1.028,1.935l1.319-0.955l-0.141-1.234c-0.177-1.527-1.227-2.628-3.148-3.3l0.19-1.45
		c-1.031-2.739-1.799-6.313-2.304-10.72c-0.089-0.763,0.364-2.779,1.355-6.05l0.646-0.61l2.91-0.335l-0.083-0.705l-1.75-2.032
		l-0.355,0.042l-0.312,0.393l0.135,1.146l-1.454-0.189l-1.282,0.503l0.358-1.559c-0.281-1.396-0.93-3.434-1.955-6.115
		c0.364-0.458,0.587-2.151,0.667-5.079l-0.529,0.061l0.389-1.294l-0.254-2.205l-1.539-2.502l1.062-1.64l-0.224-1.939
		c-1.254-1.582-2.025-3.636-2.316-6.163c-0.088-0.764-0.165-1.946-0.229-3.546c-0.064-1.6-0.141-2.781-0.229-3.546l1.092-1.376
		c-1.135-2.607-1.955-6.116-2.459-10.523l-0.539-4.671c2.487-0.643,4.317-1.3,5.489-1.97l0.6,0.555l4.319-0.496l1.163-0.759
		c2.564,0.539,4.914,0.27,7.052-0.812l1.563,1.161l1.239-0.858l0.786,0.624l0.624-0.786l1.059-0.121
		c0.704-0.081,1.475-0.377,2.31-0.892l2.885,1.008l-0.153-1.321l1.328-0.867c0.967,0.127,2.398,0.41,4.295,0.846
		c1.404-0.22,2.527-0.559,3.365-1.013l1.569,0.445c1.447-0.881,3.062-1.068,4.849-0.559l1.34-0.778l0.6,0.555l5.642-0.648
		l-0.074-0.617l2.188,0.373l0.722-0.708l0.777,0.535l1.163-0.758l0.777,0.537l1.346-1.495l1.56,1.16l1.083-1.464l2.355,1.068
		l1.34-0.779l0.07,0.617l1.322-0.152l1.34-0.778l2.802,0.303l0.869,1.328l2.041-1.663c2.573,0.121,5.179,0.536,7.823,1.244
		l1.019,2.651l0.646-0.61c0.854,3.295,1.588,7.587,2.193,12.875L206.227,40.942z M126.782,39.72l-1.499,0.171l0.083,0.706
		l-1.27,1.396l0.707-0.081L126.782,39.72z M125.595,36.373l-1.41,0.162l0.061,0.529C124.591,36.966,125.038,36.735,125.595,36.373z
		 M132.163,75.627l-1.315-0.564c-0.832-1.034-1.68-1.918-2.539-2.654l-1.319,0.955l0.162,1.41l2.279,1.167l0.759-1.159l0.658,0.281
		l-1.337,1.583C130.144,76.455,131.028,76.115,132.163,75.627z M129.654,35.192l-2.114,0.243l0.08,0.705l1.41-0.162L129.654,35.192z
		 M129.707,96.986l-0.875-0.615l0.083,0.705L129.707,96.986z M129.896,49.721l-0.223-1.94l-0.563,1.315L129.896,49.721z
		 M133.173,35.5l-0.08-0.705l-1.939,0.224c-0.937,1.179-1.539,2.409-1.808,3.691l0.704-0.081
		C131.353,37.527,132.393,36.484,133.173,35.5z M131.934,79.851l-1.321,0.151l-0.575,1.227l-0.664,0.435l0.848,1.152
		C130.741,82.162,131.312,81.172,131.934,79.851z M130.875,64.433l-0.083-0.706l-0.704,0.081L130.875,64.433z M134.045,43.082
		l-0.787-0.624l-0.624,0.787l0.786,0.624L134.045,43.082z M137.3,71.375l-0.141-1.234c-0.679,0.316-1.799,0.684-3.359,1.1
		l0.153,1.323l0.704-0.884l1.404,1.355L137.3,71.375z M138.334,36.873l-0.875-0.615c-1.196,1.508-2.35,2.624-3.457,3.346
		l2.558-0.294L138.334,36.873z M144.661,61.597l-1.487-1.257l1.233-0.945l-0.162-1.41l-0.701-0.635l-3.114,4.734l-0.869-1.33
		l0.878-0.904l-0.346-0.675l-1.686,2.426l0.144,1.234l-2.206,0.252l0.083,0.705l-0.786-0.624l0.171,1.499l1.45-0.613l2.386,2.137
		l1.236-0.142l-0.339-1.391l1.441-2.219l1.584,1.337L144.661,61.597z M142.173,70.278c-0.982-0.78-1.79-1.848-2.42-3.205
		l-2.848,0.864c0.468,0.959,1.303,2.292,2.512,3.997l0.648-2.129L142.173,70.278z M140.365,134.518l-0.162-1.41l-1.875-0.768
		l-0.859,0.278l1.487,2.062L140.365,134.518z M139.548,121.216l-1.572-1.248l0.235,2.025L139.548,121.216z M141.118,121.662
		l-0.15-1.324l-0.707,0.082l0.153,1.322L141.118,121.662z M142.406,132.854l-0.704,0.08l0.08,0.706L142.406,132.854z M145.845,71.91
		l-0.615,0.07l-0.174-1.499l0.478-1.305l-0.166-1.41l-0.707-0.722l-2.821,0.324c0.162,1.411,1.056,2.976,2.683,4.693l0.707-0.081
		l-1.086,2.983l1.481,0.454l-0.777-0.536L145.845,71.91z M143.413,98.892l-1.411,0.162l0.866,1.33L143.413,98.892z M142.923,58.135
		l-0.083-0.705l-0.704,0.081L142.923,58.135z M144.278,138.266l-0.949-2.034l-0.529,0.061l0.774,2.056L144.278,138.266z
		 M148.509,33.737c-1.481-0.959-2.793-2.03-3.94-3.208l-0.618,0.07l0.361,1.566l-0.116,0.549l-1.319,0.956l4.283,0.757
		L148.509,33.737z M143.929,55.25l-0.083-0.706l-0.615,0.072l0.08,0.705L143.929,55.25z M144.223,143.986l-0.092-0.792l-0.529,0.061
		l0.092,0.793L144.223,143.986z M145.652,120.692l-1.328-1.453l0.312,2.729l0.869,1.33L145.652,120.692z M148.766,84.88
		l-2.793-0.214l-0.646,0.609l2.814,0.392L148.766,84.88z M148.111,103.264l-0.315-2.733l-0.704,0.081l-0.471,2.109L148.111,103.264z
		 M148.763,145.428l-0.786-0.624l0.083,0.706L148.763,145.428z M150.936,134.016l-0.456-0.838l0.211-1.278l-2.294-0.539l0.092,0.796
		L150.936,134.016z M157.507,31.989l-2.457-1.951l-3.889,2.68l2.286,0.451C154.802,32.538,156.155,32.143,157.507,31.989z
		 M154.606,135.649l-0.939-1.945l-0.625,0.783l0.153,1.321L154.606,135.649z M155.017,46.831l-0.704,0.081l0.092,0.794
		L155.017,46.831z M159.44,152.061l-0.881,0.104l-0.465,1.389C158.758,153.122,159.208,152.623,159.44,152.061z M162.579,33.37
		l-1.022-2.653l-0.612,0.875l-1.67-1.326l-1.062,1.642l3.659,1.543L162.579,33.37z M165.837,93.544l-0.691-1.349l-0.704,0.081
		l-0.798-0.713l-1.325,1.67l-2.172-1.803l-0.646,0.61c1.083,1.125,2.31,1.967,3.684,2.522L165.837,93.544z M160.566,47.71
		l-0.083-0.705l-0.446,0.766L160.566,47.71z M174.159,30.788l-2.288-1.256l0.795,0.713l-2.12,0.958l-2.549-0.42l1.141-0.936
		l-2.732,0.315l-1.493-0.543l0.456,0.841l-0.202,1.363l1.939-0.223l0.89-0.817l0.08,0.705l-0.826,1.345l6.345-0.73l-0.144-1.233
		L174.159,30.788z M165.672,85.882l-0.646,0.61l0.263-0.03C165.583,86.428,165.712,86.235,165.672,85.882z M168.067,44.616
		l-1.41,0.162l0.083,0.705L168.067,44.616z M206.875,100.166c-0.829,1.583-1.178,2.963-1.04,4.138l-1.08-0.055l-0.156,0.198
		l-1.021-1.132l-1.885,1.467l-3.58-0.84l-0.083-0.706l-2.738,1.031c0.976-0.828,1.811-1.846,2.505-3.058l-2.821,0.324l1.156-2.365
		l0.092,0.792c0.979,0.245,2.429,0.675,4.345,1.287l-0.04-0.352l1.248-1.572l-0.707,0.081l-0.171-1.499l1.499-0.171l0.447-0.767
		c-0.795-1.753-2.016-2.268-3.659-1.543l-0.092-0.793l-0.609-0.644l0.924,3.376l-2.111-0.471l-1.952,1.653
		c-0.202-1.764-1.45-2.513-3.741-2.249l-1.355,1.406l1.496-0.173l-0.624,0.786l1.493,0.543l-0.624,0.786
		c0.453,0.841,1.264,1.672,2.429,2.489l-1.157,2.366l-1.41,0.162l-0.875-0.613l-0.171-1.499l1.086-0.661l-0.517-1.369l-1.496,0.173
		l-0.254-2.205l-0.612-0.644l-0.625,0.787l1.57,2.766c-0.123,0.493-0.166,1.658-0.135,3.498l-7.755,0.894l-0.786-0.624l-0.704,0.081
		c-0.833,1.048-2.102,1.67-3.806,1.866l-1.579-0.532l-2.034,0.948l-0.875-0.615l-1.857,0.928l-2.286-0.451l1.499-0.173l1.328-0.867
		c0.777,0.03,1.952,0.133,3.519,0.311l0.165-0.912l2.316-1.606l1.49,0.543l1.416-0.878l-0.854-0.438l0.795-0.092l0.364-1.47
		l0.786,0.623l2.117-0.243l0.08,0.706l1.56,0.356l1.796-1.457l-0.875-1.418l1.958-2.368c-1.071-1.543-2.346-2.558-3.83-3.043
		l1.089-1.375l-1.566-2.767l0.606-2.481l-0.392-0.312l-0.162-1.411l2.827-1.04c1.169,0.343,2.475,1.591,3.913,3.748l-0.71,0.797
		l0.08,0.705l-0.624,0.787c1.037,1.25,2.759,1.736,5.17,1.459l1.349-0.691l4.846-0.557c0.771-2.112,1.57-3.694,2.402-4.742
		c-1.016-1.074-2.585-2.025-4.702-2.853l1.297-1.132l0.584-1.138l-0.08-0.705l-2.371-1.961l-0.061-0.527l-0.468,0.589l-0.141-1.234
		l0.447-0.765l0.786,0.624l1.249-1.572l1.321-0.153c0.691,1.349,1.086,2.437,1.181,3.258c0.052,0.471-0.074,1.706-0.379,3.705
		l3.142,1.693l0.083,0.705l-1.358,1.406l0.174,1.499l2.282,0.451l-1.102,3.61l0.163,1.41l1.67,1.325
		c-0.101,1.204-0.468,2.408-1.104,3.61L206.875,100.166z M170.882,45.006l-1.377-1.092l-0.826,1.346L170.882,45.006z M172.957,87.1
		l-0.315-2.733l-1.411,0.162l-1.713,2.966l2.815,0.392L172.957,87.1z M175.196,46.028l-2.111-1.276l-1.325,1.672l0.331-0.217
		l2.563,1.312L175.196,46.028z M175.658,30.615l-0.174-1.499l-2.203,0.254C174.245,29.974,175.034,30.389,175.658,30.615z
		 M182.343,82.537l-0.796-0.713l-6.345,0.729l1.582,1.337l0.792-0.092l0.144,1.235l1.796-1.458l2.347,0.98L182.343,82.537z
		 M179.482,100.37l-3.129-1.605l1.41-0.162l0.532-1.58C178.534,98.067,178.928,99.183,179.482,100.37z M181.26,98.736l-1.328,0.867
		l-0.844-2.671l2.111,1.274L181.26,98.736z M182.248,45.217l-0.786-0.624l-2.123,0.959l1.582,0.532L182.248,45.217z M183.456,38.649
		l-0.765-0.448l-0.529,0.061l0.59,0.468L183.456,38.649z M183.309,43.577l-0.08-0.705l-0.529,0.06L183.309,43.577z M185.711,94.74
		l-0.08-0.705l-0.624,0.786L185.711,94.74z M185.925,84.178c0.829-0.035,1.64,0.021,2.433,0.167l-0.312,0.393l-0.924-0.251
		l-1.016,0.474L185.925,84.178z M189.773,93.56l-0.707,0.081l0.083,0.705L189.773,93.56z M191.411,88.369l-0.707,0.081l-0.061-0.528
		l0.707-0.081L191.411,88.369z M193.919,86.116l-1.404-0.552l1.322-0.153L193.919,86.116z M203.088,24.513l-0.624,0.786
		l-0.869-1.329l0.625-0.787L203.088,24.513z"/>
	<path fill="#FFFFFF" d="M314.938,33.25c-0.184,0.783-0.281,2.005-0.288,3.665c-1.41,1.103-3.268,1.7-5.571,1.794l-4.078,0.184
		l-1.551-0.607l-1.854,1.546l-1.6-1.315l-2.028,1.559l-0.756-0.661l-1.282,0.797l-3.017-1.222l-0.661,0.756l-0.578-0.671
		l0.095,1.415l-0.707,0.047l-0.805-1.369l-2.166,0.856l-0.661,0.756l-3.546-1.186c-1.521,0.339-2.524,0.821-3.017,1.447l0.367,0.153
		l-2.656,0.177l-1.6-1.315l-1.322,1.511l-0.805-1.369c-1.294,1.036-2.398,1.82-3.31,2.354l-0.802-1.369l-0.798,0.053l-0.661,0.756
		l-0.624-1.381l-2.142,1.211l0.021,0.354l-1.413,0.095l0.422-0.295l-1.759-1.039l-0.612,1.464l-0.443,0.029
		c-0.707,0.047-1.606-0.1-2.695-0.442c-1.272-0.389-2.145-0.597-2.622-0.625l-1.168,1.145c-0.177,0.901-0.578,2.439-1.202,4.616
		c0.562,0.438,1.144,1.612,1.747,3.528l-0.801,1.298l1.067,2.686l-0.826,0.944l0.291,1.67l-0.132,0.721l0.257,3.806l0.93,0.648
		l0.278,4.161l-0.838,0.768c0.131,1.947,0.697,3.332,1.701,4.155l0.049,0.708l2.123-0.142l2.643-1.689l1.606,1.404l4.161-0.278
		l0.609-1.551l1.34,1.421l0.606-1.553l0.851,0.744l0.049,0.708l1.368-0.802l1.995,0.577l1.459-0.808l1.417-0.095l1.551,0.607
		l1.848-1.635l1.603,1.404c1.037-0.483,2.625-1.094,4.77-1.83l0.584,0.76l0.707-0.047l1.454-0.896l-0.744,0.849l1.53,0.254
		l1.392-0.448l0.624,1.38l-0.483,0.745l1.193-0.792l-0.049-0.708l2.922-0.194l0.887,2.608l-1.365,0.892l-3.056-1.842l-2.573,1.418
		c0.291,0.811,0.56,1.741,0.808,2.79l-2.129,0.054l-1.888,1.016l0.04,0.62l-2.827,1.612l-0.755-0.661l-1.328,0.088l0.144,2.125
		l-0.379-0.331l-1.037,0.425l0.612-1.464l-0.756-0.661l-3.405,0.939l0.71-0.047l-1.288,2.042l-2.035,0.136l-0.56,2.259l1.239-0.083
		l1.652,2.112l2.922-0.194l0.615,1.204l-3.5-0.479l-2.698,0.892l-0.79-1.192l-0.578,1.995l-2.261-0.56l-3.359,1.647l-0.802-1.369
		l-1.092,2.296l0.578,0.673c0.854-0.533,2.459-0.876,4.821-1.034c0.058-0.005,1.049,0.167,2.971,0.512l0.56-2.261l1.239-0.083
		c0.058-0.003,1.046,0.168,2.968,0.512l0.101,1.505c0.676,0.37,1.633,0.958,2.875,1.765l-1.242,0.083l0.101,1.504l-2.212,0.148
		l-0.762-0.75l-0.3,0.821l-1.15,0.077l-1.294-0.714l-2.022,1.647c-0.905-0.236-2.089-0.661-3.555-1.274l0.055,0.797l-1.561-0.696
		l-0.655,0.844l-0.762-0.75l-1.184,0.879l-1.505,0.1l-1.472-0.702l-3.928,1.063c-0.125,0.78-0.346,1.951-0.655,3.512l-0.621,0.042
		c0.704,0.783,1.979,2.565,3.828,5.346l-1.689,1.358l0.407,0.772l-1.942,1.553c0.899,1.006,2.157,2.554,3.778,4.638
		c0.107,1.594-0.432,3.291-1.616,5.088l1.383,2.041l0.458,6.905l-2.744,0.184c0.655,0.905,1.661,2.229,3.023,3.977l0.149,2.212
		l-1.205,0.618l0.627,1.377l0.661-0.753c0.284,4.246,0.945,7.049,1.982,8.401l0.037,0.532l0.896,1.45l-0.701,1.471l-2.031,1.558
		l-0.579-0.673l-0.838,0.771l-1.423-1.327l-1.322,1.511c-2.713,0.178-5.032,0.099-6.951-0.251l-0.046-0.706l-2.875,0.902
		l-2.041-1.285l0.095,1.417c-1.435-0.142-2.182-0.212-2.24-0.205l-1.921,0.483c-0.407-0.744-1.208-1.64-2.405-2.687l0.184-2.588
		l-0.367-0.153l0.609-1.554c-0.086-1.298-0.453-3.23-1.099-5.795c-0.648-2.563-1.016-4.527-1.104-5.886
		c-0.12-1.769,0.45-3.91,1.704-6.425l-1.37,0.802c-0.441-2.163-1.132-5.406-2.071-9.73l0.661-0.756l-0.805-1.369l-0.04-0.62
		l0.661-0.756c-0.388-1.337-0.982-2.69-1.784-4.06l-0.443,1.363c-0.716-0.959-1.264-2.079-1.646-3.357
		c0.404-1.034,0.991-1.992,1.765-2.875l-0.581-0.673l0.349-2.779l0.933,1.982l1.365-0.892l-0.086-1.239
		c-0.101-1.534-1.098-2.683-2.986-3.446l0.26-1.439c-0.896-2.786-1.493-6.391-1.79-10.818c-0.052-0.767,0.496-2.76,1.646-5.978
		l0.673-0.578l2.919-0.196l-0.046-0.708l-1.652-2.112l-0.354,0.023l-0.331,0.378l0.076,1.152l-1.441-0.26l-1.303,0.444l0.432-1.541
		c-0.214-1.409-0.768-3.476-1.661-6.203c0.385-0.441,0.688-2.12,0.908-5.041l-0.529,0.035l0.447-1.274l-0.146-2.214l-1.417-2.573
		l1.138-1.588l-0.131-1.947c-1.175-1.64-1.848-3.729-2.019-6.267c-0.052-0.766-0.07-1.952-0.058-3.553
		c0.009-1.602-0.009-2.784-0.062-3.552l1.157-1.323c-1.01-2.659-1.658-6.201-1.955-10.628l-0.315-4.691
		c2.515-0.523,4.375-1.092,5.577-1.707l0.572,0.584l4.338-0.289l1.199-0.704c2.533,0.662,4.892,0.504,7.083-0.473l1.505,1.233
		l1.279-0.797l0.756,0.661l0.661-0.756l1.062-0.07c0.71-0.047,1.493-0.308,2.35-0.78l2.833,1.145l-0.088-1.328l1.371-0.803
		c0.958,0.174,2.374,0.523,4.249,1.051c1.411-0.153,2.549-0.438,3.411-0.851l1.545,0.519c1.487-0.811,3.108-0.919,4.867-0.326
		l1.376-0.714l0.572,0.584l5.666-0.379l-0.043-0.62l2.166,0.479l0.756-0.673l0.75,0.572l1.199-0.702l0.75,0.572l1.417-1.429
		l1.505,1.233l1.15-1.41l2.301,1.179l1.377-0.714l0.04,0.62l1.328-0.089l1.377-0.714l2.784,0.436l0.805,1.369l2.117-1.563
		c2.563,0.243,5.149,0.782,7.755,1.615l0.89,2.697l0.673-0.579c0.697,3.332,1.224,7.655,1.579,12.966L314.938,33.25z
		 M235.643,28.236l-1.505,0.101l0.049,0.708l-1.334,1.334l0.707-0.047L235.643,28.236z M234.614,24.837l-1.417,0.095l0.037,0.531
		C233.583,25.382,234.045,25.172,234.614,24.837z M239.301,64.359l-1.285-0.625c-0.783-1.072-1.588-1.998-2.408-2.773l-1.365,0.892
		l0.095,1.417l2.218,1.274l0.814-1.121l0.646,0.312l-1.411,1.518C237.246,65.091,238.145,64.792,239.301,64.359z M235.829,85.576
		l-0.844-0.655l0.049,0.708L235.829,85.576z M238.873,68.567l-1.328,0.089l-0.633,1.198l-0.682,0.402l0.789,1.191
		C237.57,70.819,238.188,69.858,238.873,68.567z M238.729,23.851l-2.126,0.143l0.049,0.708l1.417-0.095L238.729,23.851z
		 M238.276,38.375l-0.131-1.947l-0.624,1.287L238.276,38.375z M238.552,53.116l-0.049-0.708l-0.707,0.047L238.552,53.116z
		 M242.229,24.328l-0.049-0.708l-1.946,0.13c-0.991,1.133-1.655,2.334-1.982,3.601l0.707-0.047
		C240.311,26.265,241.403,25.273,242.229,24.328z M244.637,60.358l-0.083-1.241c-0.691,0.285-1.826,0.598-3.405,0.939l0.088,1.328
		l0.744-0.849l1.34,1.421L244.637,60.358z M242.737,31.941l-0.755-0.661l-0.661,0.756l0.756,0.661L242.737,31.941z M244.683,123.578
		l-0.095-1.42l-1.835-0.856l-0.872,0.238l1.386,2.129L244.683,123.578z M247.317,25.945l-0.844-0.655
		c-1.27,1.449-2.472,2.507-3.613,3.176l2.567-0.173L247.317,25.945z M244.505,110.25l-1.511-1.322l0.134,2.036L244.505,110.25z
		 M252.454,50.943l-1.423-1.328l1.276-0.885l-0.095-1.417l-0.667-0.667l-3.341,4.581l-0.802-1.369l0.921-0.863l-0.312-0.69
		l-1.802,2.343l0.083,1.239l-2.212,0.148l0.049,0.708l-0.755-0.661l0.098,1.505l1.478-0.544l2.282,2.249l1.239-0.083l-0.269-1.404
		l1.545-2.149l1.517,1.41L252.454,50.943z M249.56,59.495c-0.946-0.826-1.701-1.932-2.267-3.316l-2.888,0.727
		c0.422,0.98,1.196,2.351,2.322,4.112l0.75-2.094L249.56,59.495z M246.05,110.768l-0.089-1.328l-0.707,0.047l0.089,1.328
		L246.05,110.768z M246.803,122.012l-0.709,0.049l0.049,0.706L246.803,122.012z M248.415,127.506l-0.851-2.077l-0.532,0.033
		l0.673,2.093L248.415,127.506z M248.085,133.218l-0.052-0.796l-0.532,0.034l0.052,0.798L248.085,133.218z M249.428,88.135
		l-1.417,0.095l0.805,1.369L249.428,88.135z M253.148,61.3l-0.621,0.041l-0.101-1.505l0.539-1.281l-0.095-1.416l-0.673-0.756
		l-2.833,0.189c0.095,1.417,0.912,3.023,2.457,4.815l0.707-0.047l-1.227,2.928l1.459,0.525l-0.75-0.572L253.148,61.3z
		 M250.624,110.019l-1.257-1.518l0.184,2.745l0.801,1.369L250.624,110.019z M250.884,47.401l-0.045-0.708l-0.71,0.047
		L250.884,47.401z M252.028,44.568l-0.046-0.708l-0.621,0.042l0.049,0.708L252.028,44.568z M252.551,134.876l-0.755-0.661
		l0.049,0.707L252.551,134.876z M255.445,74.396l-2.781-0.349l-0.673,0.58l2.793,0.525L255.445,74.396z M257.63,23.298
		c-1.432-1.029-2.692-2.161-3.781-3.393l-0.621,0.041l0.285,1.582l-0.141,0.543l-1.364,0.892l4.243,0.961L257.63,23.298z
		 M253.913,92.726l-0.184-2.744l-0.707,0.047l-0.572,2.083L253.913,92.726z M255.265,123.578l-0.413-0.86l0.272-1.264l-2.267-0.648
		l0.052,0.796L255.265,123.578z M258.854,125.383l-0.844-1.988l-0.661,0.758l0.088,1.328L258.854,125.383z M266.701,21.981
		l-2.358-2.065l-4.014,2.49l2.261,0.56C263.972,22.4,265.342,22.072,266.701,21.981z M262.898,142.007l-0.884,0.062l-0.529,1.37
		C262.167,143.035,262.638,142.558,262.898,142.007z M263.507,36.688l-0.71,0.048l0.055,0.797L263.507,36.688z M272.082,83.864
		l-0.624-1.381l-0.709,0.047l-0.762-0.75l-1.404,1.606l-2.083-1.906l-0.67,0.578c1.025,1.177,2.212,2.076,3.558,2.697
		L272.082,83.864z M271.7,23.603l-0.89-2.697l-0.655,0.844l-1.606-1.404l-1.138,1.588l3.583,1.716L271.7,23.603z M269.008,37.832
		l-0.049-0.708l-0.483,0.744L269.008,37.832z M272.284,76.204l-0.673,0.578l0.263-0.017
		C272.171,76.745,272.306,76.559,272.284,76.204z M312.759,92.438c-0.906,1.543-1.319,2.903-1.239,4.084l-1.074-0.107l-0.165,0.19
		l-0.967-1.181l-1.955,1.377l-3.533-1.01l-0.049-0.708l-2.784,0.898c1.013-0.779,1.896-1.756,2.649-2.934l-2.833,0.19l1.267-2.309
		l0.055,0.797c0.967,0.292,2.393,0.79,4.277,1.493l-0.021-0.355l1.322-1.51l-0.71,0.046l-0.101-1.503l1.505-0.101l0.483-0.744
		c-0.713-1.79-1.906-2.363-3.583-1.718l-0.052-0.795l-0.578-0.673l0.762,3.417l-2.083-0.572l-2.031,1.557
		c-0.116-1.77-1.328-2.578-3.628-2.425l-1.422,1.34l1.505-0.101l-0.661,0.756l1.462,0.613l-0.661,0.755
		c0.413,0.863,1.184,1.73,2.31,2.602l-1.27,2.309l-1.417,0.095l-0.844-0.655l-0.101-1.505l1.117-0.607l-0.45-1.394l-1.505,0.101
		l-0.147-2.213l-0.578-0.673l-0.661,0.756l1.435,2.839c-0.146,0.485-0.245,1.647-0.3,3.488l-7.792,0.52l-0.756-0.661l-0.707,0.048
		c-0.881,1.008-2.178,1.569-3.888,1.683l-1.554-0.607l-2.078,0.851l-0.844-0.655l-1.9,0.838l-2.258-0.56l1.502-0.101l1.371-0.803
		c0.774,0.067,1.939,0.226,3.5,0.477l0.205-0.902l2.393-1.495l1.462,0.613l1.456-0.808l-0.832-0.479l0.798-0.052l0.435-1.453
		l0.755,0.661l2.126-0.141l0.046,0.708l1.542,0.43l1.863-1.369l-0.808-1.458l2.071-2.273c-0.997-1.592-2.224-2.666-3.683-3.221
		l1.156-1.322l-1.435-2.839l0.725-2.449l-0.376-0.331l-0.095-1.417l2.873-0.904c1.153,0.399,2.396,1.707,3.732,3.93l-0.75,0.762
		l0.046,0.708l-0.661,0.756c0.976,1.299,2.674,1.866,5.094,1.706l1.38-0.627l4.871-0.325c0.869-2.072,1.744-3.614,2.625-4.623
		c-0.964-1.12-2.487-2.145-4.562-3.073l1.349-1.069l0.639-1.109l-0.049-0.708l-2.273-2.071l-0.034-0.531l-0.496,0.566l-0.083-1.239
		l0.483-0.744l0.755,0.661l1.322-1.512l1.328-0.088c0.624,1.381,0.967,2.485,1.022,3.31c0.031,0.474-0.153,1.701-0.554,3.684
		l3.056,1.84l0.046,0.708l-1.419,1.34l0.098,1.505l2.261,0.56l-1.273,3.554l0.095,1.417l1.606,1.404
		c-0.159,1.196-0.584,2.381-1.276,3.553L312.759,92.438z M283.393,21.576l-2.227-1.363l0.762,0.75l-2.166,0.856l-2.524-0.543
		l1.184-0.88l-2.745,0.184l-1.462-0.613l0.413,0.861l-0.266,1.352l1.949-0.13l0.927-0.774l0.046,0.708l-0.89,1.305l6.373-0.427
		l-0.083-1.239L283.393,21.576z M276.65,35.099l-1.417,0.095l0.046,0.708L276.65,35.099z M279.501,77.767l-0.184-2.744l-1.417,0.095
		l-1.854,2.88l2.793,0.524L279.501,77.767z M279.44,35.623l-1.322-1.156l-0.89,1.305L279.44,35.623z M283.702,36.85l-2.05-1.375
		l-1.404,1.606l0.343-0.201l2.497,1.434L283.702,36.85z M289.095,73.657l-0.762-0.75l-6.373,0.427l1.518,1.411l0.795-0.054
		l0.083,1.239l1.866-1.369l2.294,1.09L289.095,73.657z M285.387,91.333l-3.05-1.753l1.414-0.095l0.609-1.551
		C284.549,88.989,284.892,90.122,285.387,91.333z M284.898,21.475l-0.101-1.503l-2.215,0.146
		C283.515,20.769,284.286,21.221,284.898,21.475z M287.241,89.787l-1.371,0.803l-0.713-2.709l2.047,1.375L287.241,89.787z
		 M290.784,36.375l-0.756-0.661l-2.166,0.856l1.551,0.607L290.784,36.375z M292.305,29.873l-0.744-0.485l-0.532,0.037l0.566,0.496
		L292.305,29.873z M291.879,86.009l-0.049-0.708l-0.661,0.755L291.879,86.009z M291.922,34.79l-0.049-0.708l-0.529,0.035
		L291.922,34.79z M292.595,75.468c0.832,0.005,1.637,0.1,2.42,0.283l-0.331,0.378l-0.909-0.295l-1.037,0.425L292.595,75.468z
		 M295.991,85.022l-0.707,0.047l0.046,0.708L295.991,85.022z M297.873,79.918l-0.707,0.047l-0.037-0.533l0.71-0.047L297.873,79.918z
		 M300.488,77.787l-1.377-0.62l1.328-0.089L300.488,77.787z M312.585,16.69l-0.661,0.755l-0.801-1.369l0.661-0.756L312.585,16.69z"
		/>
	<path fill="#FFFFFF" d="M473.694,31.334c0.013,1.006-0.648,2.905-1.982,5.699c-2.355,0.794-4.681,1.972-6.969,3.532l-0.808-0.701
		l-0.704,0.717l-0.538-0.705l-0.691,1.427c-2.02-0.511-7.404-0.69-16.158-0.54l-1.343-1.228l-2.839,0.029l0.722,1.236l-0.701,0.716
		c0.046,4.555-0.41,8.818-1.374,12.791l1.526,1.937l0.073,6.92c0.009,0.887-0.48,2.104-1.471,3.653l1.514,0.515l-0.789,0.719
		l0.037,3.637l-1.236,0.633l0.015,1.42l1.242-0.012c-0.459,1.483-0.667,4.087-0.627,7.813l1.53,2.025l0.043,4.169
		c-0.52,1.247-1.013,2.14-1.481,2.677l1.523,1.493l0.077,7.096c0.006,0.592-0.223,1.394-0.685,2.403
		c-0.465,1.011-0.722,1.724-0.777,2.137l0.728,1.591l0.052,4.967c-0.704,0.718-1.227,1.67-1.569,2.856l0.905,1.499l0.092,8.873
		l-0.875,1.073l0.358,0.349l-0.088,0.004l0.63,0.792l-1.961-0.777l-2.203,1.53c-0.486-1.178-1.175-1.909-2.065-2.197l-0.701,0.716
		l-0.731-2.12l-0.688,2.139c-1.019-1.291-2.182-2.166-3.488-2.625l0.012,1.242l-0.716-0.703l-1.325,0.722l-0.006-0.71l1.325-0.544
		l-1.526-1.671l-1.239,0.189l-0.009-0.709l1.413-0.723l1.331-0.016l-0.009-0.709l-1.349-2.027l-0.704,0.718l-0.716-0.704
		l-0.71,0.007l-0.015-1.419l-1.42,0.015l-0.015-1.508c1.291-0.664,2.23-1.561,2.809-2.691l0.719,0.702l1.322-0.724
		c0.716,0.407,1.64,1.107,2.775,2.1l0.878-0.719c0.78,1.176,1.447,2.558,1.995,4.148l0.71-0.006l1.315-1.435l0.009,0.71l0.697-1.249
		c-0.716-0.584-1.407-1.552-2.071-2.906c0.636-1.368,1.539-2.53,2.713-3.489l-1.429-0.694l0.009,0.71
		c-1.426-0.459-2.76-0.681-4.001-0.669l0.526-0.716l-2.056-1.487l1.496-1.257l1.964,1.222l1.508-0.017l1.973,2.198l0.695-1.516
		c-0.964-1.586-1.689-2.968-2.172-4.147l0.71-0.008c-0.664-1.057-1.353-1.938-2.068-2.64l-0.704,0.718l-0.716-0.702
		c0.603,1.295,0.881,2.239,0.829,2.83l-0.083,0.623c-0.774-0.347-1.729-1.075-2.864-2.189l-1.331,0.014l0.04,3.638l-0.704,0.717
		c-0.661-0.938-1.349-1.641-2.062-2.107l-0.71,0.007c-0.664-1.175-1.618-2.082-2.87-2.72l0.704-0.717
		c0.835,0.701,2.233,1.574,4.198,2.617l0.704-0.717l-0.021-1.952l-1.419,0.016l-0.646-2.212l0.009,0.709
		c-0.833-0.168-1.545-0.396-2.139-0.687c-1.052,1.135-1.781,2.296-2.181,3.483l-1.242,0.014l-0.722-1.236l-1.499,0.727l0.456,1.415
		l-0.422,2.045l-1.419,0.014l-1.276-3.446l-0.046-4.347l1.236-0.544l-1.257-1.496l1.233-0.722l-0.539-0.705l-0.709,0.008
		c-0.019-1.774,0.159-4.438,0.539-7.991c0.373-3.552,0.554-6.216,0.535-7.991l-1.251-0.785l-0.085-8.339l1.233-0.722l-0.232-22.356
		c-0.031-2.78-1.196-4.158-3.503-4.135l-0.704,0.54l-2.307,0.113c-1.716,0.078-3.02-0.115-3.91-0.58l-2.123,0.554
		c-0.658-0.405-2.818-0.62-6.486-0.641c-4.081-0.075-6.596-0.226-7.544-0.454c-2.836,0.505-4.754,0.76-5.761,0.771l-0.443,0.004
		c-0.6-0.881-1.083-1.852-1.45-2.912l0.704-0.54l-0.722-1.412c0.419-5.031,0.618-8.554,0.597-10.565l0.71-0.008l-0.731-2.21
		l1.294-3.474l0.701-0.717l2.139,0.688l0.688-1.959l1.688,0.338c1.652-0.313,3.164-0.269,4.528,0.13l0.716,0.702l1.502-0.727
		l0.716,0.702l-1.404,1.523l0.71-0.007l1.413-0.812l0.447,0.262l-1.172-1.674c1.417-0.37,3.038-0.564,4.874-0.584l0.716,0.524
		l0.792-0.54l1.249,0.519l0.704-0.54l1.425,0.519l1.508-0.017l-0.006-0.532c0.477,0.35,5.091,0.48,13.843,0.389l0.719,0.702
		l0.7-0.718l1.429,0.695l-0.009-0.71c1.303,0.105,2.459,0.329,3.469,0.673l2.209-0.732l0.541,0.705l2.396,0.062
		c1.655,0.043,2.983-0.237,3.983-0.839l0.725,1.412c1.175-0.603,2.239-0.879,3.185-0.832l0.976,0.078l0.719,0.704l0.709-0.008
		l1.322-0.724l0.719,0.702c1-0.483,1.943-0.731,2.83-0.74c0.532-0.004,1.214,0.225,2.049,0.688l0.178-0.001
		c2.309-0.025,4.548-0.698,6.72-2.022l1.432,1.227l0.704-0.718l1.518,0.695l-0.716-0.702l1.964,1.399l0.703-0.717l0.809,0.701
		l0.697-0.718l-0.716-0.702l0.703-0.54l-0.722-1.501l-0.013-0.709l-0.801-0.701l2.208-0.733l-0.006-0.709l-1.438-1.315l1.419-0.016
		l0.698-1.427l1.346,1.406l-0.6,2.047l1.346,1.406l-2.043,0.021l1.34,0.696l-0.429,1.69l0.466,1.77l0.709-0.008l1.414-0.725
		l0.716,0.702l1.321-0.724c0.489,1.475,0.747,3.098,0.765,4.872l-0.697,1.516C473.192,28.411,473.688,30.921,473.694,31.334z
		 M384.804,24.013l-0.015-1.508l-0.621,0.006l0.015,1.508L384.804,24.013z M415.721,27.86l-0.37-1.328l0.34-1.422l-1.499,0.725
		c-0.838-0.818-1.732-1.519-2.686-2.102l-0.799,0.009l-1.41,0.724l-0.016-1.507c-0.82,0.837-1.493,1.406-2.022,1.706l-0.003-0.177
		l-2.129,0.022l0.015,1.42l0.716,0.702l1.414-0.725c0.661,1,1.83,2.377,3.503,4.135C410.952,29.92,412.598,29.194,415.721,27.86z
		 M407.293,27.947l-0.71,0.008l0.716,0.702L407.293,27.947z M437.008,137.391l-1.863-0.07c-1.835-0.037-3.989,0.251-6.467,0.869
		c-0.658-0.469-5.746-0.652-15.269-0.551l-1.53-2.025l0.792-0.719l-0.028-2.751l0.713,0.526l0.529-0.538l-0.542-0.704l0.526-0.716
		l0.015,1.42l1.419-0.016l0.722,1.325l0.015,1.419l0.355-0.006c0.648-0.006,1.68-0.489,3.09-1.45l3.476,1.383l1.508-0.016
		l1.404-1.435l2.42,2.46l1.067,0.165l-0.006-0.532l0.716,0.526l1.31-1.968l2.848,0.683l-0.009-0.71l0.719,0.701l-0.009-0.71
		l1.34,0.694l-0.015-1.42l0.737,2.655L437.008,137.391z M413.926,136.124l-0.012-1.242l-0.533,0.003l0.012,1.242L413.926,136.124z
		 M414.871,22.899l-0.704,0.806l0.015,1.419l0.964-1.253L414.871,22.899z M416.933,25.096l-0.539-0.704l0.006,0.71L416.933,25.096z
		 M421.849,28.505l-0.015-1.419l-1.254-1.318l-1.414,0.725l-0.798,0.007l-0.731-2.122l-1.227,1.433l1.254,1.317l0.009,0.709
		C419.273,28.296,420.666,28.518,421.849,28.505z M423.52,111.712l-0.783,1.429l-1.961-0.69l0.719,0.702l-1.429-0.694
		c-0.758,0.777-1.254,1.699-1.478,2.766l1.515,0.694l-0.79,0.717l-0.688,2.047l-1.257-1.315l0.511-2.135l-1.264-2.027l0.688-2.137
		l0.538,0.704l-0.015-1.419l-1.242,0.014l-0.021-2.041l1.236-0.724l0.006,0.71c0.597,0.586,1.346,1.495,2.246,2.728l0.71-0.008
		l0.355-0.181l-0.361-0.529C421.999,110.664,422.92,111.127,423.52,111.712z M418.147,73.262l-0.71,0.006l0.009,0.71L418.147,73.262
		z M418.2,78.14l-0.722-1.234l0.012,1.242L418.2,78.14z M418.273,85.238l-0.006-0.709l-0.709,0.007l0.006,0.71L418.273,85.238z
		 M421.822,25.755l-0.031-2.928l-0.532,0.006l-0.719-0.704l-0.701,0.717l-0.719-0.702l-1.508,0.016l0.015,1.508l2.928-0.03
		L421.822,25.755z M421.305,95.055l-2.937-0.768l0.009,0.798L421.305,95.055z M421.375,101.887l0.015,1.507l-0.709,0.008
		L421.375,101.887z M422.789,118.107c-0.291,0.535-0.936,0.958-1.94,1.264l-0.021-2.041l1.429,0.783l-0.003-0.354L422.789,118.107z
		 M422.532,93.533l-1.242,0.014l0.355,0.173l-0.349,0.537C421.767,94.135,422.18,93.893,422.532,93.533z M423.342,27.069
		l-0.71,0.007l0.009,0.71L423.342,27.069z M429.767,106.767l0.016,1.419l-2.756-0.681l-0.698,1.427l0.015,1.331l-1.419,0.016
		c-0.951-0.404-1.695-0.84-2.233-1.308c0.881-0.719,2.086-1.442,3.616-2.167l-1.429-0.783l0.009,0.798
		c-0.661-0.999-1.144-1.91-1.447-2.736l1.42-0.014l2.141,1.219l1.331-0.014L429.767,106.767z M427.087,113.627l-0.722-1.234
		l0.012,1.242L427.087,113.627z M428.935,94.976l-2.041,0.021l0.633,1.235L428.935,94.976z M431.235,119.974
		c-1.306-0.459-1.989-0.691-2.047-0.691l-0.709,0.009C429.075,119.76,429.993,119.986,431.235,119.974z M432.095,117.213
		c0.061,0.354,0.245,0.797,0.544,1.323l0.352-0.355L432.095,117.213z M433.08,24.928l-0.716-0.702l0.006,0.708L433.08,24.928z
		 M435.577,119.215l-1.521-1.224l-0.698,1.248L435.577,119.215z M434.61,26.951l-0.006-0.621c0.594,0.349,1.251,1.023,1.974,2.021
		l-0.021-2.041l-0.71,0.007l0.701-0.717c0.838,0.938,2.239,2.077,4.207,3.416l1.508-0.016c0.281-1.48,0.74-2.639,1.383-3.475
		l2.05,0.688l0.679-2.845l-1.686,0.106c-1.891,0.139-3.46-0.141-4.711-0.838l-0.523,0.805l-1.429-0.783
		c-1.064,0.011-2.481,0.292-4.25,0.843l0.817,1.588l1.254,1.229l-1.242,0.012l-0.792,0.63L434.61,26.951z M440.401,63.18
		l-0.545-1.236l-0.704,0.716L440.401,63.18z M447.104,25.491l-0.006-0.71l-0.71,0.008l0.006,0.708L447.104,25.491z M451.259,24.027
		l-0.725-1.501l-0.701,0.806l0.028,2.839L451.259,24.027z M454.188,23.996l-1.512,0.015l-1.402,1.435l1.421-0.016l1.523,1.316
		l0.159-1.688L454.188,23.996z M472.195,23.808l-0.178-0.354l-0.44,0.359L472.195,23.808z"/>
	<path fill="#FFFFFF" d="M478.507,100.848l-0.521-0.544l0.539-0.343c-0.973-1.441-1.444-3.018-1.407-4.734l-0.515-0.72l0.594-2.916
		c-0.679-1.612-0.783-4.898-0.324-9.857l-0.697-0.547c0.281-2.182,0.428-3.332,0.428-3.451c0.013-0.532-0.049-1.745-0.189-3.644
		l-0.086-0.001l0.092-0.087c-0.152-1.363-0.159-2.487-0.018-3.371l-0.71-0.016l0.073-3.46c0.03-1.419,0.318-3.778,0.862-7.081
		l2.038,0.044c-0.753-0.667-1.646-1.811-2.674-3.429c1.248-0.387,2.417-1.102,3.506-2.143l0.024-1.242l-2.068,1.198l-0.189,0.705
		c-0.789-1.792-1.15-4.224-1.089-7.3l0.049-2.305l1.456-1.478l-0.667-2.145c0.753-1.817,2.19-4.331,4.332-7.54l0.049-2.216
		c3.256-2.828,6.859-6.686,10.806-11.572c1.432-0.442,2.846-1.565,4.246-3.37l0.691,0.725l1.347-0.682l0.354,0.008
		c1.481,0.032,3.243-0.906,5.299-2.815l0.704,0.193c1.603-0.379,2.771-0.828,3.487-1.345c0.122,0.001,1.512-0.085,4.179-0.266
		c1.542-0.145,2.932,0.005,4.161,0.444l0.813-0.693c1.358,0.029,2.748,0.296,4.155,0.8l2.692-1.363
		c1.584,0.508,3.059,0.775,4.417,0.805l0.551-0.699c2.515,1.297,4.87,1.584,7.079,0.863l-0.03,1.24l1.432-0.501l1.756,0.925
		l0.937,1.883l-3.562,4.805l3.384,3.533l0.723-0.694l0.709,0.015l-0.495-1.696l1.988-1.733l-1.37-2.07l2.08-2.085l1.389,1.449
		l-0.012,0.709l-0.74,1.316l1.407,0.74l1.505,0.032l0.667,1.967l-0.729,0.961l-2.894-1.571l-0.771,2.734l-0.636,0.697l1.303,1.447
		c-1.303-0.028-2.925-0.298-4.864-0.814l0.723-0.694l-0.692-0.725l-1.346,0.681c0.74,1.259,1.872,2.201,3.402,2.824l1.389,1.45
		l1.346-0.681l1.39,1.449c1.303-0.266,2.466-0.714,3.487-1.345l0.648,2.941l1.536-1.475l-0.013,0.799l1.377,1.981l0.894-0.335
		l0.349,0.363l1.529-1.21l0.704,0.547l2.062-1.199l-1.475-1.539l0.771-2.735l1.505,0.032c0.11,0.358,0.955,2.448,2.527,6.266
		l0.802,0.017c0.508,1.196,1.419,2.605,2.747,4.231l-2.852,0.648l0.661,2.232l0.71,0.015l0.74-1.404l1.297,1.449l0.729-0.694
		c-0.031,1.419,0.392,3.795,1.267,7.126l-0.734,1.226l1.389,1.45l-0.74,1.316c0.44,1.488,0.636,3.356,0.594,5.603l1.475,1.541
		l-1.566,2.628l1.443,2.96l-0.795-0.017l-0.753,2.025c0.489,1.904,0.961,3.304,1.413,4.2l-0.808,0.693
		c0.007,2.189,0.38,5.452,1.12,9.785l-0.594,2.738l0.532,0.012l-0.214,1.858c0.386,1.25,0.624,2.498,0.716,3.742l0.086,0.092
		l-0.086-0.003c0.049,0.476,0.067,0.95,0.055,1.421l-1.211-1.446l1.156,0.024v-0.088l-0.605-0.722l-2.056,0.754
		c0.409,3.026,0.587,5.634,0.544,7.821l-0.71-0.015l0.667,1.967l-1.48,2.718l0.722-0.517l-0.061,2.75l0.685,1.435l-0.03,1.242
		l-0.71-0.015c-0.899,3.471-1.774,6.972-2.618,10.504c-0.888,2.584-2.698,5.83-5.446,9.733l0.521,0.719l-0.532-0.009l-2.172,1.906
		l-0.019,0.798c-2.992,1.71-6.994,4.88-12.005,9.506l-0.783-0.729c-1.15,1.099-4.662,2.236-10.543,3.414l-0.03,1.242l-13.302-0.287
		l-2.16,1.462l-2.013-1.548l-1.433,0.679l-0.795-0.018c-2.368-0.049-3.481-0.551-3.341-1.493c-0.71-0.189-1.86-0.214-3.463-0.073
		l-0.771-1.261l-0.71-0.013l-0.722,0.691c-2.252-0.046-4.094-1.062-5.525-3.044l0.888,0.019c1.566-1.563,2.925-2.689,4.062-3.374
		l0.697,0.725l0.741-1.404l2.686,2.809c1.255-0.562,3.139-1.44,5.647-2.631c-0.392-0.894-1.027-1.646-1.902-2.258l-1.42-0.03
		l0.691,0.813l-0.74,1.404l-1.505-0.034l0.061-2.747l-0.881-0.551l-1.083,1.04l-3.463-0.073l0.043-1.951l1.229,0.733l0.74-1.4
		l0.013-0.71c-0.991-0.612-1.86-1.548-2.601-2.809l-2.233,0.661l-0.024,1.241l2.185,1.558l-0.833,1.401l-0.012,0.71l-1.952-0.04
		l-1.535,1.297l-1.401-0.829l0.024-1.242l1.419,0.031l-0.697-0.726l2.252-1.37l-1.321-0.472l-3.029,0.38l0.697,0.722l-1.376,2.102
		l1.303,1.358l-0.03,1.42l2.11,0.756l-0.012,0.709l-0.74,1.316l-3.457-0.074c-0.68-1.376-2.289-2.328-4.821-2.857l0.74-1.4
		l0.532,0.012l0.813-0.783l-2.766,0.74c-1.034-1.443-2.398-2.625-4.094-3.549l2.674-0.654l-1.951-0.04
		c-0.802-1.261-2.649-3.43-5.538-6.507l0.024-1.242l-1.419-0.031l0.759-2.202c-0.569-1.193-1.688-2.787-3.359-4.776l1.346-0.681
		l-0.801-0.017l-0.496-1.521l0.373-0.878c-0.624-4.154-0.924-6.645-0.905-7.474l0.691,0.725l0.03-1.419l-0.691-0.725l0.71,0.015
		l0.03-1.331l1.341-0.415l-0.013,0.444L478.507,100.848z M476.414,74.091l1.169-0.684l-0.521-0.545l-0.643,1.14L476.414,74.091z
		 M478.109,86.108l-1.358,1.302l0.532,0.012L478.109,86.108z M477.356,83.962l0.049-2.218l-0.532-0.011l-0.049,2.218L477.356,83.962
		z M477.467,78.996l0.043-2.129l-0.532-0.011l-0.043,2.127L477.467,78.996z M497.071,54.389c-0.392-1.072-0.833-2.709-1.316-4.909
		l-2.141,0.486l-1.316-0.56l0.582-2.206l-1.065-0.2l-1.572-1.1l1.469-2.186l-1.42-0.03l-2.251,1.372l-1.922-1.461l-0.813,0.691
		c0.508,1.135,0.753,2.294,0.729,3.477l-0.447-0.009c-1.774-0.038-4.008,0.89-6.712,2.784l-0.03,1.242l1.389,1.539
		c0.722-0.635,1.896-1.526,3.518-2.677l2.932,0.062l1.199,1.978l-1.989,1.467l-0.795-0.017l-0.783,3.443l0.722-0.695
		c1.952,0.043,3.592,0.965,4.913,2.767l0.71,0.016l1.475-2.629l0.502,1.43c0.734-1.107,1.493-2.068,2.282-2.88l0.691,0.725
		L497.071,54.389z M479.633,81.259l-0.71-0.014l-0.024,1.241L479.633,81.259z M481.315,106.41l-1.45-2.783l-0.71-0.015
		C479.614,104.393,480.33,105.324,481.315,106.41z M480.605,102.224l-0.679-1.346l0.018-0.886l-0.728,0.872L480.605,102.224z
		 M481.432,63.639l-1.407-0.563l-0.031,1.331L481.432,63.639z M481.254,72.066l-0.697-0.636l-0.03,1.508L481.254,72.066z
		 M484.699,39.394l-1.353-2.957l-0.532-0.012l-1.555,2.186l0.68,1.434l-0.771,2.735l1.493,0.742
		C483.45,42.415,484.136,41.038,484.699,39.394z M482.307,60.197l0.024-1.242l-0.796-0.017l-0.03,1.24L482.307,60.197z
		 M484.014,71.503l-1.42-0.03l-0.012,0.621l-0.551,0.877l0.532,0.01L484.014,71.503z M491.864,69.542l-5.544-2.16l-2.955,1.268
		l-0.031,1.419l1.408,0.739l-0.019,0.71l1.511,0.032l0.771-2.822l0.532,0.011l-0.03,1.42l0.722-0.695l0.856,1.438l1.315,0.739
		L491.864,69.542z M486.455,61.084l-0.691-0.814l0.71,0.016l-0.691-0.725l-0.802-0.017l0.783,0.727l-0.813,0.782l0.783,0.727
		L486.455,61.084z M489.814,66.036l0.392-1.854l-0.307-2.314l-0.795-0.017c-0.967,0.81-1.634,1.71-2.014,2.708l1.242,0.028
		l0.031-1.331L489.814,66.036z M489.478,114.926l0.013-0.532c-0.361,0.052-0.869,0.219-1.524,0.5L489.478,114.926z M490.315,108.732
		l-1.419-0.031l-0.826,1.314l1.493,0.742L490.315,108.732z M492.194,116.403l0.03-1.418c-0.899,0.69-1.591,1.149-2.068,1.375
		L492.194,116.403z M492.996,112.25c-0.459-0.956-1.358-1.684-2.705-2.188l1.193,2.155L492.996,112.25z M491.484,54.27l-0.03,1.242
		l-0.71-0.015L491.484,54.27z M496.869,63.969l0.024-1.242l-1.389-1.45l-0.729,0.694l-0.71-0.015l-0.673-1.522l0.722-0.695
		l2.84,0.06l0.073-3.458c-1.444,1.094-3.348,2.946-5.709,5.558l4.111,2.839L496.869,63.969z M494.703,65.432l-1.053-0.378
		l-1.694,0.318l1.284,2.158l0.906-0.869L494.703,65.432z M493.32,63.893l0.012-0.533l-0.801-0.017
		C492.586,63.465,492.849,63.648,493.32,63.893z M494.263,52.821l-1.523,0.766l0.813-0.782L494.263,52.821z M494.587,71.02
		l-0.698-0.725l-0.722,0.695l0.691,0.725L494.587,71.02z M496.349,117.204c-0.538,0.225-1.229,0.714-2.074,1.463l0.697,0.548
		C495.339,118.812,495.798,118.138,496.349,117.204z M497.102,115.089l-0.74,1.404l0.697,0.724L497.102,115.089z M498.484,83.704
		l-0.691-0.812l-0.759,2.201L498.484,83.704z M545.2,90.293l-1.407-0.739c0.073-3.43,0.3-5.731,0.686-6.908
		c-0.446-1.309-0.832-2.769-1.15-4.373l0.734-1.226l-0.648-2.766l0.74-1.493l-0.68-1.433l0.74-1.404l-0.697-0.548l0.062-2.928
		l-0.691-0.725l0.734-1.314l2.117,0.577l0.03-1.242l-2.827-0.77l1.438-0.679l-2.001-2.083l1.377-2.102l-3.365-4.331l0.74-1.404
		l-0.729,0.695c-1.205-1.8-1.909-3.442-2.111-4.926c-1.749-1.338-2.606-2.747-2.575-4.227l-3.396-2.824l-2.245,1.195l-0.686-1.257
		c-1.523-0.682-3.806-1.707-6.853-3.075c-0.355,0.052-1.102,0.184-2.228,0.396c-0.894,0.217-1.634,0.32-2.228,0.308l-0.44-0.011
		l-0.691-0.812l-0.036,1.506c-1.371,0.386-3.194,1.279-5.471,2.679c-2.275,1.403-4.014,2.297-5.2,2.685
		c-0.037,1.479-0.184,2.867-0.447,4.161l-3.133,1.265l0.349,0.185c-0.636,2.057-1.499,5.056-2.588,8.996l0.551,3.472l-0.648,1.229
		c0.386,1.251,0.551,3.148,0.502,5.69l-0.655,1.406l-0.049,2.218l1.48,1.274l-0.373,0.879l0.33,1.337
		c-0.373,0.702-0.691,1.85-0.96,3.44l1.401,0.74c-0.661,0.401-1.591,1.031-2.79,1.892l1.284,2.247l-1.021,1.931
		c0.202,1.602,0.502,2.821,0.899,3.657c-0.092,4.257,0.024,7.13,0.349,8.615l0.894-0.159l-0.122,5.589
		c1.438,1.805,3.75,4.399,6.932,7.78c0.563,1.254,1.463,2.19,2.692,2.808l0.71,0.016c2.104,0.991,5.336,2.275,9.68,3.847
		c0.905-0.869,1.836-1.591,2.796-2.162l1.39,1.538c2.882-2.007,5.47-4.082,7.765-6.222l0.783,0.727
		c1.242,0.026,2.417-1.072,3.53-3.296c0.746-1.64,1.486-3.281,2.233-4.922l0.019-0.709l1.432-0.679l-1.022-1.886l1.145-3.791
		l0.63-0.519l1.42,0.031l-1.401-0.741l0.031-1.508l0.691,0.814l1.449-1.478l0.092-4.168L545.2,90.293z M505.925,125.839l0.71,0.015
		l-0.6-4.983l-2.662-0.059l-0.845,2.025l-0.171-0.184l-0.538,0.169l0.679,1.435l2.08-1.909l0.68,1.435l-1.242-0.027l0.146,1.426
		l-0.189,0.615l1.242,0.027l0.03-1.509l0.71,0.016L505.925,125.839z M508.635,127.849l-2.031-0.575l-0.012,0.532L508.635,127.849z
		 M508.617,128.559l-0.551,0.786l0.532,0.012L508.617,128.559z M508.556,131.483l0.71,0.018l-0.349-0.363L508.556,131.483z
		 M512.949,129.448l-0.691-0.811l-1.438,0.765L512.949,129.448z M516.95,137.345l-1.37-2.249c-1.205,0.86-2.142,1.76-2.809,2.689
		l-0.71-0.012l-0.03,1.419l1.951,0.04l0.013-0.71l2.245-1.193l0.526,0.364L516.95,137.345z M517.115,129.537l0.019-0.795
		l-1.419-0.031l-0.019,0.796L517.115,129.537z M517.073,131.667l-0.698-0.723l-0.03,1.417l0.71,0.015L517.073,131.667z
		 M520.469,134.49l-0.673-1.521l-1.42-0.03l0.661,2.23L520.469,134.49z M521.105,137.966l-1.39-1.361l-0.74,1.315L521.105,137.966z
		 M532.963,135.466c-0.875-0.605-1.744-1.364-2.612-2.272l1.242,0.027c-0.704-0.251-1.854-0.453-3.451-0.605l0.686,1.346
		l-0.71-0.019l-1.928-1.37l-2.227,0.483l0.679,1.523l-1.982,1.377l0.013-0.71l-1.506-0.03l-0.03,1.419l1.48,1.364l0.545-0.522
		l0.697,0.547l-0.019,0.71c0.82,0.432,1.72,1.19,2.705,2.276l0.073-3.457l-0.545,0.521l-1.48-1.365l-0.159-0.713l0.899-0.691
		l1.334,0.028l-0.03,1.419l2.899,1.396l1.426-0.502l0.508,1.254l0.074-3.463L532.963,135.466z M523.253,133.043l0.012-0.532
		l-1.493-0.743L523.253,133.043z M527.512,128.962l-1.591-0.389l-2.576,0.3l2.093,1.552L527.512,128.962z M539.234,41.271
		l-0.783-0.727l-0.024,1.419L539.234,41.271z M545.316,84.706l-0.709-0.015l0.697,0.725L545.316,84.706z M545.365,82.667
		l-0.709-0.015l-0.031,1.24l0.71,0.016L545.365,82.667z M545.586,72.11l0.03-1.419l-0.71-0.016l-0.03,1.42L545.586,72.11z
		 M547.482,79.073l-0.551,0.698l0.521,0.72L547.482,79.073z M548.621,129.415l0.018-0.71l-1.511-0.033l-0.013,0.709L548.621,129.415
		z M556.967,25.498l-0.073,3.46l-1.242-0.028l0.03-1.329l-1.554,2.007c-0.863-0.964-2.484-1.473-4.847-1.523
		c1.315-0.858,2.252-1.638,2.803-2.336l-0.526-0.366l2.001-2.177l0.673,1.524l1.493,0.742L556.967,25.498z M551.282,129.47
		l0.019-0.71l-1.42-0.03l-0.018,0.71L551.282,129.47z M552.433,75.717c-0.092-1.244-0.251-2.163-0.471-2.761l-0.899,0.603
		L552.433,75.717z M555.26,105.24l0.092-4.168c-0.08,0.945-0.288,2.331-0.618,4.157L555.26,105.24z M557.211,47.334l0.031-1.508
		l-1.922-1.461C555.663,45.083,556.294,46.072,557.211,47.334z M556.979,95.427l-0.795-0.017l-0.759,2.203l0.71,0.014
		L556.979,95.427z M557.529,69.704l0.08-3.638l-0.796-0.017l-0.079,3.638L557.529,69.704z M558.153,73.71l0.013-0.621l-0.71-0.015
		l-0.012,0.621L558.153,73.71z M560.943,42.976l-1.407-0.561l1.39,1.36L560.943,42.976z M562.333,40.344l-1.304-1.536l-0.74,1.493
		l-0.012,0.71l0.722-0.695L562.333,40.344z M562.271,43.005l0.013-0.532l-0.808,0.515l-0.019,0.799L562.271,43.005z M564.56,97.807
		l-0.587-1.432l0.361-0.258l-0.343-0.54l-0.759,2.203L564.56,97.807z M564.518,99.759l-0.606-0.724l-0.012,0.709L564.518,99.759z
		 M567.656,85.894l0.03-1.508l-2.747-4.229c-0.043,1.894,0.379,4.268,1.267,7.127L567.656,85.894z M567.417,97.159l-2.129-0.046
		l0.691,0.725L567.417,97.159z M567.583,89.353l-2.111-0.843l-0.049,2.217l0.697,0.725l0.373-1.057L567.583,89.353z"/>
	<path fill="#FFFFFF" d="M609.716,85.293l-0.618-0.04v-0.089l-0.759,0.752l1.285,0.792l0.71,0.044l2.215-1.282l2.778-0.36
		l1.383,0.621c0.973-1.302,1.737-2.646,2.3-4.034l-2.386-5.839l-0.771,0.929c-0.856-1.534-1.235-2.952-1.156-4.251
		c0.024-0.412,0.159-1.618,0.404-3.619c0.771-0.898,2.007-2.213,3.72-3.943l1.854,1.539l1.646-2.119l-1.413-1.511
		c1.627-0.431,3.022-0.52,4.191-0.269l1.554-0.613l-1.102-0.869l-0.93-2.192c1.885-1.66,3.077-3.214,3.585-4.664
		c0.894-1.011,1.965-1.623,3.225-1.842l0.092-1.417c2.606-2.857,5.22-5.716,7.826-8.574c4.014-4.37,6.639-6.545,7.881-6.527
		l0.092-1.417c4.907-4.549,7.899-7.887,8.982-10.013l0.667,0.754l0.71,0.044l0.752-0.664l-0.679-0.575l0.844-2.082l1.328,0.084
		c0.654-0.965,1.713-2.32,3.188-4.066c1.671,0.817,3.653,1.357,5.947,1.619c1.591,0.161,3.715,0.235,6.382,0.225
		c3.14,0.02,5.214,0.063,6.217,0.125l0.753,0.759c0.918-0.416,2.552-0.551,4.913-0.402l-0.184,0.167l1.621,2.414
		c0.3,1.796,0.459,2.606,0.472,2.429c-0.141,2.244-1.426,4.237-3.843,5.981l-0.092,1.417c-1.64,0.609-3.347,1.419-5.134,2.432
		l-1.591,2.744l-0.049,0.797c-1.334,2.347-4.827,5.563-10.481,9.652l0.099,1.34l0.654-0.492l-0.679,0.846l0.024-0.354
		c-1.016,1.002-2.05,2.391-3.108,4.159l-1.463-0.803l-0.043,0.708c-0.722,1.141-1.683,2.236-2.875,3.286l-0.086,1.418
		c-1.885,0.711-4.424,3.336-7.611,7.876l-0.796-0.05c-0.379,0.332-1.089,1.265-2.129,2.799l-0.08,1.24l1.236,0.078
		c0.214,1.317,0.643,2.559,1.278,3.725l-0.838,0.569c1.021,1.724,1.878,3.645,2.576,5.762l0.703,0.046
		c0.435,1.568,1.456,3.766,3.054,6.593l1.958,1.368l0.71,0.044c0.287,2.923,1.541,5.135,3.757,6.637
		c2.258,4.587,4.43,7.746,6.516,9.478l-0.795,1.372c0.832,1.773,2.062,4.429,3.677,7.967l-0.801,1.372l0.63,1.283l0.74-0.486
		c1.585,2.116,3.329,5.098,5.22,8.954c2.472,4.956,4.057,8.019,4.754,9.187l-0.575,0.677c0.899,1.658,1.945,3.353,3.145,5.087
		l-1.541,0.438l-0.074,1.236c-0.067,1.064,0.129,2.114,0.6,3.151l-2.343,1.896l-1.903-0.832c-3.935,0.407-8.126,0.141-12.574-0.789
		l-1.462,0.618c-1.756-0.288-4.032-0.845-6.828-1.677l0.012-0.178l-1.462,0.621c-0.826-0.942-1.922-1.931-3.28-2.965l0.41-0.862
		c-0.465-1.034-1.267-1.945-2.404-2.729l-0.404-4.914l-1.939-1.634c-0.508-1.333-1.615-3.034-3.322-5.1l0.887-1.367
		c-0.96-0.771-2.099-2.441-3.42-5.015c-0.942-1.955-1.891-3.882-2.833-5.779c0.08-1.297-0.079-2.524-0.483-3.674l-0.795-0.051
		l-1.242-2.834l0.703,0.044c-0.826-2.897-3.169-6.066-7.042-9.511l0.575-0.675l-0.533-0.034c-0.189-0.782-0.349-1.947-0.489-3.498
		l-0.71-0.044l0.753-0.664c-0.661-0.752-1.126-1.819-1.395-3.199l0.244-1.052l-2.698-0.97c-1.444,1.331-2.704,2.913-3.763,4.742
		l-0.667-0.754l-0.086,1.417l-0.71-0.044l-0.752-0.759l-2.258,1.992l0.428-1.218l-0.294-0.907l-2.551,2.328l-0.331-0.376
		l-1.591,2.656l-1.235-1.501l-0.043,0.708l-1.42-0.089l-0.135,2.125l1.371,0.887c-1.272,2.23-2.301,4.448-3.09,6.649l0.532,0.034
		l0.532,2.79l-1.334,1.427l0.489,0.742l-0.092,1.417l-0.525-0.034l-1.059,2.689l1.241,2.833l-1.321,20.987
		c-0.067,0.055-0.967,0.71-2.704,1.964c-0.557,0.38-1.781,0.508-3.672,0.392c-5.017-0.318-7.831-0.731-8.455-1.245l-0.575,0.676
		l-0.625-1.376l-0.795-0.049l-0.661-0.753l-1.462,0.618l-1.15-1.493l-2.307,1.279c-0.912-1.542-1.989-2.797-3.23-3.764
		c0.201-1.291,0.514-2.423,0.93-3.408l0.483,0.744l0.845-0.658l-1.236-1.591l0.397-0.686l-0.318-0.554
		c1.438-1.211,2.271-3.53,2.484-6.954l-1.04-0.422l-0.997,0.294l-1.291-2.126l0.801-1.374l0.013-1.599
		c-0.019-1.66,0.508-2.96,1.579-3.9l-1.145-1.583l0.03-0.531l0.71,0.044c0.067-2.01,0.435-5.01,1.102-8.999l-1.059-3l0.128-2.036
		c1.09-1.294,2.062-2.181,2.925-2.662l-1.505-0.095l-0.361-2.778l1.469-2.129l2.074,0.93l2.123-1.199l-1.242-1.5l0.894-1.455
		c1.432-0.147,2.57-0.312,3.408-0.497l0.049-0.708l-2.05-1.374l1.512-1.415l-1.279-2.215c0.037-0.589,0.27-1.063,0.71-1.423
		c0.435-0.356,0.948-0.517,1.542-0.48l1.462,0.803l0.086-1.416c1.34-1.516,2.344-2.844,3.011-3.99l-0.753-0.757L602,73.695
		l-1.902-0.833l-0.753,0.664l0.092-1.417l1.364-1.958c0.747,0.344,1.946,0.656,3.586,0.936l0.043-0.708l-2.074-2.264l-0.092,1.417
		l-1.42-0.088l-1.15-1.495l0.098-1.505l2.564,1.672l2.307-1.366l-0.68-0.575l1.872,1.361l-0.091,1.505l2.123,1.557l0.709,0.044
		l-2.343,1.896l-0.172,2.657c1.004,1.011,1.903,2.284,2.698,3.813l0.875-2.611l-0.734,0.309l0.025-0.354
		c0.593-0.91,1.621-2.743,3.102-5.495c0.38,1.447,0.991,2.641,1.817,3.581l-0.079,1.241l-2.13,1.376l-0.086,1.417l0.704,0.044
		l0.581,2.082l-1.597,2.744l0.71,0.044c-0.667,0.255-1.438,0.71-2.307,1.366L609.716,85.293z M587.419,138.648l-0.881,1.278
		l-0.092-1.34l0.221-0.697L587.419,138.648z M622.345,28.75l-0.661-0.753l-0.532-0.034l-0.422,1.041l0.33,0.376l-2.998,1.056
		l0.612,1.549l-1.236-0.078l-1.769,4.067l1.414,1.511l-2.356,2.074l-0.611-1.55l-1.413-0.09l-0.716,1.467
		c0.22,1.14,0.593,2.319,1.107,3.537l2.264-2.081l0.575,0.748l-1.463,2.129l-0.079,1.241l1.358-0.448l-0.08,1.329l-1.511,2.749
		l-1.205-0.609l-0.209,0.52c-0.085,1.358,0.783,2.094,2.619,2.209l-2.337,1.81l0.832,0.852l-1.414-0.089l-0.092,1.417
		c-1.064,0.941-2.275,1.782-3.628,2.527l-0.667-0.664l-2.117,1.199l-0.667-0.753l-0.752,0.664c-0.099,1.536,0.728,2.565,2.472,3.088
		l0.894-1.455l1.413,0.089l-0.135,2.215c-1.683,0.309-3.145,1.372-4.381,3.191l-1.37-0.799l-0.05,0.708l-3.493,0.491l0.043-0.708
		l-2.173-0.848c-1.7,0.724-2.974,2.51-3.8,5.36l-0.709-0.044L593.104,71l1.413,0.09c-0.562,1.446-1.364,2.847-2.398,4.205l0.545,2.7
		l-0.796,1.285l-1.419-1.424l0.135-2.125l0.776,0.404l0.729-0.309l-1.053-0.245l-0.984,0.116l-0.612-1.549l0.74-0.486l-0.618-1.462
		c0.202-0.401,0.324-0.898,0.361-1.489c0.019-0.353-0.11-1.546-0.397-3.581l0.44-1.305l-0.68-0.577l1.604-2.833l-0.489-3.497
		l0.722-0.222l0.165-2.568l0.483,0.742l-0.354-2.778l1.413-1.333l-1.242-1.412l0.215-3.454c0.263-0.397,0.984-1.063,2.172-1.996
		c0.122-1.889-0.489-3.083-1.817-3.583l-0.171-2.943l0.93-0.653l-0.496-0.564c-0.03-1.424,0.184-2.922,0.637-4.494
		c-0.446-1.391-0.967-2.52-1.566-3.387c0.055-0.826,0.789-2.174,2.215-4.04l-1.07-2.822c2.998-0.523,5.641-1.985,7.924-4.39
		l0.66,0.752l0.049-0.708l1.506,0.095l1.192,0.786l-0.611,1.206l1.102,2.293l2.312-1.366l-0.63-1.285
		c0.685-0.607,1.615-1.26,2.79-1.958l0.66,0.754l0.894-1.457l0.655,0.843l0.759-0.752l-2.087-2.088l-0.746,0.486l0.128-2.036
		l1.456,0.892l2.124,0.133l0.544,2.702l0.086-1.417l0.624,0.038l0.783-1.195c1.407,0.266,2.601,0.58,3.586,0.938l-0.172,2.744
		l-2.258,0.569c2.325,0.681,3.861,2.171,4.607,4.468l-2.203,1.106l0.569,2.259l0.661,0.753l2.166-1.909
		c0.508,1.337,0.686,2.267,0.538,2.79l-0.71-0.044L622.345,28.75z M593.33,89.949l-0.71-0.044l-0.753,0.664L593.33,89.949z
		 M592.706,65.998l-0.673-0.577l-0.037,0.533L592.706,65.998z M594.615,90.742l0.043-0.708l-1.328-0.084l-0.043,0.708
		L594.615,90.742z M594.199,131.25l-0.71-0.042l-0.049,0.795L594.199,131.25z M596.677,49.536l-1.419-1.424l-0.71-0.044l1.334,1.418
		L596.677,49.536z M597.35,69.935l-0.795,1.284l-1.236-0.078l-0.716-1.378l0.043-0.709l2.087-0.58L597.35,69.935z M596.732,57.184
		l-1.206-2.12l-0.703-0.046l1.376,2.132L596.732,57.184z M599.266,94.501l-2.662-1.5l-1.413-0.089l-0.172,2.745l0.704,0.044
		l-0.086,1.417C596.866,96.426,598.072,95.554,599.266,94.501z M598.329,76.93l-2.044-1.374l0.845-2.169l1.34,1.329L598.329,76.93z
		 M597.1,85.209l-0.71-0.044l0.043-0.708l0.709,0.044L597.1,85.209z M597.943,54.86l-0.33-0.378l-0.753,0.664l0.661,0.754
		L597.943,54.86z M598.108,93.096l0.049-0.708l-0.752-0.759l-0.049,0.708L598.108,93.096z M598.09,35.579l0.043-0.708l-0.532-0.034
		L598.09,35.579z M600.006,62.99l0.092-1.417l-1.426-1.335l-0.789,1.196l0.568,2.258L600.006,62.99z M598.647,84.596l0.079-1.239
		l-0.802-0.05C598.017,83.727,598.262,84.156,598.647,84.596z M600.562,120.543l0.086-1.42l-0.753,0.667l-0.043,0.707
		L600.562,120.543z M603.842,134.793l0.043-0.71l-0.71-0.042l-0.043,0.709L603.842,134.793z M606.259,85.076l-1.469-0.627
		l-0.036,0.532L606.259,85.076z M606.24,140.456l0.037-0.621l-0.655,0.581L606.24,140.456z M609.605,65.817l-0.826,1.904
		c-0.941-1.066-1.608-2.235-2-3.504l0.844-0.747L609.605,65.817z M611.368,26.636l0.128-2.036l-2.123-1.557l-0.759,0.664
		l-0.435-1.539c-0.098,1.594,0.208,3.273,0.931,5.037L611.368,26.636z M609.611,54.528l0.123-2.038l-1.414-0.089l-0.085,1.328
		L609.611,54.528z M612.23,67.939l-1.603,2.833l-1.236-1.5l2.178-2.085L612.23,67.939z M611.153,131.611l0.043-0.71l-0.887-0.055
		l-0.043,0.707L611.153,131.611z M611.631,33.676l-0.618-1.461l-0.703-0.046C610.621,32.842,611.062,33.344,611.631,33.676z
		 M613.619,23.311l0.05-0.797l-0.618-0.038l-0.049,0.797L613.619,23.311z M627.387,15.021l-1.236-0.078l-0.379,0.332l0.281,1.173
		l-2.074-2.353l0.802-1.372l1.456,0.803l-0.386,0.509l0.343,0.199l0.575-0.675L627.387,15.021z M626.989,21.397l-0.753,0.664
		l-0.532-0.034l0.618-1.383L626.989,21.397z M638.786,57.077l-0.49-0.742l0.575-0.675c-0.856-1.476-1.694-2.685-2.526-3.625
		l0.752-0.664l-3.053,1.941l-0.704,2.711l-0.752,0.664l1.107,2.114l0.838-0.569l0.043-0.708l0.71,0.044l2.839,1.513L638.786,57.077z
		 M638.927,80.199l0.532,0.034l0.752,0.759l-0.795-0.051l-0.581-0.659c-0.691,0.61-1.236,1.227-1.628,1.854l-2.711-0.704
		l-0.036,0.531l-0.673-0.577l-0.71-0.044l-0.08,1.241c0.674,1.583,1.481,2.848,2.43,3.796l0.098-1.505l0.973,0.061
		c0.496,0.566,1.34,1.3,2.527,2.204l2.741,0.173l-0.116-0.896l0.195-0.343l1.42,0.089l0.312-4.958l-1.187-3.72l-0.808,1.461
		l-0.704-0.044C640.205,79.154,639.557,79.587,638.927,80.199z M640.688,60.664l-0.661-0.752l-1.419-0.089l-1.688,2.827
		l-0.043,0.708C638.395,62.802,639.667,61.904,640.688,60.664z M648.08,42.194l-2.747-0.173l-0.086,1.417
		c-0.759,0.664-1.713,1.759-2.876,3.286l-0.765-0.582c-1.162,1.527-2.123,2.622-2.876,3.286l0.447,1.45l2.123,0.135
		c1.211-1.346,2.509-3.605,3.892-6.778l0.709,0.044l1.414,1.513C647.603,45.04,647.854,43.84,648.08,42.194z M640.126,90.854
		l-0.489-0.742l-0.043,0.708L640.126,90.854z M657.246,9.614l-0.82,1.637c-3.096,2.117-5.054,3.149-5.88,3.098l-0.753,0.662
		l-0.532-0.032l-0.753,0.663l-1.462-0.803l-1.42-0.089l-0.66-0.752l-0.043,0.708l-0.489-0.742l-2.301,1.277l0.043-0.708l2.301-1.188
		l0.525,0.034l2.307-2.7l1.506,0.095c0.079-1.241,0.294-2.115,0.654-2.626c0.355-0.511,1.096-0.731,2.222-0.659l0.752,0.759
		l0.753-0.664l0.661,0.753l0.709,0.044l0.906-0.298l-0.331-0.376l1.463,0.803L657.246,9.614z M661.088,50.126l-2.074-2.353
		l-2.031-0.129l-0.759,0.753l-2.839-1.513l-0.667-0.752l-1.945-0.122l-0.839,1.991l-0.746-0.847c-1.083,0.288-2.252,0.48-3.5,0.58
		l-0.049,0.708l-0.661-0.753l-1.554,2.036c0.416,0.975,0.795,2.391,1.156,4.251l2.166,0.848l0.049-0.708l0.575-0.674l0.71,0.044
		c0.851,0.587,2.19,1.354,4.032,2.299l2.344-1.898l0.703,0.046l1.377,0.797l0.086-1.417l0.575,0.747l1.419,0.09L661.088,50.126z
		 M672.457,123.651l0.049-0.71l-1.945-1.545l-0.802,1.373l-0.71-0.046l-0.618-1.462l1.04,0.422l0.38-0.333l-0.674-0.664l0.423-1.04
		l-0.239-1.793l0.802-1.461l-2.185-0.67l-2.074,1.914l0.355,2.866l0.71,0.046l-0.753,0.575l-1.817-2.16l-1.548,0.612l-1.817-2.247
		l-0.178,2.834l-2.215-0.141l-0.618-1.462l0.753-0.661l-1.021-3.533l0.575-0.675l0.098-1.505l1.982,2.348l-0.753,0.664l1.475,0.625
		l0.606-1.207l0.887,0.057l0.141-2.213l-0.936,0.74l0.049-0.797l-1.163-2.74l-0.703-0.044l-0.753,0.664l-0.049,0.708l-1.053-3
		l-1.603,1.411l0.709,1.467l-1.505-0.095l-1.199-3.543c-0.63,0.554-1.585,1.175-2.876,1.863l-0.654-0.841
		c-1.004,1.774-2.228,2.853-3.671,3.235c1.37,1.687,2.594,4.373,3.671,8.057l0.887-2.792l-0.336-0.376l0.428-1.129l0.71,0.044
		l-0.397,0.687l0.832,2.274l-0.478,0.502l0.349,1.536c1.408,0.266,2.601,0.578,3.586,0.937l-0.654,0.492l0.611,0.217l-0.93,2.074
		l-1.371-0.798l-1.511,1.416l0.703,0.043c0.6,1.759,2.099,3.897,4.485,6.419c-0.037,0.59,0.153,1.119,0.569,1.591
		c0.416,0.471,0.917,0.725,1.505,0.762l1.462-0.621l-0.789-1.561l1.463-0.618l2.074,2.353c0.226-0.813,0.716-1.997,1.468-3.552
		l-1.113-2.114l-1.902,0.591l-0.845-0.765l2.839-1.242l0.661,0.753l0.171-2.748l-0.703-0.042l-0.753,0.663l-1.995-0.835l1.242,0.076
		l0.086-1.416l-1.285,0.63l0.049-0.71l-0.844-0.762l1.499-1.238c1.523,1.224,2.839,2.459,3.946,3.714l-0.753,0.664l3.629,0.229
		L672.457,123.651z M648.233,97.587c-0.086-0.539-0.294-0.996-0.625-1.372l-0.085,1.328L648.233,97.587z M652.877,101.524
		c-1.432-0.86-2.729-2.363-3.897-4.513l-0.129,2.038c0.875,1.181,1.744,1.977,2.606,2.386L652.877,101.524z M655.588,113.519
		l-2.031-1.64l-1.328-0.083l0.043-0.708l2.82-1.068L655.588,113.519z M655.783,121.62l0.031-0.441l-1.42-0.092L655.783,121.62z
		 M655.931,85.449l0.049-0.708l-0.71-0.044l-0.049,0.708L655.931,85.449z M655.985,118.432l-0.71-0.043l0.049-0.709l0.71,0.046
		L655.985,118.432z M658.329,113.691l-2.081,0.58l0.092-1.417L658.329,113.691z M659.13,123.522l-1.456,0.618l-0.489-0.74
		l0.624-1.386l1.413,0.089L659.13,123.522z M660.514,125.652l-2.136-1.469l2.258-0.569L660.514,125.652z M660.146,118.695
		l-0.661-0.753l-0.092,1.416L660.146,118.695z M662.637,25.599c-1.42,0.919-2.454,1.773-3.097,2.561l1.322,1.596
		C661.688,27.97,662.275,26.586,662.637,25.599z M662.581,115.382l-0.887-0.055l-0.031,0.531L662.581,115.382z M664.582,116.041
		l0.122-1.947l-1.591,1.322l0.674,0.575L664.582,116.041z M666.124,23.863l0.043-0.708l-0.661-0.752l-0.752,0.664L666.124,23.863z
		 M666.699,113.508l0.092-1.505l-0.496-0.564l-0.789,1.195l-0.049,0.797L666.699,113.508z M667.494,23.239l-0.532-0.034
		l-0.042,0.708L667.494,23.239z M680.111,24.746l-0.661-0.754l0.043-0.708l-1.462,0.62L680.111,24.746z M682.069,26.113
		l-1.291-0.615l-0.74,0.486l-0.049,0.708L682.069,26.113z"/>
	<path fill="#FFFFFF" d="M796.525,40.683c-0.624,0.825-1.377,1.455-2.258,1.894c-0.257,2.293-1.077,3.809-2.466,4.547
		c-0.361,3.234-2.062,5.427-5.103,6.578c-2.564,5.431-4.534,8.726-5.911,9.882l-0.703-0.078l-0.166,1.499
		c-1.48,2.099-2.961,4.196-4.441,6.293c-2.087,2.746-3.886,4.48-5.397,5.207l0.099,0.725c-2.962,4.196-5.507,7.872-7.643,11.029
		c-0.783,0.092-1.518,0.278-2.203,0.56c-0.055,0.471,0.367,0.993,1.255,1.566l-1.939,1.392l-1.01,0.246l-0.264,2.382
		c-0.416,3.821-2.618,6.761-6.596,8.823c-0.354,2.161-1.113,4.696-2.264,7.604l-0.294,2.646c0.361,1.051,0.514,1.813,0.465,2.283
		c-0.141,1.234-0.587,2.986-1.34,5.252c-0.759,2.268-1.199,4.018-1.34,5.25l-0.037,0.354l0.796,0.086l-0.875,0.618
		c-0.043,0.413,0.092,1.591,0.416,3.53c-0.257,0.686-0.6,1.39-1.04,2.117l-0.135,1.233c-0.324,2.939-0.251,4.702,0.221,5.289
		c0.03-0.294,0.067-0.587,0.098-0.881l0.703,0.079l-0.801,0.802c-0.007,0.594,0.134,1.744,0.422,3.438
		c0.257,1.457,0.343,2.598,0.251,3.421l-0.759,6.877c-0.722,1.11-2.025,2.423-3.916,3.94c-0.478-0.526-1.396-1.104-2.753-1.731
		c-0.796,0.153-1.989,0.496-3.599,1.034l-0.624-0.783c-0.428,0.07-0.862,0.26-1.315,0.569c-0.422-1.001-1.107-1.552-2.05-1.655
		c-0.36,0.554-0.881,0.976-1.566,1.257c-0.373-0.4-0.789-0.685-1.242-0.854l0.691-0.639l-0.752-0.44l-1.273,0.22l-6.026-3.61
		l-0.159,1.408l-0.624-0.783l2.503-2.491l0.379-3.438c0.141-1.291,0.092-3.23-0.159-5.818c-0.251-2.585-0.306-4.528-0.165-5.819
		c0.067-0.587,0.159-1.144,0.275-1.667c-0.349-1.166-0.478-2.163-0.386-2.989l1.536-13.932c1.169-0.881,2.001-1.683,2.496-2.401
		c-0.343-0.633-0.746-1.6-1.193-2.899c0.631-0.883,1.028-2.059,1.193-3.529c0.306-2.822-0.397-4.774-2.123-5.857
		c0.159-1.468-0.562-4.346-2.172-8.63c-1.224-2.931-2.417-5.889-3.573-8.874c-0.582-0.658-1.218-1.652-1.903-2.977l0.312-2.822
		c-0.312-0.985-1.09-1.995-2.344-3.026c0.098-0.346,0.324-0.797,0.686-1.352l-2.436-3.035l0.165-1.499
		c-1.321-2.05-2.288-3.793-2.9-5.23l0.453-4.146c-1.353-0.148-2.687-2.854-4.014-8.118c-1.053-1.247-2.099-4.398-3.151-9.454
		c0.098-0.346,0.33-0.824,0.697-1.441l0.135-1.234l-1.383,0.384c-0.746-2.939-1.872-5.385-3.384-7.336
		c0.073-0.705,0-1.785-0.227-3.237c-0.226-1.455-0.263-2.619-0.104-3.494l-0.245-1.008c1.053-0.361,3.604-0.316,7.661,0.13
		l0.159-1.41c0.532,0.535,3.022,1.703,7.465,3.501l-0.704-0.078l-0.086,0.794l0.429,0.941c0.435-0.19,0.918-0.197,1.432-0.021
		l-0.453-0.763c0.172-0.458,0.423-1.115,0.753-1.97c0.502,0.293,1.401,0.511,2.698,0.654c1.23,0.136,2.919,0.204,5.061,0.202
		c0.477,0.529,1.364,0.864,2.661,1.006c0.08,1.378,0.3,3.425,0.661,6.143l0.232-0.511c0.74,0.856,1.475,2.515,2.215,4.976
		c0.894,2.717,1.591,4.49,2.093,5.319l-0.3,2.733l0.63,0.783c0.288,1.163,0.839,2.891,1.658,5.183l0.667,0.43l0.74-0.275
		l2.424,3.124c-0.606,0.112-1.102,0.295-1.487,0.551c0.006,0.477,0.196,0.944,0.557,1.399l-0.116,1.059
		c-0.079,0.765,0.349,1.17,1.297,1.215l-0.459,4.144c0.888,0.575,1.701,1.586,2.436,3.037c-0.251,0.627-0.538,1.1-0.875,1.421
		c0.575,0.719,1.156,1.912,1.75,3.584c0.686,0.254,1.389,0.6,2.117,1.037c0.753-0.333,1.426-0.526,2.025-0.58
		c1.169-1.953,2.337-3.907,3.506-5.862c0.465-0.483,0.753-1.167,0.851-2.048l0.704,0.078c1.297-0.451,2.515-0.973,3.652-1.56
		l-1.939-0.214l0.079-0.707c0.423-0.072,0.863-0.291,1.322-0.656l-0.453-0.765l0.997-0.961c0.355-1.032,0.612-2.282,0.771-3.754
		c0.776-1.638,2.276-3.616,4.497-5.93c2.417-3.601,6.021-9.034,10.812-16.302c0.6-0.052,1.279-0.245,2.025-0.58l4.767,1.329
		c0.006-0.594-0.159-1.297-0.483-2.106l2.202,0.243l0.631,0.783c-0.545,0.06-1.297,0.155-2.264,0.286l2.734,0.301
		c0.41,0.582,0.882,0.901,1.407,0.959c0.826,0.09,2.001-0.047,3.531-0.415l0.617,0.872c0.367-0.078,0.79-0.15,1.273-0.217
		c0.293,0.032,0.759,0.144,1.389,0.332c0.636,0.189,1.132,0.303,1.48,0.343c0.03-0.294,0-0.536-0.098-0.725
		c-0.27-0.268-0.63-0.516-1.077-0.744c0.588,0.064,0.948,0.314,1.077,0.744c0.275,0.208,0.545,0.477,0.808,0.803l5.55,0.612
		C795.828,35.937,796.091,37.601,796.525,40.683z M708.643,28.223l0.08-0.707c-1.401,0.263-2.356,0.843-2.87,1.738
		c0.453,1.241,0.997,2.252,1.628,3.035l0.379-3.439L708.643,28.223z M712.418,32.833c-0.581-0.658-1.205-1.204-1.872-1.634
		c-0.667,0.104-1.163,0.289-1.487,0.549l-0.159,1.412c0.41,0.58,1.15,0.93,2.209,1.046l0.349,0.038L712.418,32.833z M714.155,47.842
		l0.074-0.706l-0.526-0.058l-0.08,0.706L714.155,47.842z M717.271,60.058l-1.499-0.167c0.098,0.725,0.274,1.251,0.538,1.577
		C716.561,60.843,716.879,60.372,717.271,60.058z M737.505,60.326c-0.588-0.123-1.579-0.531-2.992-1.222
		c-1.579-0.77-2.387-1.303-2.411-1.604l-0.703-0.078c0.067-0.647-0.116-1.143-0.551-1.49l-1.469,1.981l-0.257-0.921l0.489-1.196
		l-1.499-0.165l-0.153,1.412l-0.709-0.078l0.159-1.412c0.789-0.15,1.927-0.47,3.407-0.962l-0.354-0.038
		c0.159-1.412-0.686-2.694-2.521-3.849l-1.31,0.569c-0.63-0.248-1.102-0.537-1.426-0.872l0.146-1.322
		c0.661-0.046,1.188-0.227,1.579-0.54l1.095,1.371l0.142-1.234c0.066-0.647-0.013-2.054-0.251-4.224
		c-0.551,0.118-1.273,0.456-2.166,1.011c-0.067-0.483-0.251-0.921-0.569-1.312l-0.765,0.451c-0.888-0.574-1.279-1.302-1.188-2.184
		l-0.478,1.107l-1.064,0.775c-0.184-0.496-0.611-0.959-1.278-1.391c-0.349,0.498-0.808,0.863-1.371,1.099l-0.789-0.087l0.214,1.273
		l-0.459,0.931l-0.703-0.078c-0.055-0.6-0.232-1.126-0.545-1.577l-0.783,0.628c0.062,0.542,0.215,1.304,0.465,2.282l2.203,0.244
		c0.08-0.706,0.306-1.157,0.686-1.353l1.413,0.155l0.165-1.499l0.704,0.078l0.63,0.783l-1.578,1.345l-0.704-0.078
		c-0.067,0.052-0.135,0.105-0.195,0.156c-0.337,0.321-0.753,0.87-1.255,1.647c0.264,0.327,0.594,1.107,0.991,2.34l-2.264,1.894
		c0.422,1.059,0.587,1.998,0.495,2.821c-0.061,0.529-0.617,0.975-1.664,1.334l1.812,2.163c1.291-0.392,2.509-0.912,3.652-1.561
		l-0.134,1.234c-0.49,0.661-0.985,1.083-1.481,1.265c0.68,0.849,0.68,1.95-0.006,3.303l0.257,0.921l-0.795,0.716l2.209,0.243
		l1.076,1.546l0.783-0.627l0.08-0.706l0.789,0.087c0-0.535,0.238-0.806,0.716-0.814c0.245-0.032,0.679,0.046,1.315,0.234
		c0.086-0.764-0.055-1.672-0.416-2.723l-2.025-0.225c-0.416-0.582-0.569-1.342-0.465-2.282c0.942,0.104,1.701-0.049,2.282-0.462
		l1.083,1.546c0.318-0.202,0.605-0.647,0.856-1.333c0.729,0.438,1.561,1.242,2.503,2.418c0.6-0.589,1.646-1.187,3.145-1.796
		l3.476,0.026L737.505,60.326z M721.62,25.458l-2.655-1.007l0.08-0.705l2.655,1.007L721.62,25.458z M722.159,85.322l0.079-0.707
		l-0.795-0.087l-0.08,0.705L722.159,85.322z M723.102,152.815c-0.447,0.31-0.979,0.518-1.585,0.628l0.086-0.793L723.102,152.815z
		 M723.885,49.451l-1.499,0.638c-0.208-0.26-0.367-0.724-0.472-1.391C722.287,49.096,722.942,49.347,723.885,49.451z
		 M725.94,100.377l0.073-0.616l-0.532-0.06L725.94,100.377z M726.705,120.188l0.055-0.529l-0.765,0.45L726.705,120.188z
		 M728.492,148.499l0.152-1.407l-0.783,0.624L728.492,148.499z M731.398,63.847l-0.624-0.783l-0.783,0.628l0.624,0.783
		L731.398,63.847l-0.215,1.941c1.102-0.772,1.695-1.599,1.793-2.481C732.591,63.564,732.065,63.743,731.398,63.847z M734.629,66.167
		l0.135-1.234l-0.532-0.06l-0.135,1.236L734.629,66.167z M742.497,149.331c0.08-0.703-0.098-1.526-0.525-2.466
		c0.201,0.856,0.116,1.885-0.258,3.096L742.497,149.331z M746.321,146.271l0.074-0.703l-0.704-0.08L746.321,146.271z
		 M749.803,89.621l-1.413-0.156c-0.245,0.629-0.562,1.069-0.948,1.323l0.795,0.089L749.803,89.621z M752.593,89.393l0.153-1.41
		l-1.003,0.246l-1.199-0.49C750.96,88.262,751.645,88.813,752.593,89.393z M755.524,62.85l0.055-0.529l-1.499-0.165l-0.055,0.528
		L755.524,62.85z M763.778,83.486c-0.227-0.679-0.643-1.201-1.255-1.566c0.318,0.333,0.502,0.829,0.551,1.489L763.778,83.486z
		 M772.253,31.758l-0.631-0.783l0.704,0.078L772.253,31.758z M773.887,54.967l0.134-1.234c-0.685,0.281-1.199,0.641-1.548,1.078
		L773.887,54.967z M780.501,40.344c-0.392,0.313-0.918,0.494-1.579,0.54l0.153-1.411c-0.931,0.909-2.258,2.398-3.972,4.471
		c0.361,0.458,0.551,0.924,0.558,1.4l0.813-0.089l0.686,0.254l0.146-1.322l-0.704-0.078l0.074-0.707
		c0.525-0.417,1.432-0.555,2.729-0.413C779.675,42.127,780.042,41.246,780.501,40.344z M784.417,42.83
		c-0.104-0.666-0.441-1.625-1.022-2.88c-0.52,0.42-1.254,0.577-2.19,0.473l-0.165,1.499l0.789-0.716
		c0.416,0.581,0.575,1.283,0.483,2.106c-0.208,1.882-2.209,3.058-6.015,3.532c0.667,0.43,1.763,1.028,3.286,1.79
		C782.061,46.646,783.676,44.711,784.417,42.83z M780.066,50.739l0.055-0.529l-1.419-0.87l-0.08,0.705L780.066,50.739z
		 M782.043,32.837l-0.766,0.451l-0.734-0.616l0.074-0.705L782.043,32.837z M782.722,51.746l0.135-1.234l-0.673,0.462L782.722,51.746
		z M784.875,38.684c-0.244-0.502-0.544-0.982-0.911-1.439l-0.973-0.107c0.189,0.974,0.557,1.699,1.101,2.175L784.875,38.684z
		 M791.215,38.67l-0.637-0.696c-0.991,0.369-1.536,0.991-1.634,1.874l-0.159,1.41l0.63,0.783l-0.085,0.794
		C790.438,41.411,791.067,40.022,791.215,38.67z M793.239,34.074l-1.499-0.166l0.08-0.707L793.239,34.074z"/>
	<path fill="#FFFFFF" d="M794.206,121.745l-0.434-0.615l0.587-0.257c-0.753-1.572-0.985-3.2-0.697-4.892l-0.404-0.788l1.016-2.798
		c-0.428-1.693-0.055-4.959,1.132-9.797l-0.611-0.644c0.6-2.115,0.911-3.233,0.93-3.35c0.092-0.524,0.208-1.734,0.349-3.631
		l-0.085-0.015l0.104-0.072c0.056-1.371,0.214-2.484,0.478-3.338l-0.697-0.119l0.581-3.411c0.238-1.4,0.869-3.691,1.891-6.877
		l2.013,0.342c-0.648-0.769-1.364-2.033-2.142-3.786c1.291-0.197,2.552-0.734,3.781-1.604l0.208-1.224l-2.221,0.881l-0.294,0.67
		c-0.52-1.889-0.514-4.349,0-7.381l0.386-2.273l1.658-1.248l-0.343-2.22c1.01-1.687,2.803-3.96,5.391-6.819l0.373-2.188
		c3.635-2.319,7.765-5.604,12.391-9.855c1.48-0.228,3.047-1.13,4.693-2.71l0.581,0.82l1.432-0.476l0.349,0.06
		c1.456,0.248,3.341-0.421,5.653-2.007l0.667,0.295c1.646-0.139,2.864-0.413,3.653-0.818c0.116,0.02,1.505,0.138,4.167,0.352
		c1.548,0.084,2.9,0.434,4.057,1.051l0.905-0.566c1.34,0.229,2.668,0.697,3.989,1.401l2.864-0.951
		c1.492,0.736,2.912,1.216,4.252,1.445l0.643-0.61c2.301,1.652,4.589,2.284,6.877,1.894l-0.208,1.224l1.487-0.286l1.603,1.173
		l0.649,2l-4.234,4.228l2.833,3.993l0.819-0.58l0.698,0.119l-0.239-1.751l2.222-1.421l-1.059-2.25l2.368-1.756l1.162,1.638
		l-0.116,0.699l-0.924,1.193l1.278,0.939l1.487,0.252l0.373,2.043l-0.869,0.843l-2.631-1.979l-1.162,2.593l-0.729,0.595l1.071,1.623
		c-1.285-0.219-2.846-0.725-4.693-1.521l0.82-0.58l-0.582-0.82l-1.432,0.476c0.551,1.354,1.536,2.452,2.949,3.293l1.163,1.638
		l1.432-0.476l1.162,1.638c1.328-0.074,2.546-0.346,3.646-0.818l0.208,3.006l1.738-1.233l-0.135,0.786l1.077,2.163l0.93-0.201
		l0.294,0.41l1.694-0.971l0.606,0.644l2.221-0.881l-1.229-1.741l1.162-2.591l1.487,0.254c0.055,0.369,0.581,2.561,1.578,6.57
		l0.789,0.133c0.325,1.257,1.022,2.786,2.093,4.589l-2.918,0.222l0.33,2.305l0.697,0.12l0.942-1.28l1.071,1.625l0.819-0.582
		c-0.238,1.4-0.171,3.812,0.202,7.235l-0.905,1.106l1.162,1.637l-0.924,1.193c0.214,1.537,0.135,3.414-0.245,5.629l1.236,1.741
		l-1.934,2.37l0.991,3.141l-0.783-0.135l-1.046,1.892c0.208,1.957,0.471,3.41,0.789,4.364l-0.905,0.566
		c-0.312,2.167-0.423,5.449-0.331,9.844l-0.991,2.622l0.526,0.089l-0.489,1.808c0.202,1.295,0.257,2.561,0.165,3.81l0.073,0.101
		l-0.092-0.016c-0.019,0.478-0.073,0.949-0.146,1.414l-0.991-1.609l1.138,0.195l0.019-0.085l-0.495-0.808l-2.148,0.446
		c-0.036,3.053-0.244,5.66-0.611,7.813l-0.697-0.116l0.373,2.041l-1.866,2.475l0.789-0.407l-0.459,2.711l0.459,1.521l-0.208,1.224
		l-0.697-0.122c-1.407,3.304-2.784,6.639-4.143,10.007c-1.254,2.426-3.524,5.369-6.811,8.826l0.404,0.789l-0.526-0.089l-2.429,1.566
		l-0.135,0.787c-3.213,1.254-7.637,3.799-13.271,7.636l-0.667-0.832c-1.297,0.918-4.938,1.526-10.935,1.823l-0.208,1.224
		l-13.118-2.236l-2.35,1.129l-1.762-1.829l-1.518,0.459l-0.783-0.135c-2.338-0.398-3.365-1.053-3.09-1.965
		c-0.667-0.293-1.806-0.489-3.408-0.581l-0.575-1.358l-0.704-0.119l-0.819,0.578c-2.215-0.376-3.886-1.651-5.018-3.824l0.875,0.147
		c1.787-1.315,3.292-2.228,4.516-2.738l0.581,0.819l0.942-1.281l2.246,3.176c1.327-0.374,3.315-0.967,5.972-1.771
		c-0.257-0.945-0.777-1.784-1.549-2.515l-1.4-0.239l0.562,0.905l-0.937,1.282l-1.486-0.257l0.465-2.711l-0.789-0.673l-1.224,0.869
		l-3.414-0.581l0.33-1.922l1.102,0.906l0.942-1.279l0.116-0.697c-0.894-0.753-1.609-1.806-2.16-3.16l-2.307,0.327l-0.208,1.224
		l1.934,1.86l-1.028,1.267l-0.116,0.697l-1.928-0.327l-1.707,1.055l-1.267-1.021l0.208-1.227l1.401,0.238l-0.581-0.816l2.423-1.028
		l-1.235-0.66l-3.048-0.071l0.581,0.82l-1.67,1.875l1.089,1.536l-0.238,1.398l1.977,1.059l-0.116,0.7l-0.924,1.193l-3.415-0.585
		c-0.471-1.459-1.921-2.634-4.344-3.53l0.936-1.281l0.526,0.092l0.924-0.655l-2.845,0.324c-0.813-1.578-1.988-2.949-3.53-4.111
		l2.741-0.251l-1.922-0.33c-0.611-1.361-2.117-3.781-4.527-7.251l0.214-1.224l-1.401-0.238l1.071-2.068
		c-0.386-1.264-1.255-3.005-2.619-5.217l1.432-0.474l-0.789-0.135l-0.27-1.579l0.496-0.813c0-4.2,0.067-6.706,0.208-7.525
		l0.581,0.819l0.238-1.401l-0.581-0.816l0.697,0.119l0.227-1.312l1.383-0.214l-0.073,0.438L794.206,121.745z M796.171,127.659
		l-1.022-2.962l-0.703-0.122C794.781,125.413,795.356,126.441,796.171,127.659z M795.987,107.107l-1.536,1.089l0.526,0.089
		L795.987,107.107z M796.085,123.415l-0.478-1.432l0.147-0.872l-0.845,0.753L796.085,123.415z M795.559,104.875l0.373-2.186
		l-0.526-0.09l-0.373,2.188L795.559,104.875z M796.391,99.978l0.361-2.101l-0.526-0.088l-0.361,2.099L796.391,99.978z
		 M796.072,94.973l1.261-0.505l-0.435-0.615l-0.808,1.033L796.072,94.973z M798.208,102.537l-0.703-0.12l-0.209,1.224
		L798.208,102.537z M801.157,93.68l-0.594-0.733l-0.257,1.487L801.157,93.68z M802.57,85.371l-1.309-0.763l-0.221,1.312
		L802.57,85.371z M802.986,137.283l0.092-0.526c-0.36,0-0.887,0.092-1.578,0.272L802.986,137.283z M819.403,78.521
		c-0.232-1.118-0.422-2.801-0.581-5.048l-2.185,0.167l-1.224-0.75l0.899-2.097l-1.022-0.354l-1.395-1.319l1.774-1.947l-1.401-0.238
		l-2.429,1.026l-1.683-1.727l-0.906,0.564c0.337,1.198,0.404,2.38,0.202,3.546l-0.435-0.075c-1.75-0.298-4.1,0.291-7.055,1.767
		l-0.208,1.225l1.15,1.726c0.808-0.522,2.099-1.231,3.873-2.129l2.882,0.493l0.899,2.132l-2.178,1.158l-0.79-0.133l-1.278,3.29
		l0.819-0.58c1.922,0.329,3.402,1.48,4.449,3.458l0.697,0.119l1.848-2.385l0.287,1.49c0.888-0.988,1.781-1.827,2.681-2.513
		l0.581,0.818L819.403,78.521z M803.972,93.53l-1.401-0.239l-0.104,0.612l-0.673,0.785l0.525,0.09L803.972,93.53z M804.73,131.281
		l-1.395-0.239l-1.017,1.179l1.371,0.951L804.73,131.281z M803.941,82.095l0.208-1.224l-0.783-0.134l-0.208,1.224L803.941,82.095z
		 M805.459,139.144l0.238-1.398c-0.991,0.551-1.744,0.903-2.245,1.056L805.459,139.144z M812.024,92.744l-5.164-2.952l-3.108,0.82
		l-0.239,1.399l1.279,0.938l-0.123,0.7l1.487,0.254l1.181-2.68l0.521,0.09l-0.239,1.398l0.82-0.58l0.637,1.548l1.192,0.924
		L812.024,92.744z M806.86,135.154c-0.307-1.01-1.09-1.866-2.35-2.563l0.862,2.31L806.86,135.154z M809.375,61.871l-0.912-3.125
		l-0.52-0.09l-1.86,1.934l0.459,1.519l-1.163,2.591l1.371,0.953C807.692,64.675,808.567,63.414,809.375,61.871z M807.918,83.583
		l-0.562-0.907l0.697,0.119l-0.581-0.818l-0.783-0.134l0.667,0.833l-0.924,0.653l0.667,0.833L807.918,83.583z M809.454,140.545
		c-0.569,0.146-1.321,0.526-2.264,1.144l0.605,0.646C808.218,141.985,808.769,141.389,809.454,140.545z M810.507,88.975l0.667-1.778
		l0.036-2.333l-0.789-0.135c-1.07,0.658-1.866,1.452-2.387,2.383l1.225,0.208l0.226-1.311L810.507,88.975z M810.513,138.568
		l-0.942,1.279l0.581,0.819L810.513,138.568z M817.794,87.967l0.208-1.224l-1.162-1.638l-0.82,0.58l-0.697-0.119l-0.447-1.606
		l0.82-0.58l2.796,0.477l0.582-3.411c-1.585,0.871-3.745,2.422-6.462,4.658l3.646,3.413L817.794,87.967z M815.438,89.096
		l-0.991-0.529l-1.72,0.067l0.955,2.322l1.021-0.725L815.438,89.096z M813.891,77.582l-0.208,1.224l-0.698-0.119L813.891,77.582z
		 M814.496,94.605l-0.575-0.818l-0.82,0.58l0.582,0.818L814.496,94.605z M814.294,87.37l0.086-0.524l-0.783-0.135
		C813.633,86.838,813.866,87.058,814.294,87.37z M817.653,150.494l0.703,0.122l0.135-5.018l-2.625-0.446l-1.132,1.875l-0.141-0.205
		l-0.557,0.086l0.459,1.518l2.344-1.579l0.459,1.518l-1.225-0.208l-0.061,1.429l-0.281,0.585l1.224,0.208l0.251-1.487l0.703,0.116
		L817.653,150.494z M816.49,107.726l-0.562-0.907l-1.077,2.068L816.49,107.726z M816.857,76.557l-1.621,0.534l0.924-0.653
		L816.857,76.557z M861.727,121.111l-1.279-0.936c0.575-3.382,1.138-5.626,1.688-6.734c-0.244-1.361-0.409-2.86-0.489-4.494
		l0.905-1.106l-0.238-2.83l0.954-1.368l-0.458-1.519l0.936-1.28l-0.611-0.644l0.495-2.885l-0.581-0.82l0.924-1.191l2.007,0.883
		l0.208-1.226l-2.674-1.176l1.518-0.462l-1.671-2.354l1.671-1.875l-2.692-4.779l0.937-1.28l-0.82,0.58
		c-0.924-1.958-1.383-3.685-1.364-5.182c-1.529-1.58-2.172-3.101-1.921-4.559l-2.949-3.293l-2.399,0.852l-0.489-1.345
		c-1.407-0.899-3.518-2.249-6.326-4.049c-0.361-0.001-1.12,0.021-2.265,0.064c-0.911,0.084-1.664,0.076-2.245-0.023l-0.435-0.075
		l-0.569-0.906l-0.25,1.487c-1.414,0.179-3.348,0.793-5.807,1.845c-2.46,1.051-4.308,1.681-5.544,1.889
		c-0.245,1.458-0.6,2.808-1.053,4.05l-3.279,0.79l0.318,0.235c-0.931,1.941-2.228,4.78-3.886,8.517l0.031,3.515l-0.82,1.12
		c0.195,1.294,0.086,3.195-0.343,5.703l-0.851,1.294l-0.373,2.188l1.278,1.478l-0.501,0.815l0.128,1.371
		c-0.471,0.641-0.954,1.727-1.456,3.263l1.279,0.938c-0.71,0.3-1.726,0.787-3.041,1.462l0.941,2.409l-1.291,1.761
		c-0.036,1.614,0.08,2.864,0.35,3.75c-0.716,4.201-1.022,7.058-0.925,8.575l0.906-0.027l-0.937,5.51
		c1.156,1.998,3.06,4.901,5.709,8.713c0.373,1.325,1.126,2.387,2.252,3.176l0.697,0.119c1.939,1.291,4.943,3.032,9.013,5.229
		c1.021-0.728,2.05-1.303,3.084-1.726l1.144,1.726c3.146-1.562,6.009-3.236,8.598-5.014l0.667,0.835
		c1.224,0.208,2.551-0.704,3.977-2.741c0.979-1.515,1.958-3.028,2.938-4.54l0.116-0.7l1.517-0.462l-0.733-2.017l1.688-3.582
		l0.703-0.42l1.401,0.239l-1.285-0.939l0.258-1.487l0.562,0.906l1.652-1.245l0.703-4.112L861.727,121.111z M820.039,152.88
		l-1.921-0.865l-0.092,0.522L820.039,152.88z M819.917,153.584l-0.654,0.697l0.52,0.086L819.917,153.584z M819.428,156.469
		l0.697,0.119l-0.287-0.41L819.428,156.469z M826.868,163.496l-1.028-2.423c-1.315,0.673-2.374,1.426-3.169,2.248l-0.704-0.119
		l-0.238,1.398l1.927,0.327l0.116-0.697l2.399-0.851l0.465,0.438L826.868,163.496z M824.071,155.102l-0.568-0.906l-1.53,0.545
		L824.071,155.102z M828.184,155.802l0.135-0.786l-1.401-0.239l-0.135,0.787L828.184,155.802z M827.822,157.9l-0.581-0.82
		l-0.238,1.398l0.703,0.122L827.822,157.9z M830.888,164.723l-1.175-1.551l-0.924,1.193L830.888,164.723z M830.771,161.192
		l-0.446-1.606l-1.401-0.238l0.33,2.307L830.771,161.192z M842.984,163.998c-0.776-0.734-1.523-1.612-2.251-2.638l1.224,0.211
		c-0.661-0.352-1.769-0.719-3.323-1.107l0.478,1.432l-0.697-0.119l-1.701-1.64l-2.276,0.153l0.447,1.603l-2.166,1.071l0.122-0.698
		l-1.487-0.254l-0.238,1.398l1.261,1.566l0.618-0.435l0.605,0.643l-0.116,0.701c0.746,0.547,1.523,1.429,2.337,2.649l0.582-3.412
		l-0.612,0.435l-1.267-1.566l-0.055-0.728l0.997-0.551l1.31,0.227l-0.239,1.395l2.662,1.806l1.486-0.285l0.318,1.312l0.581-3.408
		L842.984,163.998z M833.733,160.167l0.092-0.522l-1.364-0.952L833.733,160.167z M838.549,156.76l-1.518-0.618l-2.595-0.083
		l1.848,1.845L838.549,156.76z M859.364,160.309l0.116-0.698l-1.486-0.254l-0.116,0.701L859.364,160.309z M861.989,160.758
		l0.116-0.7l-1.401-0.239l-0.116,0.701L861.989,160.758z M862.668,115.602l-0.697-0.12l0.581,0.82L862.668,115.602z M863.011,113.59
		l-0.697-0.119l-0.208,1.225l0.697,0.12L863.011,113.59z M863.042,71.745l-0.667-0.833l-0.239,1.399L863.042,71.745z
		 M864.785,103.184l0.239-1.4l-0.698-0.119l-0.238,1.4L864.785,103.184z M865.636,110.349l-0.643,0.609l0.404,0.789L865.636,110.349
		z M869.484,137.375l0.704-4.111c-0.221,0.924-0.631,2.264-1.23,4.022L869.484,137.375z M871.026,107.758
		c0.092-1.244,0.073-2.177-0.061-2.801l-0.979,0.463L871.026,107.758z M872.63,127.922l-0.79-0.135l-1.07,2.068l0.697,0.116
		L872.63,127.922z M882.896,58.752l-0.581,3.411l-1.224-0.21l0.221-1.312l-1.83,1.759c-0.716-1.082-2.239-1.823-4.57-2.221
		c1.432-0.654,2.472-1.288,3.114-1.898l-0.465-0.439l2.294-1.859l0.447,1.606l1.37,0.953L882.896,58.752z M876.955,102.559
		l0.612-3.586l-0.789-0.134l-0.612,3.587L876.955,102.559z M876.98,106.614l0.104-0.612l-0.697-0.12l-0.104,0.612L876.98,106.614z
		 M879.776,131.392l-0.373-1.506l0.392-0.202l-0.257-0.584l-1.071,2.068L879.776,131.392z M879.923,80.386l0.257-1.487l-1.688-1.729
		C878.724,77.931,879.201,79.001,879.923,80.386z M879.446,133.315l-0.49-0.805l-0.122,0.697L879.446,133.315z M882.695,131.171
		l-2.1-0.361l0.582,0.82L882.695,131.171z M884.004,123.474l-1.964-1.145l-0.373,2.185l0.581,0.82l0.532-0.991L884.004,123.474z
		 M884.586,120.06l0.257-1.487l-2.099-4.585c-0.318,1.868-0.251,4.28,0.208,7.235L884.586,120.06z M884.255,76.625l-1.31-0.764
		l1.175,1.55L884.255,76.625z M886.018,74.224l-1.059-1.71l-0.955,1.368l-0.116,0.699l0.82-0.58L886.018,74.224z M885.57,76.848
		l0.086-0.524l-0.875,0.39l-0.135,0.788L885.57,76.848z"/>
</g>
<g>
	<path fill="#0D0D0D" d="M64.032,159.99h63.506c4.387,0,7.923,2.297,7.896,5.115c-0.024,2.82-1.291,5.115-2.857,5.115
		c-1.462,0-2.717,3.552-2.778,7.936l0.055,31.116c0.042,4.385,1.713,7.937,3.803,7.937c2.089,0,3.852,2.294,3.827,5.115
		c-0.024,2.82-3.592,5.115-7.875,5.115h-9.086c-4.387,0-7.832-3.549-7.875-7.937l0.021-41.347c0.062-4.384-1.921-7.936-4.115-7.936
		c-2.297,0-4.075,3.552-4.136,7.936l0.055,31.116c0.043,4.385,1.086,7.937,2.548,7.937c1.358,0,2.493,2.294,2.469,5.115
		c-0.024,2.82-3.591,5.115-7.872,5.115H90.024c-4.283,0-7.716-2.295-7.792-5.115c0.025-2.821,1.083-5.115,2.438-5.115
		c1.462,0,2.613-3.552,2.57-7.937l0.049-31.116c0.062-4.384-1.924-7.936-4.118-7.936c-2.298,0-4.072,3.552-4.133,7.936
		l-0.021,41.347c0.043,4.388-3.509,7.937-7.896,7.937h-9.089c-4.28,0-7.82-2.295-7.896-5.115c0.024-2.821,1.814-5.115,3.9-5.115
		c2.09,0,3.867-3.552,3.821-7.937l-0.052-31.116c0.061-4.384-1.297-7.936-2.76-7.936c-1.566,0-2.91-2.295-2.885-5.115
		C56.185,162.287,59.749,159.99,64.032,159.99z"/>
	<path fill="#0D0D0D" d="M206.68,227.439h-45.331c-4.384,0-7.923-2.295-7.896-5.115c0.024-2.821,1.71-5.115,3.901-5.115
		c2.089,0,3.533-3.656,3.821-7.937l0.077-1.358c0.288-4.279-1.294-7.936-2.86-7.936s-2.809-2.298-2.784-5.115
		s1.291-5.118,2.753-5.118c1.566,0,2.925-3.549,2.882-7.936l-0.015-3.653c-0.043-4.384-1.82-7.936-3.907-7.936
		c-2.09,0-3.852-2.295-3.824-5.115c-0.083-2.818,3.484-5.115,7.869-5.115h45.541c4.283,0,7.863,3.133,7.899,6.89
		c-0.067,3.76,1.003,6.893,2.258,6.893s2.181,2.298,2.261,5.118c-0.027,2.817-3.588,5.115-7.976,5.115h-5.85
		c-4.387,0-7.951-3.029-7.899-6.89c-0.037-3.763-3.619-6.896-7.902-6.896h-3.445c-4.283,0-7.939,3.552-7.896,7.936l0.015,3.653
		c0.043,4.387,3.595,7.936,7.982,7.936h12.638c4.283,0,7.923,2.301,7.899,5.118s-3.588,5.115-7.872,5.115h-12.745
		c-4.277,0-7.936,3.552-7.893,7.936l0.03,1.358c0.147,4.385,3.595,7.937,7.875,7.937h3.448c4.283,0,7.905-3.133,7.869-6.893
		c0.052-3.861,3.488-6.89,7.875-6.89h4.803c4.283,0,7.823,2.294,7.795,5.115c0.083,2.82-0.664,5.115-1.603,5.115
		c-0.939,0-1.747,3.133-1.814,6.893C214.695,224.307,211.067,227.439,206.68,227.439z"/>
	<path fill="#0D0D0D" d="M286.571,227.439h-45.33c-4.384,0-7.924-2.295-7.896-5.115c0.024-2.821,1.71-5.115,3.901-5.115
		c2.089,0,3.533-3.656,3.821-7.937l0.077-1.358c0.288-4.279-1.294-7.936-2.86-7.936s-2.809-2.298-2.784-5.115
		s1.291-5.118,2.753-5.118c1.566,0,2.925-3.549,2.882-7.936l-0.015-3.653c-0.043-4.384-1.82-7.936-3.907-7.936
		c-2.09,0-3.852-2.295-3.824-5.115c-0.083-2.818,3.484-5.115,7.869-5.115h45.542c4.283,0,7.862,3.133,7.899,6.89
		c-0.067,3.76,1.003,6.893,2.258,6.893s2.181,2.298,2.261,5.118c-0.027,2.817-3.588,5.115-7.976,5.115h-5.85
		c-4.387,0-7.951-3.029-7.899-6.89c-0.037-3.763-3.619-6.896-7.902-6.896h-3.445c-4.283,0-7.939,3.552-7.896,7.936l0.015,3.653
		c0.043,4.387,3.595,7.936,7.982,7.936h12.638c4.283,0,7.923,2.301,7.899,5.118s-3.588,5.115-7.872,5.115h-12.745
		c-4.277,0-7.936,3.552-7.893,7.936l0.03,1.358c0.147,4.385,3.595,7.937,7.875,7.937h3.448c4.283,0,7.905-3.133,7.869-6.893
		c0.052-3.861,3.488-6.89,7.875-6.89h4.803c4.283,0,7.823,2.294,7.795,5.115c0.083,2.82-0.664,5.115-1.603,5.115
		c-0.939,0-1.747,3.133-1.814,6.893C294.587,224.307,290.958,227.439,286.571,227.439z"/>
	<path fill="#0D0D0D" d="M365.845,182.439c-4.179,0-7.688-2.717-7.752-6.058c0.037-3.341-2.028-6.161-4.537-6.161
		c-2.506,0-4.491,3.552-4.552,7.936l-0.016,4.075c0.043,4.381,1.297,7.936,2.864,7.936s2.805,2.295,2.784,5.115
		c-0.028,2.821-1.292,5.115-2.857,5.115c-1.462,0-3.032,3.549-2.781,7.937l0.061,0.938c0.251,4.385,1.713,7.937,3.907,7.937
		c2.089,0,3.852,2.294,3.824,5.115c-0.021,2.82-3.588,5.115-7.872,5.115h-16.814c-4.387,0-7.924-2.295-7.902-5.115
		c0.027-2.821,1.713-5.115,3.803-5.115c2.193,0,3.76-3.552,3.925-7.937l0.042-0.938c0.166-4.388-1.294-7.937-2.86-7.937
		s-2.913-2.294-2.888-5.115c0.024-2.82,1.291-5.115,2.86-5.115c1.566,0,3.025-3.555,2.882-7.936l-0.092-4.075
		c-0.043-4.384-2.028-7.936-4.43-7.936c-2.505,0-4.515,2.82-4.552,6.161c0.067,3.341-3.426,6.058-7.807,6.058
		c-4.283,0-7.731-3.549-7.774-7.936l-0.012-6.578c0.064-4.387,3.616-7.936,7.899-7.936h50.552c4.283,0,7.936,3.549,7.875,7.936
		l0.009,6.578C373.677,178.891,370.128,182.439,365.845,182.439z"/>
	<path fill="#0D0D0D" d="M393.03,170.221c-2.193,0-3.852-2.295-3.928-5.115c0.021-2.818,3.588-5.115,7.976-5.115h9.086
		c4.387,0,8.04,3.549,7.979,7.936l-0.021,41.347c0.042,4.385,3.491,7.937,7.877,7.937h5.431c4.387,0,7.936-3.552,7.893-7.937
		l0.021-41.347c0.061-4.387,3.512-7.936,7.899-7.936h9.085c4.283,0,7.924,2.297,7.899,5.115c-0.024,2.82-1.707,5.115-3.904,5.115
		c-2.086,0-3.757,3.552-3.817,7.936l0.055,31.116c0.043,4.385,1.297,7.937,2.753,7.937c1.573,0,2.809,2.294,2.784,5.115
		c0.08,2.82-3.487,5.115-7.873,5.115h-51.076c-4.28,0-7.82-2.295-7.899-5.115c0.028-2.821,1.294-5.115,2.861-5.115
		s2.821-3.552,2.778-7.937l0.049-31.116C396.998,173.772,395.12,170.221,393.03,170.221z"/>
	<path fill="#0D0D0D" d="M485.696,217.209c2.093,0,3.854-3.029,3.818-6.789c-0.037-3.757-1.304-6.785-2.766-6.785
		c-1.566,0-2.803-2.298-2.889-5.115c0.031-2.821,1.291-5.118,2.864-5.118c1.566,0,2.82-3.549,2.777-7.937l-0.037-7.309
		c-0.042-4.384-1.713-7.936-3.799-7.936c-2.093,0-3.855-2.295-3.831-5.115c0.024-2.818,3.592-5.115,7.875-5.115h45.542
		c4.387,0,7.936,3.549,7.979,7.936l-0.013,27.772c0.019,4.28-3.616,7.937-7.899,7.937h-20.681c-4.387,0-7.924,3.028-7.894,6.785
		c-0.067,3.76,1.726,6.789,3.812,6.789c2.196,0,3.854,2.294,3.928,5.115c-0.024,2.82-3.585,5.115-7.973,5.115h-16.82
		c-4.276,0-7.819-2.295-7.898-5.115C481.823,219.503,483.609,217.209,485.696,217.209z M514.607,193.401h3.45
		c4.388,0,7.832-3.549,7.894-7.937l0.073-7.309c0.062-4.384-3.598-7.936-7.984-7.936h-3.445c-4.387,0-7.936,3.552-7.894,7.936
		l0.031,7.309C506.775,189.853,510.22,193.401,514.607,193.401z"/>
	<path fill="#0D0D0D" d="M635.004,207.498h7c4.283,0,7.924,2.298,7.881,5.012c0.08,2.82-1.291,5.115-2.857,5.115
		s-2.852,2.193-2.9,4.907c0.067,2.717-3.518,4.907-7.801,4.907h-31.229c-4.283,0-7.832-3.549-7.875-7.937l0.024-22.966
		c0.062-4.388,3.512-7.937,7.899-7.937h13.993c4.387,0,7.936-3.552,7.893-7.936l-0.018-2.509c-0.043-4.384-2.76-7.936-6.314-7.936
		c-3.445,0-6.217,3.236-6.217,5.011c-0.019,1.671-3.622,3.136-7.905,3.136h-6.896c-4.388,0-7.924-2.297-7.899-5.118
		c0.024-2.817,1.187-5.115,2.753-5.115c1.463,0,2.698-1.882,2.729-4.072c0.012-2.297,3.566-4.071,7.85-4.071l31.248,0.104
		c4.388,0,7.826,3.549,7.875,7.937l0.067,18.166c0.043,4.387,0.019,8.979-0.073,10.233c0.006,1.251-1.059,2.298-2.312,2.298
		c-1.255,0-5.85,0-10.237,0h-9.294c-4.387,0-7.728,3.549-7.899,7.936l-0.061,2.609c-0.062,4.385,2.863,7.937,6.308,7.937
		c3.451,0,6.4-2.193,6.346-4.907C627.142,209.689,630.617,207.498,635.004,207.498z"/>
	<path fill="#0D0D0D" d="M718.494,217.209c1.566,0,2.906,2.294,2.882,5.115c-0.024,2.82-3.586,5.115-7.869,5.115h-40.53
		c-4.381,0-7.924-2.295-7.898-5.115c0.03-2.821,1.297-5.115,2.759-5.115c1.566,0,2.711-3.552,2.797-7.835l0.049-31.113
		c-0.043-4.388-1.298-7.937-2.76-7.937c-1.566,0-2.809-2.294-2.778-5.115c-0.085-2.82,3.482-5.115,7.869-5.115h40.42
		c4.283,0,7.819,2.295,7.899,5.115c-0.024,2.821-1.291,5.115-2.857,5.115c-1.463,0-2.821,3.549-2.778,7.937l0.056,31.113
		C715.673,213.657,716.928,217.209,718.494,217.209z M693.199,170.324c-2.925,0-5.329,3.549-5.286,7.937l-0.05,31.113
		c-0.079,4.283,2.43,7.835,5.354,7.835s5.219-3.552,5.299-7.835l-0.056-31.113C698.418,173.873,696.124,170.324,693.199,170.324z"/>
	<path fill="#0D0D0D" d="M767.994,217.209c2.19,0,3.952,2.294,3.928,5.115c-0.024,2.82-3.487,5.115-7.874,5.115h-17.444
		c-4.382,0-7.924-2.295-7.899-5.115c0.03-2.821,1.817-5.115,4.014-5.115c2.19,0,3.965-3.552,4.026-7.937l-0.056-31.116
		c-0.043-4.384-1.817-7.936-4.008-7.936c-2.196,0-4.044-2.19-4.014-5.012c-0.086-2.82,3.586-5.115,7.973-5.115h9.398
		c4.387,0,7.832,3.549,7.875,7.937l0.067,41.242C763.919,213.657,765.693,217.209,767.994,217.209z"/>
	<path fill="#0D0D0D" d="M791.024,160.094h42.617c4.283,0,7.924,2.295,7.881,5.012c0.079,2.82-1.291,5.115-2.754,5.115
		c-1.566,0-2.717,3.552-2.777,7.936l-0.013,13.577c0.043,4.381-2.435,10.438-5.562,13.468l-6.4,6.369
		c-3.011,3.025-4.118,5.639-2.447,5.639c1.774,0,3.12,2.294,3.096,5.115c-0.024,2.82-3.487,5.115-7.875,5.115h-21.201
		c-4.282,0-7.819-2.295-7.898-5.115c0.024-2.821,2.233-5.115,4.949-5.115c2.821,0,7.496-2.509,10.592-5.639l9.937-10.025
		c3.103-3.13,5.605-9.083,5.562-13.467l0.024-9.922c0.061-4.384-2.864-7.936-6.413-7.936s-6.474,3.552-6.431,7.936l0.043,3.237
		c0.129,4.279-3.628,7.831-7.911,7.831h-7c-4.387,0-7.819-2.297-7.899-5.115c0.024-2.82,1.188-5.118,2.754-5.118
		s2.784-1.982,2.777-4.384c-0.006-2.401-1.192-4.387-2.759-4.387s-2.699-2.295-2.784-5.115
		C783.181,162.389,786.638,160.094,791.024,160.094z"/>
</g>
</svg>
