<?xml version="1.0" encoding="utf-8"?>
<!-- Generator: Adobe Illustrator 15.0.0, SVG Export Plug-In . SVG Version: 6.00 Build 0)  -->
<!DOCTYPE svg PUBLIC "-//W3C//DTD SVG 1.1//EN" "http://www.w3.org/Graphics/SVG/1.1/DTD/svg11.dtd">
<svg version="1.1" id="レイヤー_1" xmlns="http://www.w3.org/2000/svg" xmlns:xlink="http://www.w3.org/1999/xlink" x="0px"
	 y="0px" width="785px" height="235px" viewBox="57.5 0 785 235" enable-background="new 57.5 0 785 235" xml:space="preserve">
<g>
	<path fill="#182987" d="M221.036,70.651l-0.332-0.228l0.245-0.237c-0.666-0.647-1.081-1.42-1.245-2.321l-0.35-0.321l-0.004-1.587
		c-0.526-0.77-0.936-2.475-1.232-5.116l-0.422-0.21c-0.087-1.171-0.137-1.789-0.148-1.851c-0.052-0.279-0.216-0.906-0.491-1.883
		l-0.049,0.009l0.04-0.056c-0.225-0.696-0.35-1.282-0.373-1.76l-0.372,0.069l-0.335-1.815c-0.137-0.745-0.242-2.008-0.313-3.793
		l1.071-0.196c-0.468-0.267-1.056-0.769-1.77-1.504c0.612-0.336,1.145-0.836,1.601-1.498l-0.121-0.652l-0.949,0.849l-0.025,0.39
		c-0.607-0.851-1.057-2.083-1.356-3.696l-0.223-1.211l0.599-0.929l-0.579-1.048c0.196-1.029,0.678-2.499,1.451-4.406l-0.216-1.164
		c1.396-1.828,2.861-4.232,4.399-7.21c0.699-0.385,1.315-1.125,1.853-2.219l0.443,0.304l0.627-0.501l0.188-0.034
		c0.774-0.143,1.597-0.824,2.464-2.042l0.388,0.023c0.799-0.37,1.358-0.731,1.678-1.079c0.062-0.011,0.779-0.208,2.154-0.589
		c0.79-0.242,1.532-0.314,2.222-0.217l0.351-0.45c0.713-0.13,1.466-0.143,2.256-0.031l1.26-1.002
		c0.882,0.094,1.681,0.075,2.396-0.056l0.209-0.425c1.455,0.405,2.72,0.301,3.793-0.314l0.119,0.652l0.694-0.417l1.016,0.294
		l0.693,0.883l-1.343,2.895l2.149,1.48l0.303-0.442l0.373-0.068l-0.442-0.833l0.854-1.12l-0.943-0.933l0.865-1.313l0.884,0.606
		l0.068,0.374l-0.244,0.766l0.813,0.234l0.792-0.145l0.56,0.955l-0.278,0.583l-1.681-0.51l-0.107,1.511l-0.257,0.433l0.835,0.616
		c-0.683,0.127-1.559,0.16-2.629,0.1l0.304-0.44l-0.441-0.304l-0.629,0.501c0.523,0.577,1.217,0.947,2.08,1.108l0.883,0.607
		l0.63-0.501l0.881,0.608c0.654-0.281,1.213-0.641,1.678-1.08l0.656,1.467l0.644-0.937l0.079,0.419l0.933,0.887l0.431-0.273
		l0.221,0.153l0.671-0.798l0.423,0.21l0.95-0.849l-0.936-0.646l0.106-1.511l0.791-0.147c0.096,0.175,0.762,1.176,1.999,3.001
		l0.417-0.077c0.395,0.57,1.026,1.208,1.894,1.913l-1.422,0.648l0.588,1.095l0.372-0.069l0.234-0.814l0.836,0.617l0.304-0.44
		c0.137,0.744,0.613,1.938,1.431,3.586l-0.253,0.72l0.883,0.608l-0.245,0.767c0.393,0.729,0.698,1.685,0.915,2.864l0.937,0.645
		l-0.534,1.542l1.074,1.391l-0.418,0.077l-0.176,1.139c0.463,0.942,0.861,1.624,1.195,2.042l-0.349,0.449
		c0.241,1.142,0.788,2.807,1.641,4.991l-0.014,1.495l0.279-0.052l0.087,0.995c0.337,0.612,0.596,1.238,0.78,1.877l0.055,0.039
		l-0.045,0.007c0.075,0.243,0.137,0.489,0.182,0.737l-0.789-0.625l0.606-0.112l-0.01-0.046l-0.393-0.312l-0.995,0.617
		c0.54,1.536,0.915,2.88,1.127,4.026l-0.372,0.069l0.56,0.956l-0.479,1.58l0.322-0.349l0.266,1.444l0.51,0.677l0.119,0.65
		l-0.372,0.069c-0.097,1.912-0.177,3.834-0.236,5.771c-0.182,1.445-0.781,3.336-1.793,5.672l0.348,0.321l-0.279,0.052l-0.929,1.229
		l0.077,0.418c-1.381,1.218-3.129,3.305-5.247,6.263l-0.487-0.296c-0.481,0.699-2.195,1.671-5.141,2.921l0.119,0.651l-6.982,1.287
		l-0.97,0.997l-1.216-0.594l-0.676,0.51l-0.419,0.077c-1.243,0.229-1.877,0.089-1.908-0.418c-0.388-0.024-0.993,0.087-1.814,0.334
		l-0.54-0.574l-0.372,0.068l-0.306,0.441c-1.178,0.217-2.25-0.114-3.215-0.996l0.466-0.084c0.653-0.987,1.239-1.721,1.761-2.203
		l0.44,0.303l0.236-0.812l1.709,1.176c0.593-0.43,1.482-1.092,2.666-1.984c-0.304-0.425-0.717-0.75-1.238-0.973l-0.744,0.137
		l0.448,0.35l-0.235,0.814l-0.791,0.146l-0.267-1.444l-0.516-0.193l-0.458,0.662l-1.814,0.335l-0.188-1.025l0.72,0.252l0.234-0.813
		l-0.068-0.373c-0.587-0.212-1.139-0.608-1.663-1.186l-1.096,0.587l0.122,0.652l1.309,0.577l-0.28,0.822l0.068,0.372l-1.025,0.188
		l-0.662,0.845l-0.821-0.283l-0.122-0.651l0.744-0.138l-0.44-0.303l1.027-0.96l-0.742-0.104l-1.539,0.526l0.441,0.302l-0.493,1.246
		l0.828,0.57l0.137,0.745l1.187,0.166l0.068,0.373l-0.245,0.767l-1.814,0.334c-0.505-0.645-1.447-0.968-2.827-0.97l0.236-0.814
		l0.28-0.052l0.342-0.496l-1.367,0.685c-0.696-0.643-1.536-1.113-2.521-1.413l1.327-0.629l-1.024,0.188
		c-0.555-0.572-1.754-1.505-3.597-2.802l-0.119-0.651l-0.747,0.136l0.159-1.232c-0.424-0.563-1.182-1.273-2.271-2.132l0.63-0.501
		l-0.419,0.078l-0.426-0.741l0.1-0.499c-0.772-2.104-1.197-3.373-1.279-3.809l0.442,0.305l-0.137-0.745l-0.441-0.303l0.372-0.069
		l-0.127-0.699l0.655-0.361l0.042,0.233L221.036,70.651z M217.641,37.875l-1.028-1.399l-0.278,0.051l-0.577,1.31l0.51,0.675
		l-0.106,1.512l0.86,0.227C217.314,39.588,217.522,38.795,217.641,37.875z M225.721,44.375c-0.32-0.519-0.726-1.326-1.216-2.423
		l-1.065,0.487l-0.751-0.152l0.065-1.215l-0.576,0.01l-0.94-0.405l0.53-1.3l-0.746,0.137l-1.025,0.96l-1.162-0.557l-0.35,0.45
		c0.389,0.539,0.639,1.118,0.754,1.738l-0.233,0.043c-0.93,0.172-1.999,0.898-3.208,2.179l0.12,0.652l0.891,0.653
		c0.31-0.41,0.826-1.001,1.55-1.777l1.535-0.283l0.841,0.904l-0.878,0.98l-0.419,0.076l-0.038,1.885l0.304-0.44
		c1.023-0.189,1.978,0.116,2.864,0.916l0.372-0.068l0.487-1.533l0.417,0.693c0.263-0.658,0.556-1.242,0.88-1.75l0.44,0.303
		L225.721,44.375z M217.057,56.897l0.534-0.484l-0.33-0.228l-0.213,0.666L217.057,56.897z M218.134,59.347l-0.208-1.118
		l-0.279,0.051l0.207,1.118L218.134,59.347z M218.549,50.896l-0.798-0.143l0.13,0.697L218.549,50.896z M218.632,49.003l-0.12-0.652
		l-0.417,0.077l0.119,0.652L218.632,49.003z M218.613,61.953l-0.214-1.163l-0.281,0.051l0.215,1.164L218.613,61.953z
		 M219.239,62.993l-0.57,0.827l0.279-0.052L219.239,62.993z M219.365,55.317l-0.433-0.257l0.146,0.791L219.365,55.317z
		 M219.511,60.296l-0.372,0.069l0.119,0.65L219.511,60.296z M220.748,54.726l-0.745,0.136l0.059,0.327l-0.193,0.517l0.279-0.052
		L220.748,54.726z M220.898,49.019l-0.45-0.351l0.372-0.069l-0.44-0.304l-0.42,0.077l0.489,0.295l-0.341,0.496l0.488,0.295
		L220.898,49.019z M224.637,52.854l-3.129-0.531l-1.407,0.981l0.137,0.746l0.812,0.235l0.068,0.372l0.792-0.146l0.098-1.558
		l0.279-0.051l0.137,0.746l0.304-0.442l0.603,0.66l0.766,0.243L224.637,52.854z M222.281,71.144l-0.501-0.631l-0.086-0.465
		l-0.287,0.535L222.281,71.144z M223.185,51.243l0.006-1.012l-0.409-1.176l-0.419,0.078c-0.416,0.527-0.669,1.071-0.758,1.632
		l0.652-0.12l-0.13-0.698L223.185,51.243z M223.103,73.254l-1.058-1.297l-0.372,0.069C221.995,72.383,222.472,72.793,223.103,73.254
		z M222.789,44.916l0.121,0.652l-0.372,0.068L222.789,44.916z M224.086,43.858l-0.715,0.564l0.343-0.496L224.086,43.858z
		 M226.648,49.401l-0.121-0.65l-0.881-0.608l-0.303,0.441l-0.374,0.068l-0.517-0.723l0.304-0.44l1.49-0.274l-0.334-1.815
		c-0.637,0.727-1.432,1.899-2.384,3.52l2.454,1.039L226.648,49.401z M225.677,50.399l-0.594-0.083l-0.85,0.349l0.904,0.989
		l0.381-0.552L225.677,50.399z M224.787,49.745l-0.053-0.279l-0.417,0.077C224.357,49.601,224.516,49.668,224.787,49.745z
		 M226.217,53.333l-0.44-0.304l-0.304,0.44l0.441,0.304L226.217,53.333z M228.057,73.496l-0.744,0.137l-0.291,0.776l0.861,0.226
		L228.057,73.496z M228.286,76.822l-0.053-0.279c-0.178,0.066-0.426,0.209-0.739,0.425L228.286,76.822z M254.741,57.941
		l-0.813-0.235c-0.331-1.8-0.462-3.026-0.39-3.682c-0.376-0.636-0.731-1.358-1.072-2.161l0.253-0.721l-0.64-1.373l0.228-0.86
		l-0.51-0.676l0.236-0.814l-0.425-0.21l-0.283-1.536l-0.44-0.304l0.243-0.767l1.168,0.074l-0.12-0.652l-1.557-0.098l0.675-0.51
		l-1.268-0.873l0.493-1.246l-2.228-1.9l0.235-0.814l-0.303,0.442c-0.822-0.812-1.37-1.594-1.636-2.347
		c-1.056-0.51-1.657-1.153-1.8-1.93l-2.081-1.107l-1.043,0.865l-0.494-0.583c-0.87-0.192-2.174-0.481-3.914-0.866
		c-0.181,0.065-0.555,0.214-1.121,0.446c-0.443,0.21-0.821,0.344-1.131,0.401l-0.231,0.042l-0.451-0.35l0.146,0.792
		c-0.672,0.348-1.53,1.012-2.568,1.989c-1.04,0.978-1.849,1.632-2.43,1.964c0.143,0.777,0.215,1.517,0.217,2.223l-1.5,0.998
		l0.203,0.058c-0.109,1.144-0.237,2.804-0.381,4.979l0.66,1.756l-0.206,0.711c0.336,0.611,0.628,1.585,0.875,2.919l-0.189,0.805
		l0.216,1.165l0.91,0.504l-0.099,0.5l0.314,0.664c-0.117,0.408-0.162,1.041-0.131,1.902l0.814,0.234
		c-0.303,0.281-0.721,0.71-1.255,1.29l0.914,1.035l-0.324,1.118c0.278,0.815,0.567,1.42,0.863,1.815
		c0.412,2.232,0.783,3.721,1.113,4.462l0.448-0.179l0.54,2.933c0.947,0.788,2.435,1.894,4.46,3.316
		c0.431,0.595,1.001,0.987,1.709,1.177l0.374-0.069c1.207,0.291,3.03,0.612,5.471,0.964c0.38-0.551,0.79-1.026,1.229-1.429
		l0.891,0.654c1.29-1.36,2.417-2.723,3.385-4.089l0.488,0.295c0.65-0.121,1.147-0.821,1.488-2.103
		c0.212-0.938,0.424-1.875,0.637-2.813l-0.069-0.373l0.675-0.51l-0.737-0.875l0.188-2.104l0.274-0.339l0.744-0.137l-0.812-0.235
		l-0.146-0.792l0.449,0.352l0.598-0.929l-0.403-2.188L254.741,57.941z M229.834,75.045c-0.339-0.45-0.889-0.734-1.648-0.851
		l0.856,0.997L229.834,75.045z M229.866,77.302l-0.138-0.744c-0.396,0.457-0.708,0.771-0.934,0.941L229.866,77.302z M229.624,59.539
		l-0.451-0.351l-0.157,1.233L229.624,59.539z M232.121,77.271c-0.256,0.176-0.564,0.506-0.923,0.989l0.422,0.211
		C231.767,78.218,231.933,77.818,232.121,77.271z M232.288,76.085l-0.235,0.813l0.441,0.304L232.288,76.085z M238.057,80.75
		l0.372-0.069l-0.853-2.539l-1.395,0.258l-0.223,1.147l-0.109-0.075l-0.262,0.143l0.508,0.677l0.884-1.221l0.509,0.677l-0.651,0.12
		l0.229,0.728l-0.034,0.343l0.653-0.12l-0.147-0.792l0.372-0.068L238.057,80.75z M239.689,81.508l-1.124-0.083l0.053,0.279
		L239.689,81.508z M239.758,81.88l-0.203,0.469l0.28-0.05L239.758,81.88z M240.04,83.415l0.372-0.067l-0.22-0.152L240.04,83.415z
		 M242.114,81.878l-0.448-0.35l-0.667,0.555L242.114,81.878z M245.057,85.57l-0.958-1.025c-0.535,0.579-0.926,1.15-1.176,1.708
		l-0.374,0.069l0.137,0.745l1.024-0.189l-0.068-0.372l1.043-0.866l0.313,0.134L245.057,85.57z M244.303,81.475l-0.077-0.419
		l-0.746,0.137l0.079,0.418L244.303,81.475z M244.509,82.593l-0.44-0.304l0.136,0.744l0.373-0.069L244.509,82.593z M246.591,83.701
		l-0.518-0.722l-0.747,0.136l0.587,1.096L246.591,83.701z M246.336,32.972l-0.488-0.296l0.138,0.745L246.336,32.972z
		 M247.297,85.448l-0.874-0.562l-0.243,0.767L247.297,85.448z M247.887,82.643l-0.052-0.279l-0.859-0.227L247.887,82.643z
		 M253.222,82.862c-0.523-0.223-1.061-0.526-1.609-0.906l0.65-0.119c-0.396-0.055-1.019-0.038-1.867,0.055l0.501,0.63l-0.373,0.069
		l-1.152-0.51l-1.113,0.493l0.519,0.723l-0.887,0.934l-0.069-0.372l-0.792,0.145l0.14,0.745l0.919,0.553l0.228-0.332l0.424,0.211
		l0.07,0.373c0.472,0.136,1.025,0.436,1.657,0.896l-0.335-1.815l-0.228,0.332l-0.918-0.553l-0.163-0.355l0.397-0.459l0.699-0.129
		l0.137,0.746l1.665,0.415l0.694-0.417l0.399,0.601L252.477,83L253.222,82.862z M249.671,80.053L248.8,80.02l-1.315,0.436
		l1.263,0.584L249.671,80.053z M253.898,22.817l0.335,1.815l-0.652,0.121l-0.128-0.698l-0.594,1.216
		c-0.557-0.411-1.458-0.502-2.698-0.273c0.598-0.591,1.001-1.098,1.211-1.522l-0.313-0.134l0.809-1.352l0.52,0.723l0.86,0.226
		L253.898,22.817z M252.983,48.398l-0.139-0.745l-0.372,0.069l0.138,0.745L252.983,48.398z M254.003,53.938l-0.372,0.07l0.121,0.65
		l0.372-0.069L254.003,53.938z M254.2,55.008l-0.372,0.069l0.44,0.304L254.2,55.008z M254.721,51.832l-0.21,0.424l0.349,0.322
		L254.721,51.832z M256.381,34.201l-0.146-0.792l-1.162-0.555C255.328,33.191,255.764,33.64,256.381,34.201z M256.948,49.545
		c-0.183-0.64-0.364-1.104-0.546-1.391l-0.404,0.411L256.948,49.545z M257.861,31.521l-0.795-0.142l0.873,0.56L257.861,31.521z
		 M258.301,29.996l-0.843-0.663l-0.226,0.86l0.068,0.373l0.304-0.441L258.301,29.996z M258.558,31.392l-0.051-0.279l-0.366,0.356
		l0.077,0.419L258.558,31.392z M258.961,45.853l-0.351-1.909l-0.419,0.078l0.353,1.907L258.961,45.853z M259.72,47.878l-0.061-0.325
		l-0.373,0.069l0.062,0.326L259.72,47.878z M260.751,78.01l-0.07-0.373l-0.791,0.146l0.068,0.373L260.751,78.01z M261.45,59.351
		l-0.419,0.078l-0.158,1.231l0.374-0.067L261.45,59.351z M261.612,64.665l-0.405-2.188c0.061,0.503,0.103,1.249,0.124,2.238
		L261.612,64.665z M262.147,77.752l-0.069-0.371l-0.746,0.137l0.069,0.372L262.147,77.752z M265.999,53.218l-0.145-0.79
		l-1.894-1.915c0.184,0.994,0.659,2.189,1.432,3.587L265.999,53.218z M265.667,59.778l-0.463-0.686l0.162-0.173l-0.239-0.245
		l-0.158,1.233L265.667,59.778z M266.334,55.035l-1.194-0.213l0.215,1.164l0.441,0.304l0.083-0.594L266.334,55.035z M265.857,60.801
		l-0.396-0.312l0.069,0.373L265.857,60.801z M267.089,59.13l-1.118,0.207l0.44,0.303L267.089,59.13z"/>
	<path fill="#182987" d="M318.901,17.855c-0.079,0.422-0.1,1.077-0.06,1.96c-0.723,0.624-1.698,0.99-2.923,1.099l-2.168,0.201
		l-0.843-0.284l-0.948,0.87l-0.885-0.659l-1.042,0.881l-0.419-0.333l-0.661,0.458l-1.639-0.575l-0.333,0.419l-0.327-0.343
		l0.087,0.753l-0.375,0.042l-0.464-0.709l-1.131,0.512l-0.333,0.419l-1.921-0.542c-0.801,0.22-1.323,0.503-1.569,0.848l0.198,0.074
		l-1.409,0.162l-0.887-0.661l-0.666,0.838l-0.461-0.709c-0.665,0.585-1.233,1.032-1.707,1.341l-0.46-0.71l-0.423,0.049l-0.333,0.419
		l-0.369-0.72l-1.111,0.698l0.023,0.189l-0.752,0.087l0.217-0.168l-0.964-0.508l-0.289,0.795l-0.235,0.026
		c-0.377,0.044-0.861-0.011-1.449-0.167c-0.688-0.174-1.158-0.264-1.412-0.265l-0.593,0.638c-0.071,0.486-0.247,1.314-0.523,2.492
		c0.31,0.218,0.65,0.831,1.02,1.835l-0.393,0.712l0.637,1.404l-0.417,0.524l0.199,0.883l-0.052,0.387l0.233,2.021l0.513,0.324
		l0.255,2.209l-0.428,0.43c0.12,1.035,0.457,1.757,1.013,2.171l0.043,0.375l1.128-0.129l1.365-0.967l0.892,0.707l2.209-0.255
		l0.284-0.842l0.75,0.723l0.284-0.842l0.472,0.375l0.043,0.377l0.708-0.464l1.079,0.257l0.757-0.468l0.752-0.086l0.843,0.285
		l0.941-0.919l0.893,0.708c0.538-0.284,1.369-0.65,2.494-1.098l0.33,0.392l0.377-0.043l0.75-0.516l-0.374,0.472l0.82,0.096
		l0.731-0.276l0.369,0.72l-0.238,0.41l0.613-0.452l-0.042-0.376l1.553-0.178l0.538,1.367l-0.705,0.511l-1.676-0.904l-1.334,0.821
		c0.175,0.424,0.342,0.913,0.501,1.466l-1.132,0.083l-0.981,0.588l0.038,0.33l-1.465,0.932l-0.419-0.333l-0.706,0.081l0.13,1.128
		l-0.209-0.166l-0.542,0.253l0.29-0.796l-0.421-0.333l-1.79,0.587l0.376-0.042l-0.632,1.12l-1.083,0.126l-0.242,1.218l0.66-0.076
		l0.933,1.083l1.553-0.179l0.357,0.627l-1.877-0.166l-1.414,0.544l-0.451-0.615l-0.258,1.078l-1.22-0.241l-1.747,0.962l-0.463-0.709
		l-0.522,1.252l0.325,0.344c0.441-0.304,1.289-0.53,2.542-0.673c0.03-0.004,0.562,0.061,1.595,0.197l0.242-1.219l0.657-0.077
		c0.031-0.003,0.563,0.063,1.596,0.198l0.092,0.8c0.371,0.18,0.894,0.469,1.576,0.866l-0.657,0.077l0.091,0.798l-1.175,0.136
		l-0.426-0.38l-0.138,0.444l-0.612,0.07l-0.707-0.347l-1.036,0.929c-0.489-0.103-1.13-0.299-1.927-0.588l0.05,0.422l-0.847-0.332
		l-0.328,0.466l-0.425-0.379l-0.611,0.5l-0.8,0.091l-0.801-0.337l-2.066,0.667c-0.047,0.419-0.134,1.048-0.259,1.888l-0.33,0.038
		c0.395,0.4,1.121,1.317,2.175,2.75l-0.865,0.768L292,57.779l-0.996,0.876c0.504,0.513,1.215,1.305,2.131,2.375
		c0.099,0.845-0.146,1.763-0.731,2.752l0.789,1.053l0.42,3.667l-1.457,0.167c0.37,0.466,0.941,1.147,1.712,2.043l0.135,1.175
		l-0.626,0.358l0.369,0.719l0.333-0.419c0.26,2.257,0.686,3.733,1.273,4.427l0.032,0.282l0.515,0.751l-0.337,0.801l-1.042,0.882
		l-0.325-0.345l-0.427,0.431l-0.792-0.672l-0.666,0.84c-1.442,0.166-2.68,0.181-3.712,0.046l-0.042-0.376l-1.508,0.554l-1.121-0.633
		l0.086,0.753c-0.768-0.04-1.167-0.058-1.198-0.054l-1.012,0.307c-0.235-0.386-0.685-0.842-1.35-1.37l0.033-1.385l-0.199-0.072
		l0.284-0.842c-0.081-0.688-0.325-1.709-0.733-3.061c-0.41-1.35-0.656-2.385-0.74-3.105c-0.107-0.942,0.141-2.098,0.744-3.469
		l-0.708,0.462c-0.29-1.141-0.741-2.852-1.354-5.133l0.333-0.419l-0.462-0.709l-0.039-0.329l0.333-0.419
		c-0.24-0.702-0.591-1.41-1.053-2.119l-0.2,0.738c-0.407-0.492-0.729-1.075-0.965-1.747c0.19-0.562,0.479-1.088,0.868-1.578
		l-0.326-0.343l0.113-1.491l0.549,1.032l0.704-0.509l-0.075-0.658c-0.094-0.815-0.655-1.402-1.679-1.761l0.101-0.773
		c-0.55-1.462-0.96-3.368-1.229-5.719c-0.047-0.409,0.194-1.483,0.724-3.229l0.345-0.325l1.552-0.179l-0.044-0.376l-0.934-1.084
		l-0.188,0.022l-0.167,0.211l0.072,0.61l-0.775-0.101l-0.684,0.269l0.191-0.832c-0.151-0.746-0.497-1.833-1.043-3.263
		c0.193-0.244,0.312-1.148,0.355-2.709l-0.282,0.032l0.207-0.689l-0.135-1.177l-0.821-1.335l0.567-0.874l-0.119-1.035
		c-0.67-0.845-1.081-1.939-1.236-3.289c-0.047-0.407-0.088-1.038-0.123-1.891c-0.034-0.854-0.075-1.483-0.122-1.892l0.583-0.735
		c-0.605-1.39-1.043-3.261-1.312-5.613l-0.287-2.493c1.327-0.342,2.302-0.692,2.928-1.05l0.32,0.296l2.304-0.265l0.621-0.404
		c1.368,0.287,2.621,0.142,3.762-0.434l0.834,0.62l0.662-0.457l0.419,0.332l0.333-0.42l0.564-0.064
		c0.375-0.043,0.787-0.201,1.232-0.476l1.54,0.538l-0.082-0.706l0.708-0.462c0.516,0.067,1.279,0.219,2.292,0.452
		c0.749-0.118,1.347-0.299,1.794-0.541l0.838,0.237c0.771-0.47,1.633-0.569,2.586-0.298l0.715-0.416l0.319,0.297l3.01-0.346
		l-0.039-0.33l1.167,0.199l0.385-0.378l0.414,0.287l0.622-0.405l0.414,0.287l0.718-0.798l0.832,0.619l0.578-0.781l1.256,0.57
		l0.715-0.416l0.038,0.328l0.705-0.08l0.715-0.417l1.496,0.162l0.462,0.709l1.088-0.887c1.373,0.063,2.763,0.285,4.174,0.663
		l0.543,1.414l0.345-0.325c0.455,1.758,0.846,4.046,1.17,6.869L318.901,17.855z M276.518,17.203l-0.799,0.092l0.044,0.376
		l-0.678,0.745l0.377-0.043L276.518,17.203z M275.884,15.417l-0.751,0.086l0.032,0.283C275.35,15.734,275.587,15.611,275.884,15.417
		z M279.39,36.359l-0.702-0.301c-0.444-0.551-0.896-1.023-1.355-1.415l-0.703,0.508l0.087,0.752l1.216,0.623l0.405-0.619l0.351,0.15
		l-0.713,0.845C278.312,36.801,278.784,36.621,279.39,36.359z M278.05,14.788l-1.127,0.129l0.043,0.376l0.751-0.087L278.05,14.788z
		 M278.079,47.754l-0.467-0.328l0.045,0.376L278.079,47.754z M278.179,22.539l-0.119-1.035l-0.3,0.703L278.179,22.539z
		 M279.928,14.953l-0.042-0.376l-1.035,0.119c-0.5,0.63-0.821,1.286-0.965,1.97l0.376-0.043
		C278.957,16.034,279.512,15.478,279.928,14.953z M279.266,38.613l-0.704,0.08l-0.308,0.655L277.9,39.58l0.453,0.615
		C278.63,39.847,278.936,39.317,279.266,38.613z M278.703,30.388l-0.044-0.376l-0.376,0.043L278.703,30.388z M280.393,18.997
		l-0.419-0.333l-0.333,0.419l0.419,0.334L280.393,18.997z M282.129,34.091l-0.075-0.659c-0.363,0.169-0.96,0.365-1.792,0.587
		l0.082,0.706l0.375-0.472l0.749,0.723L282.129,34.091z M282.681,15.685l-0.467-0.328c-0.638,0.805-1.253,1.399-1.844,1.785
		l1.365-0.157L282.681,15.685z M286.056,28.874l-0.793-0.669l0.658-0.504l-0.087-0.753l-0.373-0.338l-1.662,2.526l-0.463-0.71
		l0.468-0.481l-0.185-0.359l-0.899,1.293l0.077,0.659l-1.177,0.134l0.043,0.377l-0.419-0.333l0.091,0.8l0.774-0.326l1.272,1.138
		l0.66-0.075l-0.18-0.741l0.769-1.184l0.845,0.713L286.056,28.874z M284.729,33.506c-0.523-0.417-0.954-0.986-1.291-1.709
		l-1.52,0.46c0.251,0.512,0.696,1.223,1.341,2.132l0.346-1.135L284.729,33.506z M283.765,67.778l-0.087-0.753l-1-0.408l-0.459,0.147
		l0.793,1.101L283.765,67.778z M283.329,60.681l-0.838-0.666l0.125,1.081L283.329,60.681z M284.167,60.918l-0.081-0.706
		l-0.376,0.043l0.082,0.706L284.167,60.918z M284.854,66.889l-0.375,0.044l0.042,0.375L284.854,66.889z M286.688,34.376
		l-0.329,0.038l-0.092-0.8l0.255-0.696l-0.089-0.753l-0.377-0.384l-1.505,0.173c0.087,0.751,0.563,1.586,1.433,2.503l0.376-0.043
		l-0.579,1.591l0.79,0.242l-0.415-0.285L286.688,34.376z M285.391,48.771l-0.753,0.087l0.462,0.709L285.391,48.771z M285.128,27.027
		l-0.043-0.375l-0.375,0.043L285.128,27.027z M285.853,69.777l-0.506-1.086l-0.283,0.033l0.414,1.095L285.853,69.777z
		 M288.11,14.011c-0.79-0.511-1.49-1.083-2.103-1.711l-0.33,0.039l0.193,0.835l-0.062,0.292l-0.703,0.51l2.285,0.404L288.11,14.011z
		 M285.666,25.488l-0.043-0.375l-0.328,0.038l0.042,0.377L285.666,25.488z M285.823,72.829l-0.049-0.423l-0.282,0.032l0.048,0.423
		L285.823,72.829z M286.585,60.402l-0.708-0.776l0.166,1.458l0.464,0.709L286.585,60.402z M288.247,41.296l-1.49-0.114l-0.345,0.325
		l1.501,0.209L288.247,41.296z M287.898,51.104l-0.168-1.458l-0.375,0.043l-0.25,1.125L287.898,51.104z M288.245,73.598
		l-0.419-0.333l0.043,0.376L288.245,73.598z M289.403,67.51l-0.243-0.449l0.113-0.68l-1.223-0.288l0.048,0.423L289.403,67.51z
		 M292.91,13.079l-1.312-1.04l-2.074,1.429l1.22,0.242C291.466,13.373,292.188,13.161,292.91,13.079z M291.362,68.38l-0.501-1.038
		l-0.333,0.42l0.082,0.704L291.362,68.38z M291.581,20.998l-0.376,0.043l0.05,0.423L291.581,20.998z M293.941,77.136l-0.469,0.055
		l-0.249,0.743C293.578,77.703,293.818,77.436,293.941,77.136z M295.615,13.816l-0.544-1.415l-0.327,0.466l-0.891-0.707
		l-0.567,0.875l1.952,0.823L295.615,13.816z M297.354,45.918l-0.369-0.72l-0.375,0.044l-0.426-0.38l-0.707,0.891l-1.16-0.962
		l-0.343,0.326c0.576,0.601,1.231,1.05,1.964,1.346L297.354,45.918z M294.541,21.467l-0.043-0.376l-0.238,0.409L294.541,21.467z
		 M301.793,12.438l-1.221-0.671l0.425,0.381l-1.13,0.511l-1.36-0.224l0.609-0.5l-1.458,0.167l-0.797-0.289l0.244,0.449l-0.108,0.727
		l1.035-0.119l0.475-0.435l0.043,0.375l-0.441,0.718l3.385-0.39l-0.076-0.658L301.793,12.438z M297.265,41.831l-0.344,0.325
		l0.141-0.016C297.218,42.122,297.287,42.018,297.265,41.831z M298.544,19.815l-0.752,0.087l0.043,0.375L298.544,19.815z
		 M319.248,49.451c-0.443,0.846-0.629,1.581-0.556,2.207l-0.576-0.028l-0.084,0.104l-0.544-0.604l-1.005,0.782l-1.91-0.447
		l-0.043-0.377l-1.461,0.55c0.521-0.441,0.966-0.984,1.337-1.631L312.9,50.18l0.618-1.26l0.048,0.422
		c0.522,0.13,1.296,0.359,2.317,0.687l-0.021-0.188l0.667-0.839l-0.377,0.043l-0.092-0.799l0.799-0.091l0.239-0.41
		c-0.424-0.935-1.076-1.209-1.952-0.823l-0.049-0.423l-0.324-0.344l0.492,1.801l-1.126-0.252l-1.042,0.883
		c-0.106-0.94-0.773-1.34-1.995-1.199l-0.724,0.75l0.799-0.092l-0.333,0.42l0.796,0.29l-0.332,0.419
		c0.241,0.449,0.673,0.893,1.296,1.328l-0.618,1.264l-0.753,0.085l-0.466-0.327l-0.092-0.8l0.579-0.353l-0.275-0.731l-0.799,0.093
		l-0.135-1.176l-0.326-0.344l-0.334,0.419l0.838,1.476c-0.065,0.263-0.089,0.884-0.072,1.866l-4.138,0.477l-0.419-0.333
		l-0.375,0.042c-0.443,0.56-1.121,0.892-2.03,0.997l-0.841-0.284l-1.086,0.506l-0.467-0.329l-0.99,0.496l-1.219-0.241l0.8-0.092
		l0.709-0.462c0.414,0.016,1.041,0.071,1.876,0.166l0.088-0.487l1.236-0.856l0.794,0.289l0.755-0.468l-0.455-0.233l0.425-0.048
		l0.193-0.786l0.42,0.333l1.129-0.13l0.043,0.376l0.833,0.191l0.957-0.778l-0.466-0.757l1.044-1.262
		c-0.571-0.824-1.252-1.364-2.043-1.624l0.581-0.733l-0.836-1.477l0.324-1.323l-0.208-0.167l-0.086-0.752l1.508-0.555
		c0.624,0.182,1.32,0.849,2.087,1.999l-0.379,0.425l0.043,0.376l-0.334,0.419c0.553,0.667,1.473,0.927,2.759,0.778l0.72-0.368
		L315.686,45c0.411-1.126,0.838-1.97,1.281-2.529c-0.542-0.573-1.379-1.08-2.509-1.522l0.692-0.604l0.311-0.606l-0.042-0.377
		l-1.266-1.045l-0.032-0.281l-0.25,0.312l-0.074-0.658l0.238-0.408l0.419,0.332l0.667-0.839l0.705-0.082
		c0.369,0.72,0.58,1.3,0.631,1.739c0.026,0.25-0.04,0.91-0.203,1.977l1.677,0.903l0.043,0.377l-0.725,0.749l0.093,0.8l1.217,0.241
		l-0.587,1.926l0.086,0.752l0.891,0.708c-0.053,0.642-0.249,1.284-0.589,1.925L319.248,49.451z M300.044,20.024l-0.734-0.583
		l-0.441,0.718L300.044,20.024z M301.152,42.48l-0.168-1.458l-0.753,0.087l-0.914,1.583l1.501,0.209L301.152,42.48z M302.347,20.569
		l-1.127-0.681l-0.706,0.893l0.176-0.116l1.368,0.701L302.347,20.569z M302.593,12.346l-0.092-0.8l-1.175,0.136
		C301.839,12.004,302.26,12.226,302.593,12.346z M306.16,40.046l-0.426-0.38l-3.384,0.389l0.843,0.713l0.423-0.048l0.077,0.658
		l0.958-0.777l1.251,0.522L306.16,40.046z M304.633,49.56l-1.669-0.856l0.752-0.087L304,47.774
		C304.127,48.332,304.337,48.926,304.633,49.56z M305.582,48.688l-0.708,0.463l-0.451-1.425l1.126,0.679L305.582,48.688z
		 M306.109,20.137l-0.419-0.333l-1.134,0.512l0.845,0.284L306.109,20.137z M306.753,16.632l-0.407-0.239l-0.282,0.034l0.315,0.249
		L306.753,16.632z M306.676,19.262l-0.043-0.376l-0.282,0.031L306.676,19.262z M307.957,46.556l-0.043-0.375l-0.333,0.419
		L307.957,46.556z M308.07,40.921c0.442-0.019,0.875,0.012,1.298,0.089l-0.166,0.21l-0.494-0.134l-0.542,0.254L308.07,40.921z
		 M310.125,45.927l-0.378,0.043l0.044,0.376L310.125,45.927z M310.997,43.158l-0.376,0.043l-0.034-0.281l0.377-0.044L310.997,43.158
		z M312.335,41.956l-0.749-0.295l0.705-0.082L312.335,41.956z M317.227,9.091l-0.333,0.419l-0.463-0.709l0.333-0.419L317.227,9.091z
		"/>
	<path fill="#182987" d="M376.898,13.752c-0.099,0.418-0.151,1.07-0.154,1.955c-0.751,0.589-1.743,0.907-2.972,0.958l-2.176,0.098
		l-0.827-0.324l-0.99,0.825l-0.854-0.703l-1.081,0.832l-0.403-0.352l-0.684,0.425l-1.61-0.652l-0.354,0.403l-0.308-0.358
		l0.051,0.755l-0.377,0.025l-0.431-0.731l-1.154,0.458l-0.354,0.402l-1.891-0.632c-0.812,0.181-1.347,0.438-1.609,0.772l0.195,0.081
		l-1.416,0.096l-0.854-0.702l-0.704,0.806l-0.43-0.731c-0.69,0.553-1.279,0.972-1.766,1.256l-0.427-0.731l-0.427,0.03l-0.352,0.403
		l-0.334-0.737l-1.142,0.646l0.012,0.189l-0.755,0.05l0.225-0.158l-0.938-0.553l-0.326,0.78l-0.237,0.016
		c-0.377,0.026-0.857-0.052-1.438-0.235c-0.679-0.207-1.144-0.318-1.399-0.333l-0.624,0.61c-0.094,0.48-0.309,1.301-0.641,2.463
		c0.3,0.233,0.609,0.861,0.931,1.882l-0.428,0.692l0.57,1.433l-0.441,0.504l0.156,0.891l-0.071,0.385l0.138,2.029l0.496,0.346
		l0.148,2.22l-0.447,0.41c0.069,1.039,0.372,1.777,0.907,2.216l0.026,0.378l1.132-0.077l1.41-0.9l0.857,0.749l2.22-0.148
		l0.325-0.828l0.714,0.758l0.323-0.828l0.455,0.397l0.026,0.377l0.729-0.427l1.064,0.307l0.779-0.43l0.755-0.051l0.828,0.324
		l0.986-0.873l0.855,0.749c0.553-0.258,1.4-0.583,2.545-0.976l0.311,0.405l0.378-0.025l0.776-0.478l-0.397,0.452l0.816,0.135
		l0.742-0.24l0.333,0.737l-0.258,0.398l0.636-0.423l-0.025-0.377l1.558-0.104l0.473,1.391l-0.728,0.476l-1.63-0.982l-1.373,0.756
		c0.155,0.433,0.298,0.93,0.431,1.489l-1.136,0.028l-1.007,0.542l0.021,0.331l-1.508,0.86l-0.403-0.352l-0.708,0.047l0.077,1.132
		l-0.204-0.176l-0.553,0.227l0.326-0.781l-0.403-0.352l-1.816,0.5l0.378-0.025l-0.686,1.09l-1.086,0.073l-0.298,1.205l0.66-0.044
		l0.881,1.127l1.559-0.104l0.329,0.644l-1.867-0.256l-1.44,0.476l-0.42-0.636l-0.309,1.064l-1.207-0.299l-1.792,0.88l-0.427-0.731
		l-0.583,1.225l0.308,0.359c0.456-0.284,1.313-0.468,2.573-0.552c0.029-0.003,0.559,0.089,1.584,0.273l0.298-1.207l0.66-0.043
		c0.031-0.002,0.559,0.089,1.583,0.273l0.054,0.803c0.361,0.198,0.873,0.511,1.535,0.94l-0.663,0.045l0.054,0.801l-1.181,0.08
		l-0.407-0.4l-0.159,0.438l-0.614,0.041l-0.691-0.381l-1.079,0.88c-0.483-0.125-1.114-0.353-1.897-0.68l0.03,0.425l-0.832-0.37
		l-0.35,0.449l-0.406-0.4l-0.631,0.47l-0.803,0.052l-0.786-0.374l-2.096,0.567c-0.066,0.417-0.184,1.041-0.349,1.873l-0.331,0.023
		c0.375,0.417,1.055,1.369,2.042,2.851l-0.901,0.726l0.217,0.412l-1.037,0.828c0.48,0.537,1.15,1.363,2.016,2.475
		c0.057,0.851-0.23,1.755-0.862,2.714l0.739,1.089l0.244,3.683l-1.464,0.099c0.35,0.482,0.887,1.19,1.613,2.121l0.08,1.181
		l-0.643,0.329l0.335,0.736l0.352-0.403c0.152,2.267,0.505,3.761,1.057,4.483l0.021,0.283l0.478,0.774l-0.374,0.785l-1.083,0.831
		l-0.308-0.359l-0.448,0.411l-0.759-0.708l-0.705,0.806c-1.448,0.096-2.684,0.052-3.708-0.132l-0.024-0.378l-1.534,0.482
		l-1.088-0.686l0.05,0.757c-0.766-0.077-1.164-0.112-1.195-0.112l-1.025,0.259c-0.217-0.396-0.644-0.874-1.283-1.432l0.098-1.382
		l-0.195-0.082l0.325-0.828c-0.046-0.691-0.241-1.723-0.585-3.092c-0.347-1.368-0.542-2.415-0.589-3.139
		c-0.064-0.943,0.24-2.086,0.909-3.428l-0.731,0.428c-0.235-1.153-0.604-2.883-1.105-5.19l0.352-0.403l-0.429-0.731l-0.021-0.33
		l0.353-0.404c-0.207-0.713-0.524-1.435-0.951-2.166l-0.237,0.727c-0.381-0.51-0.673-1.108-0.877-1.792
		c0.215-0.551,0.528-1.062,0.942-1.533l-0.31-0.359l0.187-1.482l0.497,1.057l0.728-0.476l-0.046-0.66
		c-0.053-0.819-0.585-1.432-1.592-1.839l0.138-0.768c-0.478-1.485-0.796-3.409-0.954-5.771c-0.028-0.409,0.265-1.473,0.878-3.19
		l0.359-0.308l1.557-0.104l-0.024-0.378l-0.882-1.127l-0.189,0.013l-0.176,0.201l0.041,0.614l-0.768-0.138l-0.695,0.236l0.229-0.822
		c-0.114-0.751-0.409-1.854-0.885-3.309c0.206-0.235,0.366-1.131,0.484-2.689l-0.282,0.019l0.238-0.679l-0.079-1.182l-0.755-1.372
		l0.606-0.847l-0.069-1.04c-0.628-0.875-0.987-1.99-1.078-3.343c-0.027-0.409-0.037-1.042-0.03-1.896
		c0.005-0.854-0.005-1.485-0.033-1.894l0.616-0.706c-0.538-1.418-0.884-3.308-1.043-5.67l-0.168-2.503
		c1.342-0.279,2.335-0.583,2.977-0.911l0.305,0.312l2.314-0.154l0.641-0.376c1.351,0.354,2.608,0.27,3.778-0.252l0.804,0.658
		l0.682-0.425l0.403,0.353l0.353-0.403l0.566-0.039c0.378-0.024,0.797-0.163,1.254-0.416l1.511,0.61l-0.048-0.708l0.732-0.428
		c0.511,0.092,1.267,0.279,2.267,0.56c0.753-0.081,1.36-0.233,1.82-0.453l0.824,0.276c0.793-0.434,1.658-0.491,2.597-0.174
		l0.734-0.382l0.305,0.312l3.023-0.203l-0.023-0.33l1.156,0.255l0.403-0.359l0.399,0.305l0.64-0.375l0.4,0.306l0.755-0.763
		l0.803,0.657l0.614-0.752l1.226,0.629l0.736-0.381l0.02,0.332l0.708-0.048l0.734-0.38l1.486,0.231l0.429,0.731l1.13-0.834
		c1.368,0.13,2.748,0.417,4.137,0.862l0.475,1.439l0.359-0.309c0.373,1.776,0.653,4.083,0.843,6.916L376.898,13.752z
		 M334.594,11.078l-0.803,0.053l0.026,0.377l-0.712,0.712l0.377-0.025L334.594,11.078z M334.046,9.264l-0.757,0.05l0.02,0.284
		C333.495,9.555,333.742,9.442,334.046,9.264z M336.546,30.348l-0.686-0.334c-0.418-0.571-0.847-1.065-1.285-1.478l-0.727,0.476
		l0.051,0.755l1.184,0.68l0.433-0.599l0.345,0.166l-0.752,0.81C335.449,30.738,335.93,30.58,336.546,30.348z M334.694,41.667
		l-0.45-0.349l0.025,0.377L334.694,41.667z M336.318,32.593l-0.708,0.048l-0.338,0.638l-0.365,0.215l0.421,0.635
		C335.622,33.795,335.952,33.282,336.318,32.593z M336.241,8.737l-1.134,0.076l0.026,0.377l0.757-0.051L336.241,8.737z M336,16.486
		l-0.069-1.039l-0.334,0.686L336,16.486z M336.146,24.35l-0.026-0.377l-0.378,0.025L336.146,24.35z M338.108,8.992l-0.026-0.378
		l-1.039,0.069c-0.528,0.605-0.881,1.246-1.057,1.921l0.377-0.025C337.084,10.025,337.667,9.497,338.108,8.992z M339.393,28.214
		l-0.043-0.662c-0.37,0.152-0.976,0.319-1.817,0.502l0.047,0.708l0.397-0.453l0.714,0.759L339.393,28.214z M338.379,13.053
		l-0.403-0.352l-0.353,0.403l0.403,0.353L338.379,13.053z M339.417,61.94l-0.05-0.756l-0.979-0.458l-0.465,0.126l0.74,1.138
		L339.417,61.94z M340.822,9.854l-0.45-0.35c-0.677,0.773-1.318,1.338-1.927,1.695l1.369-0.092L340.822,9.854z M339.322,54.831
		l-0.806-0.706l0.072,1.087L339.322,54.831z M343.563,23.191l-0.759-0.708l0.68-0.474l-0.051-0.754l-0.354-0.356l-1.783,2.443
		l-0.428-0.73l0.491-0.46l-0.166-0.368l-0.961,1.25l0.044,0.662l-1.18,0.079l0.026,0.377l-0.402-0.352l0.051,0.803l0.789-0.29
		l1.217,1.199l0.662-0.045l-0.145-0.748l0.824-1.147l0.81,0.751L343.563,23.191z M342.019,27.753
		c-0.504-0.44-0.907-1.03-1.209-1.769l-1.541,0.387c0.226,0.524,0.638,1.254,1.238,2.194l0.401-1.118L342.019,27.753z
		 M340.147,55.106l-0.048-0.708l-0.377,0.025l0.047,0.708L340.147,55.106z M340.548,61.105l-0.378,0.025l0.026,0.377L340.548,61.105
		z M341.408,64.037l-0.454-1.108l-0.284,0.018l0.358,1.116L341.408,64.037z M341.232,67.084l-0.028-0.425l-0.284,0.02l0.028,0.425
		L341.232,67.084z M341.949,43.033l-0.756,0.05l0.429,0.73L341.949,43.033z M343.933,28.716l-0.332,0.021l-0.054-0.802l0.288-0.684
		l-0.051-0.755l-0.359-0.403l-1.511,0.102c0.051,0.754,0.486,1.612,1.312,2.569l0.376-0.026l-0.653,1.562l0.778,0.28l-0.4-0.306
		L343.933,28.716z M342.587,54.707l-0.671-0.81l0.099,1.464l0.427,0.73L342.587,54.707z M342.726,21.302l-0.025-0.378l-0.378,0.025
		L342.726,21.302z M343.336,19.791l-0.025-0.378l-0.331,0.022l0.026,0.378L343.336,19.791z M343.615,67.968l-0.404-0.352
		l0.026,0.377L343.615,67.968z M345.159,35.703l-1.483-0.186l-0.359,0.31l1.49,0.279L345.159,35.703z M346.325,8.442
		c-0.765-0.548-1.437-1.153-2.018-1.809l-0.332,0.021l0.151,0.843l-0.074,0.29l-0.729,0.477l2.264,0.512L346.325,8.442z
		 M344.341,45.481l-0.097-1.462l-0.378,0.024l-0.305,1.112L344.341,45.481z M345.063,61.941l-0.221-0.459l0.146-0.674l-1.209-0.345
		l0.028,0.425L345.063,61.941z M346.977,62.905l-0.45-1.061l-0.353,0.403l0.047,0.708L346.977,62.905z M351.164,7.74l-1.26-1.101
		l-2.141,1.328l1.206,0.299C349.707,7.964,350.439,7.788,351.164,7.74z M349.134,71.774l-0.471,0.031l-0.283,0.73
		C348.745,72.322,348.996,72.068,349.134,71.774z M349.459,15.586l-0.378,0.025l0.029,0.425L349.459,15.586z M354.035,40.753
		l-0.333-0.736l-0.378,0.026l-0.406-0.4l-0.75,0.857l-1.112-1.018l-0.357,0.309c0.547,0.627,1.179,1.108,1.898,1.439L354.035,40.753
		z M353.831,8.605l-0.476-1.438l-0.349,0.45l-0.857-0.749l-0.607,0.847l1.911,0.916L353.831,8.605z M352.393,16.196l-0.025-0.378
		l-0.257,0.397L352.393,16.196z M354.142,36.667l-0.358,0.31l0.141-0.01C354.082,36.956,354.153,36.856,354.142,36.667z
		 M375.734,45.328c-0.482,0.824-0.703,1.549-0.66,2.178l-0.573-0.057l-0.087,0.102l-0.517-0.63l-1.043,0.734l-1.885-0.539
		l-0.026-0.377l-1.485,0.479c0.541-0.417,1.012-0.938,1.413-1.566l-1.51,0.102l0.674-1.232l0.03,0.425
		c0.517,0.156,1.276,0.421,2.283,0.796l-0.012-0.188l0.706-0.806l-0.379,0.024l-0.054-0.801l0.802-0.055l0.257-0.396
		c-0.379-0.954-1.016-1.26-1.91-0.916l-0.027-0.424l-0.309-0.36l0.407,1.823l-1.112-0.305l-1.083,0.83
		c-0.063-0.943-0.709-1.374-1.938-1.292l-0.758,0.715l0.803-0.055l-0.353,0.405l0.78,0.326l-0.352,0.404
		c0.219,0.459,0.631,0.922,1.231,1.387l-0.677,1.231l-0.756,0.051l-0.451-0.349l-0.053-0.803l0.595-0.324l-0.239-0.743l-0.804,0.053
		l-0.078-1.181l-0.308-0.359l-0.354,0.403l0.766,1.515c-0.079,0.259-0.131,0.879-0.161,1.861l-4.156,0.277l-0.403-0.352
		l-0.377,0.025c-0.469,0.537-1.162,0.836-2.074,0.897l-0.83-0.324l-1.108,0.454l-0.45-0.35l-1.013,0.447l-1.205-0.298l0.802-0.054
		l0.73-0.428c0.413,0.035,1.035,0.121,1.868,0.254l0.109-0.482l1.276-0.796l0.78,0.327l0.778-0.431l-0.445-0.255l0.426-0.028
		l0.231-0.775l0.404,0.353l1.135-0.075l0.024,0.377l0.823,0.229l0.994-0.73l-0.431-0.777l1.105-1.213
		c-0.532-0.849-1.187-1.422-1.965-1.718l0.617-0.706l-0.766-1.515l0.387-1.306l-0.201-0.177l-0.051-0.755l1.534-0.482
		c0.615,0.213,1.277,0.91,1.992,2.097l-0.4,0.406l0.025,0.379l-0.353,0.403c0.52,0.692,1.427,0.995,2.718,0.91l0.735-0.335
		l2.6-0.173c0.462-1.106,0.93-1.929,1.399-2.466c-0.514-0.598-1.327-1.145-2.433-1.64l0.719-0.57l0.342-0.592l-0.027-0.378
		l-1.212-1.105l-0.018-0.283l-0.265,0.302l-0.043-0.662l0.258-0.396l0.403,0.352l0.706-0.806l0.708-0.047
		c0.332,0.737,0.516,1.326,0.544,1.766c0.017,0.253-0.082,0.908-0.295,1.966l1.631,0.981l0.024,0.377l-0.758,0.715l0.053,0.803
		l1.207,0.298l-0.68,1.896l0.051,0.756l0.857,0.749c-0.085,0.639-0.312,1.271-0.681,1.895L375.734,45.328z M360.069,7.524
		l-1.188-0.728l0.406,0.4l-1.155,0.458l-1.347-0.29l0.632-0.469l-1.464,0.098l-0.78-0.327l0.221,0.459l-0.142,0.722l1.039-0.069
		l0.495-0.413l0.025,0.378l-0.476,0.696l3.4-0.228l-0.043-0.661L360.069,7.524z M356.471,14.738l-0.755,0.05l0.025,0.378
		L356.471,14.738z M357.993,37.502l-0.098-1.464l-0.755,0.05l-0.99,1.536l1.49,0.281L357.993,37.502z M357.96,15.019l-0.705-0.618
		l-0.476,0.697L357.96,15.019z M360.233,15.672l-1.094-0.734l-0.749,0.857l0.183-0.107l1.332,0.765L360.233,15.672z M363.111,35.309
		l-0.406-0.4l-3.4,0.227l0.81,0.752l0.424-0.028l0.044,0.661l0.995-0.73l1.225,0.583L363.111,35.309z M361.133,44.739l-1.628-0.935
		l0.754-0.05l0.325-0.828C360.686,43.488,360.869,44.093,361.133,44.739z M360.871,7.471l-0.053-0.802l-1.183,0.078
		C360.134,7.093,360.545,7.335,360.871,7.471z M362.122,43.914l-0.731,0.43l-0.381-1.446l1.092,0.734L362.122,43.914z
		 M364.012,15.419l-0.403-0.352l-1.156,0.458l0.826,0.324L364.012,15.419z M364.823,11.95l-0.397-0.259l-0.284,0.02l0.303,0.263
		L364.823,11.95z M364.597,41.898l-0.027-0.377l-0.353,0.403L364.597,41.898z M364.619,14.573l-0.026-0.378l-0.282,0.019
		L364.619,14.573z M364.978,36.275c0.443,0.002,0.874,0.053,1.291,0.15l-0.176,0.203l-0.484-0.157l-0.553,0.226L364.978,36.275z
		 M366.79,41.372l-0.377,0.025l0.025,0.377L366.79,41.372z M367.793,38.648l-0.376,0.025l-0.019-0.283l0.377-0.026L367.793,38.648z
		 M369.188,37.512l-0.733-0.33l0.709-0.048L369.188,37.512z M375.643,4.917l-0.353,0.405l-0.427-0.731l0.353-0.403L375.643,4.917z"
		/>
	<path fill="#182987" d="M461.593,12.729c0.005,0.537-0.346,1.55-1.058,3.042c-1.257,0.422-2.497,1.051-3.718,1.884l-0.431-0.374
		l-0.374,0.382l-0.288-0.376l-0.369,0.762c-1.078-0.272-3.951-0.369-8.621-0.288l-0.716-0.656l-1.515,0.016l0.385,0.66l-0.373,0.381
		c0.024,2.43-0.219,4.705-0.734,6.824l0.815,1.034l0.04,3.691c0.004,0.474-0.257,1.124-0.786,1.948l0.808,0.275l-0.421,0.384
		l0.021,1.94l-0.66,0.338l0.008,0.758l0.663-0.007c-0.244,0.792-0.355,2.181-0.335,4.169l0.817,1.081l0.022,2.224
		c-0.278,0.666-0.541,1.142-0.79,1.429l0.812,0.796l0.041,3.786c0.003,0.315-0.119,0.743-0.366,1.282
		c-0.248,0.539-0.385,0.919-0.415,1.139l0.39,0.849l0.027,2.651c-0.375,0.382-0.655,0.89-0.837,1.522l0.483,0.801l0.049,4.732
		l-0.467,0.573l0.192,0.188h-0.047l0.336,0.423l-1.046-0.416l-1.175,0.816c-0.259-0.628-0.627-1.018-1.102-1.172l-0.374,0.382
		l-0.39-1.131l-0.368,1.14c-0.543-0.688-1.164-1.155-1.86-1.4l0.008,0.663L437.49,61.5l-0.708,0.386l-0.002-0.379l0.707-0.291
		l-0.815-0.891l-0.66,0.101l-0.005-0.379l0.754-0.385l0.711-0.008l-0.005-0.378l-0.72-1.082l-0.375,0.383l-0.382-0.375l-0.379,0.004
		l-0.008-0.757l-0.757,0.007l-0.008-0.804c0.689-0.354,1.19-0.833,1.499-1.435l0.383,0.374l0.705-0.386
		c0.383,0.217,0.875,0.591,1.481,1.121l0.468-0.384c0.417,0.629,0.772,1.365,1.064,2.213l0.378-0.003l0.703-0.766l0.005,0.378
		l0.372-0.666c-0.382-0.312-0.75-0.829-1.104-1.55c0.338-0.73,0.819-1.349,1.447-1.861l-0.763-0.371l0.005,0.378
		c-0.76-0.244-1.472-0.363-2.134-0.356l0.28-0.382l-1.096-0.793l0.797-0.671l1.047,0.652l0.805-0.009l1.053,1.173l0.371-0.81
		c-0.514-0.846-0.901-1.583-1.159-2.212l0.378-0.004c-0.354-0.563-0.721-1.034-1.103-1.409l-0.375,0.383l-0.383-0.374
		c0.321,0.69,0.47,1.194,0.443,1.509l-0.044,0.333c-0.413-0.186-0.923-0.575-1.527-1.167l-0.71,0.006l0.021,1.941l-0.375,0.382
		c-0.353-0.5-0.72-0.875-1.1-1.125l-0.379,0.005c-0.354-0.628-0.863-1.111-1.531-1.452l0.376-0.383
		c0.444,0.374,1.19,0.84,2.239,1.396l0.375-0.383l-0.012-1.042l-0.756,0.008l-0.345-1.18l0.005,0.379
		c-0.444-0.09-0.824-0.211-1.142-0.367c-0.561,0.605-0.949,1.225-1.164,1.858l-0.662,0.008l-0.386-0.66l-0.799,0.387l0.243,0.755
		l-0.225,1.091l-0.757,0.007l-0.68-1.838l-0.025-2.319l0.659-0.291l-0.67-0.798l0.658-0.385l-0.287-0.376l-0.379,0.004
		c-0.01-0.948,0.084-2.368,0.288-4.264c0.198-1.895,0.295-3.317,0.285-4.263l-0.667-0.418l-0.045-4.449l0.657-0.385l-0.125-11.926
		c-0.016-1.484-0.638-2.219-1.868-2.207l-0.375,0.288l-1.231,0.061c-0.916,0.042-1.611-0.062-2.086-0.31l-1.132,0.295
		c-0.352-0.216-1.505-0.331-3.461-0.342c-2.177-0.04-3.519-0.12-4.025-0.242c-1.513,0.269-2.537,0.405-3.073,0.411l-0.237,0.003
		c-0.32-0.47-0.578-0.989-0.774-1.554l0.375-0.287l-0.385-0.754c0.223-2.684,0.33-4.563,0.319-5.636l0.378-0.004l-0.39-1.179
		l0.689-1.854l0.374-0.383l1.141,0.367l0.368-1.045l0.9,0.18c0.882-0.167,1.688-0.143,2.416,0.07l0.381,0.374l0.802-0.388
		l0.382,0.375l-0.75,0.812l0.379-0.004l0.754-0.434l0.238,0.139l-0.625-0.892c0.756-0.197,1.621-0.301,2.6-0.312l0.382,0.28
		l0.423-0.288l0.666,0.277l0.375-0.288l0.761,0.277l0.805-0.01l-0.003-0.284c0.254,0.188,2.715,0.257,7.385,0.208l0.384,0.374
		l0.374-0.383l0.763,0.371l-0.005-0.378c0.695,0.057,1.313,0.175,1.851,0.359l1.178-0.392l0.29,0.376l1.278,0.033
		c0.883,0.024,1.592-0.126,2.125-0.447l0.387,0.752c0.626-0.322,1.194-0.47,1.698-0.444l0.521,0.043l0.384,0.374l0.378-0.004
		l0.706-0.385l0.383,0.374c0.535-0.258,1.037-0.39,1.51-0.395c0.284-0.002,0.648,0.121,1.092,0.368l0.096,0
		c1.23-0.014,2.426-0.372,3.586-1.079l0.764,0.654l0.376-0.383l0.806,0.371l-0.381-0.375l1.051,0.747l0.373-0.383l0.431,0.374
		l0.375-0.383l-0.384-0.374l0.375-0.288l-0.386-0.801l-0.006-0.378l-0.429-0.375l1.18-0.39l-0.004-0.38l-0.767-0.701l0.759-0.008
		l0.369-0.761l0.718,0.749l-0.319,1.094l0.719,0.749l-1.091,0.012l0.717,0.372l-0.23,0.902l0.248,0.944l0.38-0.004l0.753-0.387
		l0.384,0.375l0.703-0.386c0.263,0.786,0.397,1.652,0.409,2.598l-0.372,0.809C461.324,11.17,461.59,12.51,461.593,12.729z
		 M414.17,8.824l-0.008-0.804l-0.332,0.003l0.009,0.805L414.17,8.824z M430.664,10.876l-0.197-0.709l0.181-0.758l-0.8,0.387
		c-0.446-0.437-0.924-0.811-1.433-1.121l-0.425,0.004l-0.752,0.386l-0.008-0.804c-0.438,0.447-0.796,0.75-1.079,0.91l-0.001-0.095
		l-1.136,0.014l0.007,0.756l0.382,0.375l0.754-0.387c0.353,0.534,0.976,1.269,1.868,2.206
		C428.121,11.975,428.998,11.587,430.664,10.876z M426.168,10.923l-0.379,0.003l0.383,0.375L426.168,10.923z M442.021,69.31
		l-0.995-0.037c-0.979-0.021-2.127,0.133-3.45,0.462c-0.352-0.25-3.066-0.347-8.146-0.294l-0.816-1.08l0.422-0.384l-0.014-1.467
		l0.38,0.282l0.283-0.289l-0.288-0.375l0.28-0.381l0.008,0.757l0.757-0.008l0.386,0.706l0.008,0.758l0.189-0.002
		c0.346-0.003,0.896-0.262,1.648-0.774l1.854,0.737l0.804-0.007l0.75-0.767l1.292,1.312l0.569,0.09l-0.004-0.284l0.382,0.279
		l0.699-1.047l1.519,0.363l-0.005-0.378l0.383,0.373l-0.004-0.378l0.715,0.372l-0.009-0.758l0.394,1.416L442.021,69.31z
		 M429.707,68.633l-0.006-0.662l-0.284,0.002l0.006,0.663L429.707,68.633z M430.211,8.229l-0.375,0.43l0.007,0.758l0.515-0.669
		L430.211,8.229z M431.312,9.402l-0.288-0.376l0.002,0.378L431.312,9.402z M433.935,11.22l-0.009-0.757l-0.67-0.704l-0.754,0.386
		l-0.425,0.005l-0.391-1.132l-0.654,0.765l0.668,0.703l0.005,0.378C432.559,11.109,433.302,11.228,433.935,11.22z M434.825,55.61
		l-0.417,0.762l-1.046-0.368l0.384,0.374l-0.763-0.37c-0.404,0.415-0.667,0.907-0.788,1.476l0.808,0.37l-0.42,0.383l-0.368,1.092
		l-0.669-0.702l0.272-1.139l-0.674-1.081l0.367-1.14l0.288,0.374l-0.009-0.757l-0.662,0.008l-0.012-1.089l0.659-0.387l0.004,0.379
		c0.317,0.312,0.717,0.797,1.197,1.456l0.378-0.004l0.19-0.097l-0.193-0.283C434.014,55.051,434.505,55.298,434.825,55.61z
		 M431.959,35.098l-0.379,0.004l0.005,0.378L431.959,35.098z M431.986,37.7l-0.385-0.657l0.007,0.663L431.986,37.7z M432.025,41.486
		l-0.003-0.378l-0.378,0.004l0.003,0.378L432.025,41.486z M433.919,9.753l-0.015-1.562l-0.284,0.002l-0.385-0.376l-0.373,0.384
		l-0.383-0.375l-0.804,0.008l0.007,0.805l1.562-0.017L433.919,9.753z M433.643,46.725l-1.566-0.41l0.004,0.426L433.643,46.725z
		 M433.681,50.369l0.008,0.803l-0.378,0.005L433.681,50.369z M434.436,59.023c-0.156,0.285-0.5,0.51-1.036,0.674l-0.011-1.088
		l0.762,0.417l-0.002-0.188L434.436,59.023z M434.298,45.913l-0.663,0.008l0.189,0.092l-0.186,0.286
		C433.89,46.233,434.11,46.105,434.298,45.913z M434.73,10.455l-0.378,0.004l0.004,0.378L434.73,10.455z M438.158,52.973
		l0.007,0.757l-1.469-0.363l-0.374,0.762l0.009,0.709l-0.758,0.008c-0.506-0.216-0.903-0.449-1.19-0.698
		c0.47-0.384,1.113-0.769,1.929-1.157l-0.762-0.417l0.004,0.425c-0.352-0.532-0.61-1.018-0.771-1.458l0.757-0.008l1.142,0.65
		l0.71-0.008L438.158,52.973z M436.729,56.633l-0.385-0.659l0.006,0.663L436.729,56.633z M437.714,46.682l-1.089,0.012l0.337,0.658
		L437.714,46.682z M438.941,60.018c-0.697-0.246-1.061-0.369-1.092-0.368l-0.378,0.004
		C437.789,59.903,438.278,60.023,438.941,60.018z M439.399,58.545c0.033,0.188,0.131,0.424,0.291,0.707l0.188-0.191L439.399,58.545z
		 M439.925,9.312l-0.382-0.375l0.004,0.378L439.925,9.312z M441.257,59.614l-0.811-0.654l-0.373,0.667L441.257,59.614z
		 M440.741,10.392l-0.004-0.331c0.318,0.186,0.669,0.545,1.054,1.078l-0.012-1.088l-0.379,0.003l0.374-0.382
		c0.448,0.5,1.195,1.107,2.245,1.821l0.804-0.008c0.15-0.79,0.395-1.407,0.737-1.854l1.094,0.369l0.361-1.519l-0.899,0.057
		c-1.009,0.073-1.845-0.077-2.513-0.448l-0.28,0.43l-0.762-0.418c-0.568,0.006-1.324,0.156-2.266,0.45l0.435,0.847l0.669,0.656
		l-0.664,0.007l-0.421,0.336L440.741,10.392z M443.832,29.719l-0.292-0.66l-0.375,0.383L443.832,29.719z M447.407,9.612
		l-0.003-0.379l-0.379,0.004l0.003,0.378L447.407,9.612z M449.623,8.831l-0.386-0.799l-0.374,0.429l0.014,1.514L449.623,8.831z
		 M451.185,8.815l-0.804,0.008l-0.749,0.765l0.757-0.008l0.813,0.701l0.084-0.899L451.185,8.815z M460.793,8.714l-0.095-0.188
		l-0.236,0.193L460.793,8.714z"/>
	<path fill="#182987" d="M464.159,49.816l-0.277-0.292l0.288-0.183c-0.518-0.769-0.771-1.611-0.751-2.526l-0.272-0.384l0.313-1.556
		c-0.36-0.86-0.415-2.613-0.171-5.259l-0.372-0.292c0.148-1.164,0.229-1.777,0.229-1.841c0.005-0.284-0.027-0.931-0.102-1.943
		l-0.048-0.002l0.05-0.046c-0.082-0.727-0.084-1.327-0.01-1.798l-0.377-0.009l0.037-1.845c0.017-0.758,0.17-2.016,0.461-3.778
		l1.087,0.024c-0.403-0.356-0.878-0.966-1.426-1.829c0.665-0.208,1.288-0.587,1.869-1.143l0.015-0.663l-1.105,0.638l-0.102,0.377
		c-0.42-0.956-0.613-2.253-0.579-3.895l0.025-1.229l0.774-0.788l-0.353-1.144c0.4-0.97,1.167-2.311,2.312-4.023l0.024-1.182
		c1.737-1.509,3.661-3.567,5.767-6.174c0.762-0.236,1.518-0.835,2.265-1.798l0.369,0.387l0.716-0.364l0.19,0.004
		c0.79,0.017,1.73-0.484,2.828-1.501l0.376,0.103c0.853-0.202,1.479-0.442,1.858-0.717c0.066,0,0.806-0.046,2.231-0.142
		c0.82-0.078,1.563,0.002,2.216,0.236l0.438-0.37c0.723,0.016,1.465,0.158,2.215,0.427l1.436-0.726
		c0.847,0.27,1.632,0.413,2.358,0.428l0.292-0.374c1.341,0.693,2.598,0.846,3.777,0.461l-0.016,0.662l0.763-0.267l0.938,0.493
		l0.497,1.005l-1.897,2.563l1.806,1.885l0.384-0.371l0.379,0.007l-0.266-0.905l1.062-0.924l-0.729-1.104l1.107-1.111l0.742,0.772
		l-0.006,0.378l-0.395,0.703l0.751,0.395l0.802,0.017l0.355,1.049l-0.39,0.513l-1.542-0.838l-0.411,1.458l-0.339,0.372l0.692,0.772
		c-0.692-0.015-1.561-0.159-2.594-0.434l0.385-0.371l-0.369-0.386l-0.718,0.363c0.395,0.671,1,1.174,1.816,1.505l0.739,0.774
		l0.719-0.363l0.742,0.773c0.693-0.142,1.315-0.382,1.859-0.719l0.347,1.57l0.818-0.786l-0.006,0.425l0.734,1.057l0.476-0.178
		l0.188,0.193l0.815-0.646l0.375,0.293l1.099-0.64l-0.786-0.821l0.411-1.46l0.804,0.018c0.057,0.191,0.51,1.306,1.348,3.343
		l0.429,0.009c0.271,0.638,0.757,1.389,1.465,2.257l-1.521,0.347l0.352,1.191l0.38,0.008l0.395-0.75l0.693,0.772l0.387-0.369
		c-0.014,0.757,0.208,2.024,0.675,3.802l-0.391,0.654l0.741,0.773l-0.395,0.702c0.236,0.793,0.339,1.79,0.317,2.99l0.785,0.821
		l-0.834,1.401l0.77,1.579l-0.426-0.009l-0.399,1.082c0.261,1.016,0.511,1.763,0.755,2.241l-0.434,0.369
		c0.004,1.168,0.204,2.909,0.599,5.221l-0.318,1.461l0.285,0.006l-0.112,0.993c0.202,0.666,0.332,1.332,0.381,1.995l0.045,0.05
		l-0.045-0.002c0.025,0.254,0.034,0.507,0.028,0.758l-0.646-0.771l0.617,0.014v-0.048l-0.323-0.385l-1.098,0.403
		c0.218,1.614,0.312,3.005,0.29,4.172l-0.377-0.008l0.355,1.049l-0.789,1.451l0.385-0.276l-0.033,1.467l0.365,0.766l-0.018,0.663
		l-0.376-0.008c-0.481,1.852-0.948,3.72-1.397,5.604c-0.475,1.38-1.441,3.11-2.905,5.192l0.276,0.384l-0.284-0.005l-1.158,1.017
		l-0.01,0.426c-1.597,0.912-3.732,2.604-6.405,5.07l-0.418-0.387c-0.613,0.585-2.487,1.192-5.623,1.82l-0.015,0.662l-7.1-0.151
		l-1.153,0.78l-1.071-0.828l-0.764,0.362l-0.424-0.009c-1.266-0.027-1.858-0.293-1.783-0.796c-0.379-0.103-0.991-0.116-1.849-0.04
		l-0.412-0.671l-0.378-0.009l-0.385,0.371c-1.202-0.025-2.183-0.567-2.948-1.625l0.473,0.01c0.837-0.834,1.562-1.434,2.168-1.8
		l0.373,0.387l0.395-0.75l1.434,1.499c0.668-0.301,1.676-0.769,3.014-1.403c-0.211-0.478-0.549-0.879-1.016-1.206l-0.758-0.016
		l0.368,0.434l-0.395,0.75l-0.804-0.018l0.036-1.467l-0.473-0.294l-0.577,0.556l-1.849-0.041l0.022-1.04l0.657,0.391l0.395-0.749
		l0.007-0.378c-0.528-0.327-0.994-0.826-1.387-1.497l-1.192,0.353l-0.013,0.663l1.167,0.83l-0.446,0.747l-0.006,0.38l-1.043-0.023
		l-0.816,0.693l-0.747-0.443l0.012-0.663l0.758,0.017l-0.374-0.386l1.203-0.731l-0.706-0.252l-1.617,0.202l0.374,0.386l-0.736,1.121
		l0.697,0.725l-0.017,0.757l1.125,0.403l-0.005,0.379l-0.396,0.703l-1.844-0.041c-0.362-0.733-1.224-1.24-2.572-1.522l0.395-0.75
		l0.284,0.007l0.433-0.417l-1.474,0.394c-0.554-0.769-1.28-1.4-2.185-1.893l1.425-0.348l-1.038-0.022
		c-0.428-0.673-1.414-1.83-2.956-3.472l0.014-0.663l-0.759-0.016l0.404-1.176c-0.303-0.636-0.899-1.486-1.789-2.547l0.717-0.363
		l-0.428-0.009l-0.265-0.812l0.201-0.469c-0.336-2.217-0.494-3.544-0.485-3.987l0.367,0.387l0.019-0.757l-0.368-0.386l0.378,0.007
		l0.016-0.71l0.716-0.221l-0.009,0.237L464.159,49.816z M463.045,35.541l0.623-0.365l-0.279-0.291l-0.342,0.608L463.045,35.541z
		 M463.947,41.952l-0.725,0.694l0.285,0.006L463.947,41.952z M463.547,40.807l0.025-1.184l-0.283-0.006l-0.026,1.183L463.547,40.807
		z M463.604,38.156l0.024-1.135l-0.284-0.006l-0.023,1.135L463.604,38.156z M474.063,25.029c-0.208-0.572-0.443-1.445-0.703-2.619
		l-1.143,0.26l-0.702-0.299l0.312-1.177l-0.568-0.107l-0.839-0.585l0.784-1.167l-0.758-0.016l-1.2,0.732l-1.027-0.78l-0.434,0.369
		c0.271,0.604,0.402,1.224,0.388,1.854l-0.237-0.005c-0.945-0.021-2.137,0.475-3.58,1.486l-0.017,0.663l0.74,0.821
		c0.385-0.338,1.012-0.814,1.877-1.428l1.562,0.033l0.641,1.056l-1.06,0.782l-0.426-0.008l-0.418,1.837l0.386-0.371
		c1.04,0.024,1.917,0.516,2.62,1.477l0.38,0.008l0.788-1.404l0.267,0.764c0.392-0.591,0.797-1.103,1.217-1.537l0.37,0.387
		L474.063,25.029z M464.76,39.364l-0.376-0.007l-0.016,0.662L464.76,39.364z M465.657,52.783l-0.772-1.485l-0.378-0.008
		C464.751,51.706,465.132,52.203,465.657,52.783z M465.277,50.549l-0.361-0.72l0.012-0.472l-0.389,0.465L465.277,50.549z
		 M465.72,29.964l-0.751-0.3l-0.016,0.711L465.72,29.964z M465.625,34.46l-0.372-0.34l-0.016,0.806L465.625,34.46z M467.464,17.029
		l-0.722-1.577l-0.284-0.007l-0.83,1.167l0.362,0.765l-0.409,1.459l0.795,0.396C466.796,18.642,467.162,17.907,467.464,17.029z
		 M466.187,28.127l0.015-0.662l-0.424-0.008l-0.019,0.661L466.187,28.127z M467.098,34.16l-0.758-0.016l-0.008,0.332l-0.29,0.467
		l0.283,0.006L467.098,34.16z M471.286,33.113l-2.956-1.152l-1.579,0.676l-0.016,0.758l0.75,0.394l-0.009,0.379l0.806,0.018
		l0.412-1.506l0.285,0.006l-0.018,0.757l0.385-0.37l0.458,0.767l0.699,0.394L471.286,33.113z M468.398,28.602l-0.367-0.435
		l0.38,0.009l-0.369-0.387l-0.43-0.009l0.419,0.388l-0.433,0.417l0.415,0.387L468.398,28.602z M470.193,31.243l0.207-0.989
		l-0.161-1.234l-0.427-0.009c-0.514,0.432-0.87,0.913-1.071,1.444l0.663,0.016l0.014-0.71L470.193,31.243z M470.013,57.325
		l0.005-0.284c-0.189,0.029-0.463,0.117-0.811,0.268L470.013,57.325z M470.46,54.021l-0.757-0.017l-0.44,0.702l0.794,0.395
		L470.46,54.021z M471.462,58.113l0.017-0.757c-0.48,0.368-0.849,0.614-1.102,0.734L471.462,58.113z M471.891,55.898
		c-0.245-0.51-0.724-0.898-1.443-1.167l0.638,1.149L471.891,55.898z M471.085,24.965l-0.018,0.664l-0.38-0.009L471.085,24.965z
		 M473.957,30.141l0.012-0.663l-0.74-0.773l-0.389,0.371l-0.377-0.008l-0.36-0.813l0.384-0.37l1.515,0.032l0.042-1.846
		c-0.771,0.583-1.786,1.572-3.048,2.965l2.194,1.515L473.957,30.141z M472.801,30.92l-0.562-0.202l-0.904,0.17l0.687,1.151
		l0.482-0.463L472.801,30.92z M472.061,30.1l0.009-0.284l-0.428-0.01C471.673,29.872,471.812,29.97,472.061,30.1z M472.565,24.192
		l-0.812,0.409l0.432-0.417L472.565,24.192z M472.739,33.902l-0.374-0.388l-0.385,0.371l0.368,0.387L472.739,33.902z M473.679,58.54
		c-0.287,0.121-0.656,0.381-1.107,0.782l0.374,0.291C473.14,59.397,473.384,59.039,473.679,58.54z M474.082,57.412l-0.398,0.75
		l0.375,0.386L474.082,57.412z M474.816,40.668l-0.367-0.433l-0.405,1.174L474.816,40.668z M499.742,44.185l-0.751-0.394
		c0.038-1.83,0.159-3.059,0.364-3.687c-0.238-0.698-0.445-1.477-0.613-2.333l0.393-0.653l-0.348-1.476l0.395-0.797l-0.363-0.764
		l0.398-0.749l-0.374-0.292l0.033-1.562l-0.37-0.386l0.392-0.701l1.13,0.307l0.019-0.663l-1.511-0.41l0.766-0.362l-1.064-1.112
		l0.735-1.122l-1.797-2.31l0.396-0.749l-0.389,0.37c-0.643-0.96-1.02-1.835-1.125-2.628c-0.933-0.714-1.394-1.465-1.375-2.253
		l-1.812-1.507l-1.198,0.637l-0.366-0.671c-0.813-0.363-2.029-0.91-3.654-1.639c-0.19,0.027-0.587,0.097-1.188,0.211
		c-0.476,0.115-0.872,0.17-1.188,0.163l-0.235-0.004l-0.368-0.435l-0.02,0.804c-0.73,0.206-1.705,0.683-2.918,1.43
		c-1.215,0.748-2.142,1.225-2.775,1.432c-0.02,0.79-0.097,1.529-0.237,2.22l-1.674,0.675l0.187,0.099
		c-0.338,1.098-0.799,2.696-1.381,4.799l0.297,1.852l-0.348,0.656c0.205,0.668,0.293,1.68,0.267,3.036l-0.349,0.751l-0.026,1.184
		l0.789,0.679l-0.198,0.469l0.175,0.715c-0.197,0.374-0.368,0.986-0.51,1.834l0.747,0.395c-0.353,0.214-0.85,0.55-1.489,1.01
		l0.685,1.198l-0.545,1.029c0.109,0.855,0.269,1.505,0.48,1.952c-0.049,2.272,0.014,3.804,0.186,4.597l0.478-0.085l-0.064,2.982
		c0.767,0.962,1.999,2.346,3.698,4.15c0.3,0.669,0.779,1.169,1.436,1.498l0.38,0.009c1.12,0.528,2.844,1.213,5.163,2.051
		c0.484-0.464,0.979-0.847,1.491-1.152l0.741,0.821c1.539-1.071,2.919-2.178,4.143-3.319l0.415,0.387
		c0.667,0.013,1.292-0.572,1.885-1.758c0.4-0.875,0.794-1.751,1.192-2.627l0.009-0.378l0.764-0.362l-0.545-1.006l0.61-2.022
		l0.337-0.276l0.757,0.016l-0.746-0.396l0.016-0.804l0.368,0.434l0.774-0.789l0.05-2.224L499.742,44.185z M478.785,63.146
		l0.382,0.009l-0.32-2.659l-1.421-0.031l-0.45,1.081l-0.093-0.097l-0.287,0.088l0.362,0.765l1.111-1.018l0.362,0.765l-0.663-0.013
		l0.08,0.758l-0.102,0.329l0.662,0.015l0.015-0.805l0.38,0.009L478.785,63.146z M480.234,64.219l-1.084-0.308l-0.007,0.284
		L480.234,64.219z M480.224,64.598l-0.294,0.419l0.285,0.007L480.224,64.598z M480.19,66.159l0.378,0.009l-0.185-0.194
		L480.19,66.159z M482.533,65.073l-0.367-0.434l-0.768,0.411L482.533,65.073z M484.67,69.286l-0.731-1.2
		c-0.643,0.459-1.144,0.938-1.499,1.435l-0.38-0.007l-0.015,0.756l1.041,0.023l0.009-0.379l1.196-0.637l0.281,0.196L484.67,69.286z
		 M484.758,65.122l0.01-0.426l-0.758-0.017L484,65.104L484.758,65.122z M484.733,66.256l-0.371-0.386l-0.016,0.757l0.379,0.007
		L484.733,66.256z M486.546,67.763l-0.358-0.812l-0.758-0.016l0.353,1.19L486.546,67.763z M486.887,69.616l-0.742-0.726
		l-0.395,0.701L486.887,69.616z M493.211,68.284c-0.466-0.324-0.931-0.729-1.394-1.213l0.663,0.014
		c-0.375-0.133-0.988-0.241-1.841-0.323l0.365,0.719l-0.377-0.009l-1.03-0.732l-1.188,0.259l0.362,0.812l-1.056,0.734l0.005-0.378
		l-0.802-0.018l-0.015,0.757l0.788,0.727l0.289-0.278l0.374,0.292l-0.011,0.379c0.439,0.23,0.917,0.634,1.442,1.214l0.04-1.845
		l-0.29,0.277l-0.79-0.727l-0.085-0.38l0.479-0.369l0.712,0.016l-0.016,0.756l1.545,0.743l0.763-0.267l0.27,0.668l0.039-1.846
		L493.211,68.284z M488.032,66.99l0.005-0.284l-0.795-0.396L488.032,66.99z M490.305,64.813l-0.85-0.207l-1.374,0.16l1.113,0.829
		L490.305,64.813z M496.559,18.03l-0.419-0.387l-0.013,0.757L496.559,18.03z M499.803,41.204l-0.38-0.009l0.374,0.387
		L499.803,41.204z M499.827,40.115l-0.377-0.008l-0.016,0.662l0.377,0.009L499.827,40.115z M499.946,34.484l0.017-0.758
		l-0.378-0.008l-0.019,0.757L499.946,34.484z M500.959,38.198l-0.295,0.373l0.278,0.384L500.959,38.198z M501.564,65.054l0.01-0.378
		l-0.806-0.017l-0.007,0.379L501.564,65.054z M506.016,9.616l-0.038,1.847l-0.66-0.015l0.015-0.709l-0.829,1.07
		c-0.462-0.513-1.324-0.785-2.587-0.812c0.704-0.458,1.204-0.874,1.497-1.246l-0.281-0.196l1.068-1.161l0.358,0.812l0.798,0.396
		L506.016,9.616z M502.985,65.084l0.01-0.38l-0.756-0.016l-0.011,0.38L502.985,65.084z M503.598,36.408
		c-0.047-0.664-0.134-1.154-0.251-1.473l-0.48,0.321L503.598,36.408z M505.106,52.158l0.05-2.223
		c-0.042,0.503-0.154,1.243-0.33,2.217L505.106,52.158z M506.146,21.266l0.018-0.806l-1.024-0.779
		C505.321,20.065,505.658,20.592,506.146,21.266z M506.024,46.923l-0.424-0.01l-0.405,1.177l0.379,0.007L506.024,46.923z
		 M506.318,33.199l0.043-1.939l-0.427-0.01l-0.04,1.941L506.318,33.199z M506.651,35.337l0.006-0.331l-0.377-0.009l-0.009,0.332
		L506.651,35.337z M508.139,18.941l-0.751-0.3l0.742,0.725L508.139,18.941z M508.881,17.537l-0.696-0.819l-0.396,0.796l-0.006,0.379
		l0.386-0.371L508.881,17.537z M508.849,18.957l0.005-0.284l-0.43,0.274l-0.01,0.425L508.849,18.957z M510.067,48.192l-0.313-0.764
		l0.193-0.138l-0.183-0.287l-0.405,1.175L510.067,48.192z M510.047,49.233l-0.324-0.385l-0.007,0.378L510.047,49.233z
		 M511.721,41.836l0.016-0.805l-1.467-2.256c-0.021,1.01,0.203,2.276,0.678,3.802L511.721,41.836z M511.594,47.847l-1.136-0.025
		l0.369,0.387L511.594,47.847z M511.681,43.683l-1.126-0.45l-0.026,1.183l0.371,0.387l0.202-0.565L511.681,43.683z"/>
	<path fill="#182987" d="M534.158,41.516l-0.329-0.021v-0.048l-0.403,0.402l0.684,0.423l0.38,0.023l1.181-0.684l1.482-0.191
		l0.737,0.331c0.519-0.694,0.927-1.413,1.229-2.152l-1.274-3.116l-0.411,0.497c-0.457-0.819-0.659-1.576-0.617-2.268
		c0.013-0.22,0.087-0.864,0.217-1.932c0.411-0.478,1.071-1.181,1.984-2.103l0.988,0.821l0.877-1.13l-0.752-0.807
		c0.867-0.23,1.611-0.277,2.236-0.144l0.828-0.328l-0.587-0.464l-0.497-1.169c1.006-0.885,1.643-1.714,1.912-2.488
		c0.478-0.539,1.05-0.865,1.722-0.982l0.047-0.755c1.392-1.525,2.785-3.05,4.177-4.575c2.142-2.331,3.541-3.492,4.204-3.482
		l0.049-0.755c2.618-2.427,4.215-4.208,4.792-5.342l0.356,0.401l0.378,0.024l0.402-0.354l-0.363-0.308l0.45-1.11l0.71,0.045
		c0.348-0.516,0.914-1.238,1.7-2.169c0.892,0.436,1.947,0.723,3.173,0.863c0.849,0.086,1.981,0.126,3.404,0.121
		c1.675,0.01,2.781,0.033,3.316,0.067l0.401,0.405c0.49-0.223,1.362-0.294,2.62-0.215l-0.097,0.089l0.866,1.288
		c0.158,0.958,0.245,1.39,0.25,1.295c-0.075,1.198-0.76,2.261-2.05,3.191l-0.049,0.756c-0.877,0.325-1.785,0.757-2.738,1.297
		l-0.851,1.464l-0.025,0.426c-0.712,1.251-2.576,2.968-5.592,5.149l0.052,0.715l0.349-0.262l-0.361,0.451l0.013-0.189
		c-0.54,0.534-1.093,1.275-1.656,2.219l-0.781-0.428l-0.023,0.378c-0.384,0.608-0.896,1.191-1.532,1.752l-0.048,0.756
		c-1.005,0.38-2.358,1.779-4.061,4.202l-0.424-0.027c-0.202,0.177-0.582,0.675-1.137,1.495l-0.041,0.661l0.657,0.041
		c0.117,0.704,0.344,1.367,0.685,1.987l-0.448,0.304c0.545,0.919,1.002,1.945,1.374,3.074l0.376,0.024
		c0.23,0.836,0.778,2.009,1.628,3.518l1.046,0.729l0.379,0.025c0.153,1.559,0.822,2.739,2.003,3.54
		c1.205,2.448,2.364,4.133,3.478,5.057l-0.426,0.731c0.445,0.946,1.102,2.363,1.963,4.251l-0.427,0.731l0.336,0.685l0.395-0.259
		c0.845,1.128,1.774,2.72,2.785,4.775c1.319,2.644,2.163,4.279,2.533,4.902l-0.304,0.36c0.478,0.884,1.037,1.79,1.677,2.714
		l-0.823,0.233l-0.039,0.662c-0.033,0.567,0.069,1.126,0.319,1.68l-1.249,1.011l-1.016-0.444c-2.099,0.217-4.334,0.077-6.707-0.421
		l-0.78,0.331c-0.938-0.154-2.152-0.452-3.646-0.895l0.009-0.094l-0.779,0.33c-0.442-0.502-1.026-1.028-1.75-1.58l0.218-0.46
		c-0.247-0.553-0.675-1.039-1.282-1.457l-0.216-2.622l-1.035-0.872c-0.27-0.712-0.861-1.62-1.773-2.72l0.475-0.729
		c-0.513-0.411-1.119-1.304-1.824-2.676c-0.504-1.043-1.009-2.071-1.512-3.083c0.043-0.692-0.043-1.346-0.259-1.96l-0.424-0.027
		l-0.662-1.512l0.376,0.024c-0.441-1.546-1.69-3.236-3.759-5.075l0.307-0.36l-0.283-0.018c-0.102-0.417-0.186-1.04-0.262-1.867
		l-0.377-0.023l0.401-0.354c-0.352-0.402-0.602-0.971-0.747-1.707l0.134-0.561l-1.44-0.518c-0.771,0.71-1.443,1.553-2.008,2.529
		l-0.355-0.401l-0.047,0.755l-0.378-0.024l-0.4-0.404l-1.205,1.062l0.228-0.65l-0.156-0.484l-1.361,1.243l-0.176-0.202l-0.85,1.417
		l-0.66-0.8l-0.021,0.377l-0.758-0.047l-0.071,1.133l0.73,0.474c-0.679,1.19-1.227,2.373-1.649,3.547l0.284,0.018l0.284,1.489
		l-0.712,0.761l0.261,0.395l-0.048,0.757l-0.281-0.018l-0.563,1.434l0.661,1.512l-0.704,11.195c-0.036,0.029-0.515,0.38-1.443,1.047
		c-0.296,0.204-0.95,0.273-1.958,0.209c-2.678-0.168-4.177-0.389-4.513-0.664l-0.305,0.36l-0.333-0.732l-0.425-0.027l-0.354-0.401
		l-0.78,0.33l-0.612-0.796l-1.231,0.68c-0.484-0.82-1.06-1.49-1.723-2.005c0.107-0.689,0.276-1.294,0.497-1.819l0.257,0.396
		l0.451-0.352l-0.659-0.848l0.212-0.367l-0.169-0.294c0.766-0.646,1.209-1.883,1.324-3.71l-0.554-0.225l-0.533,0.155l-0.689-1.133
		l0.429-0.732l0.006-0.854c-0.011-0.885,0.271-1.579,0.843-2.08l-0.609-0.845l0.016-0.283l0.377,0.024
		c0.036-1.072,0.234-2.673,0.588-4.8l-0.564-1.601l0.068-1.087c0.582-0.69,1.101-1.163,1.561-1.418l-0.803-0.051l-0.19-1.482
		l0.781-1.135l1.107,0.496l1.131-0.64l-0.661-0.8l0.475-0.777c0.766-0.078,1.372-0.167,1.82-0.264l0.025-0.378l-1.095-0.733
		l0.809-0.755l-0.683-1.181c0.02-0.314,0.143-0.567,0.379-0.759c0.23-0.191,0.506-0.276,0.821-0.257l0.78,0.429l0.046-0.756
		c0.716-0.809,1.249-1.516,1.605-2.128l-0.4-0.405l-0.049,0.756l-1.017-0.444l-0.4,0.354l0.049-0.754l0.729-1.045
		c0.397,0.184,1.039,0.35,1.913,0.5l0.023-0.378l-1.108-1.208l-0.048,0.756l-0.759-0.047l-0.613-0.797l0.052-0.802l1.368,0.891
		l1.232-0.729l-0.364-0.306l0.999,0.726l-0.05,0.803l1.134,0.831l0.378,0.024l-1.249,1.012l-0.091,1.417
		c0.534,0.54,1.013,1.219,1.439,2.035l0.467-1.394l-0.393,0.165l0.013-0.189c0.318-0.485,0.865-1.463,1.654-2.931
		c0.205,0.772,0.529,1.409,0.971,1.911l-0.042,0.661l-1.137,0.735l-0.044,0.756l0.375,0.023l0.309,1.111l-0.851,1.464l0.379,0.023
		c-0.357,0.137-0.77,0.379-1.232,0.729L534.158,41.516z M522.265,69.981l-0.473,0.682l-0.047-0.715l0.117-0.372L522.265,69.981z
		 M540.896,11.35l-0.353-0.4l-0.283-0.019l-0.226,0.556l0.176,0.201l-1.599,0.563l0.325,0.826l-0.658-0.042l-0.945,2.17l0.754,0.806
		l-1.256,1.107l-0.325-0.826l-0.755-0.049l-0.382,0.784c0.118,0.608,0.316,1.237,0.589,1.886l1.209-1.111l0.308,0.399l-0.781,1.137
		L536.652,20l0.724-0.239l-0.042,0.71l-0.807,1.466l-0.641-0.325l-0.112,0.277c-0.046,0.725,0.419,1.118,1.398,1.179l-1.248,0.965
		l0.444,0.455l-0.754-0.048l-0.051,0.756c-0.568,0.501-1.214,0.95-1.933,1.348l-0.356-0.354l-1.131,0.641l-0.357-0.402l-0.4,0.354
		c-0.052,0.819,0.39,1.369,1.32,1.647l0.476-0.775l0.753,0.046l-0.071,1.182c-0.896,0.165-1.678,0.733-2.337,1.703l-0.731-0.426
		l-0.024,0.378l-1.865,0.262l0.024-0.378l-1.161-0.451c-0.906,0.385-1.585,1.339-2.026,2.858l-0.378-0.023l-0.068,1.086l0.754,0.047
		c-0.3,0.772-0.729,1.519-1.28,2.244l0.292,1.44l-0.425,0.685l-0.756-0.76l0.069-1.133l0.413,0.216l0.39-0.166l-0.56-0.13
		l-0.527,0.062l-0.326-0.828l0.396-0.259l-0.33-0.78c0.107-0.213,0.171-0.479,0.19-0.794c0.011-0.188-0.057-0.825-0.21-1.91
		l0.233-0.697l-0.361-0.307l0.854-1.512l-0.261-1.865l0.385-0.119l0.089-1.369l0.258,0.395l-0.19-1.481l0.755-0.711l-0.662-0.753
		l0.113-1.843c0.14-0.213,0.525-0.567,1.161-1.065c0.063-1.008-0.265-1.645-0.971-1.912l-0.091-1.57l0.496-0.348l-0.265-0.301
		c-0.018-0.76,0.097-1.558,0.338-2.398c-0.237-0.742-0.516-1.344-0.835-1.807c0.03-0.44,0.422-1.16,1.182-2.155l-0.572-1.506
		c1.6-0.28,3.011-1.06,4.229-2.342l0.352,0.402l0.027-0.379l0.801,0.051l0.638,0.419l-0.326,0.642l0.588,1.225l1.233-0.729
		l-0.337-0.685c0.366-0.324,0.861-0.673,1.489-1.045l0.352,0.403l0.477-0.777l0.35,0.45l0.406-0.401l-1.114-1.114l-0.398,0.259
		l0.068-1.086l0.776,0.476l1.132,0.071l0.292,1.441l0.046-0.755l0.332,0.021l0.419-0.639c0.751,0.143,1.387,0.311,1.912,0.5
		l-0.092,1.465l-1.203,0.303c1.24,0.363,2.059,1.157,2.457,2.383l-1.176,0.589l0.303,1.207l0.354,0.401l1.155-1.019
		c0.272,0.713,0.366,1.209,0.287,1.489l-0.379-0.024L540.896,11.35z M525.418,44l-0.379-0.023l-0.401,0.354L525.418,44z
		 M525.083,31.222l-0.357-0.307l-0.02,0.284L525.083,31.222z M526.103,44.422l0.023-0.377L525.418,44l-0.023,0.377L526.103,44.422z
		 M525.881,66.035l-0.38-0.025l-0.024,0.427L525.881,66.035z M527.202,22.439l-0.757-0.759l-0.378-0.025l0.71,0.758L527.202,22.439z
		 M527.562,33.323l-0.425,0.685l-0.66-0.042l-0.383-0.736l0.023-0.378l1.113-0.309L527.562,33.323z M527.231,26.521l-0.643-1.131
		l-0.376-0.024l0.733,1.137L527.231,26.521z M528.583,46.429l-1.42-0.8l-0.754-0.048l-0.09,1.464l0.375,0.023l-0.048,0.756
		C527.303,47.456,527.947,46.99,528.583,46.429z M528.085,37.055l-1.091-0.733l0.45-1.157l0.716,0.709L528.085,37.055z
		 M527.428,41.472l-0.379-0.025l0.024-0.377l0.378,0.023L527.428,41.472z M527.88,25.281l-0.178-0.203l-0.4,0.354l0.353,0.403
		L527.88,25.281z M527.967,45.679l0.025-0.378l-0.4-0.404l-0.025,0.377L527.967,45.679z M527.957,14.994l0.022-0.377l-0.282-0.019
		L527.957,14.994z M528.979,29.619l0.048-0.756l-0.76-0.712l-0.419,0.638l0.302,1.205L528.979,29.619z M528.252,41.144l0.043-0.661
		l-0.426-0.027C527.919,40.681,528.049,40.911,528.252,41.144z M529.275,60.321l0.045-0.756l-0.401,0.354l-0.023,0.377
		L529.275,60.321z M531.024,67.924l0.024-0.378l-0.38-0.023l-0.022,0.377L531.024,67.924z M532.313,41.401l-0.783-0.335l-0.02,0.284
		L532.313,41.401z M532.304,70.945l0.021-0.33l-0.35,0.31L532.304,70.945z M534.1,31.126l-0.439,1.016
		c-0.503-0.569-0.861-1.192-1.068-1.87l0.451-0.397L534.1,31.126z M535.039,10.223l0.069-1.085l-1.133-0.831L533.57,8.66
		l-0.231-0.821c-0.053,0.85,0.111,1.747,0.495,2.688L535.039,10.223z M534.103,25.103l0.066-1.086l-0.754-0.048l-0.048,0.709
		L534.103,25.103z M535.501,32.258l-0.856,1.512l-0.66-0.801l1.165-1.113L535.501,32.258z M534.927,66.226l0.021-0.377l-0.473-0.03
		l-0.022,0.377L534.927,66.226z M535.181,13.979l-0.329-0.779l-0.377-0.025C534.644,13.533,534.876,13.802,535.181,13.979z
		 M536.243,8.45l0.024-0.426l-0.329-0.02l-0.026,0.425L536.243,8.45z M543.585,4.027l-0.659-0.041l-0.203,0.177l0.153,0.625
		l-1.108-1.255l0.429-0.732l0.775,0.429l-0.206,0.271l0.183,0.106l0.309-0.36L543.585,4.027z M543.373,7.429l-0.401,0.354
		l-0.283-0.018l0.329-0.737L543.373,7.429z M549.668,26.464l-0.261-0.396l0.305-0.36c-0.456-0.786-0.901-1.432-1.348-1.934
		l0.403-0.354l-1.629,1.036l-0.375,1.445l-0.402,0.354l0.59,1.128l0.448-0.303l0.023-0.378l0.377,0.023l1.517,0.808L549.668,26.464z
		 M549.742,38.798l0.285,0.019l0.402,0.405l-0.427-0.028l-0.311-0.352c-0.367,0.327-0.66,0.654-0.867,0.989l-1.445-0.375
		l-0.02,0.284L547,39.432l-0.378-0.023l-0.042,0.662c0.357,0.844,0.789,1.52,1.295,2.025l0.054-0.802l0.519,0.032
		c0.264,0.303,0.715,0.693,1.347,1.177l1.464,0.092l-0.062-0.479l0.104-0.182l0.758,0.047l0.165-2.645l-0.632-1.985l-0.433,0.78
		l-0.375-0.023C550.425,38.241,550.079,38.473,549.742,38.798z M550.684,28.377l-0.354-0.402l-0.756-0.046l-0.901,1.507
		l-0.023,0.378C549.457,29.518,550.137,29.039,550.684,28.377z M554.626,18.523l-1.466-0.092l-0.047,0.755
		c-0.404,0.354-0.912,0.939-1.533,1.753l-0.408-0.31c-0.621,0.813-1.132,1.399-1.533,1.752l0.237,0.774l1.133,0.072
		c0.646-0.718,1.338-1.923,2.076-3.616l0.379,0.022l0.752,0.808C554.37,20.042,554.504,19.402,554.626,18.523z M550.382,44.483
		l-0.26-0.396l-0.024,0.377L550.382,44.483z M559.516,1.142l-0.438,0.874c-1.652,1.129-2.695,1.68-3.138,1.652l-0.401,0.354
		l-0.283-0.017l-0.402,0.353l-0.778-0.428l-0.76-0.047l-0.352-0.402l-0.023,0.378l-0.262-0.395l-1.226,0.681l0.023-0.378
		l1.227-0.634l0.28,0.017l1.231-1.44l0.802,0.051c0.043-0.662,0.158-1.129,0.352-1.401c0.188-0.272,0.582-0.391,1.183-0.353
		l0.401,0.405l0.403-0.354l0.352,0.402l0.379,0.022l0.483-0.158l-0.177-0.2l0.78,0.428L559.516,1.142z M561.566,22.754l-1.107-1.255
		l-1.084-0.068l-0.404,0.401l-1.515-0.807l-0.355-0.401l-1.039-0.065l-0.447,1.062l-0.397-0.453
		c-0.578,0.153-1.202,0.257-1.868,0.309l-0.025,0.378l-0.353-0.402l-0.83,1.087c0.222,0.52,0.424,1.275,0.617,2.268l1.156,0.451
		l0.027-0.377l0.305-0.36l0.38,0.023c0.453,0.313,1.169,0.723,2.151,1.227l1.249-1.013l0.376,0.024l0.735,0.425l0.044-0.754
		l0.309,0.398l0.757,0.047L561.566,22.754z M567.631,61.979l0.025-0.377l-1.037-0.824l-0.429,0.731l-0.379-0.024l-0.329-0.78
		l0.555,0.225l0.203-0.177l-0.358-0.355l0.225-0.554l-0.128-0.956l0.429-0.781l-1.166-0.357l-1.106,1.022l0.188,1.529l0.38,0.024
		l-0.401,0.306l-0.972-1.152l-0.824,0.328l-0.97-1.2l-0.095,1.511l-1.181-0.074l-0.331-0.78l0.402-0.354l-0.546-1.884l0.307-0.36
		l0.052-0.803l1.059,1.254l-0.402,0.354l0.789,0.334l0.322-0.644l0.473,0.03l0.075-1.181l-0.499,0.396l0.025-0.426l-0.62-1.461
		l-0.375-0.023l-0.403,0.354l-0.024,0.379l-0.561-1.6l-0.855,0.751l0.377,0.784l-0.802-0.051l-0.64-1.89
		c-0.337,0.295-0.846,0.626-1.534,0.993l-0.35-0.448c-0.534,0.946-1.189,1.522-1.959,1.726c0.732,0.9,1.385,2.333,1.959,4.297
		l0.473-1.488l-0.178-0.202l0.227-0.603l0.38,0.024l-0.212,0.367l0.443,1.214l-0.256,0.269l0.188,0.819
		c0.749,0.141,1.388,0.308,1.913,0.499l-0.351,0.263l0.327,0.115l-0.497,1.108l-0.731-0.426l-0.806,0.756l0.376,0.023
		c0.319,0.938,1.119,2.078,2.392,3.423c-0.019,0.316,0.081,0.598,0.304,0.849c0.222,0.251,0.49,0.387,0.804,0.407l0.779-0.332
		l-0.419-0.832l0.779-0.33l1.105,1.254c0.121-0.434,0.383-1.066,0.784-1.895l-0.594-1.127l-1.016,0.314l-0.452-0.407l1.517-0.664
		l0.352,0.402l0.092-1.464l-0.375-0.023l-0.4,0.354l-1.065-0.447l0.662,0.042l0.047-0.755l-0.687,0.336l0.027-0.378l-0.452-0.406
		l0.8-0.661c0.813,0.652,1.516,1.312,2.106,1.982l-0.402,0.353l1.937,0.123L567.631,61.979z M554.708,48.074
		c-0.048-0.286-0.157-0.531-0.333-0.731l-0.047,0.708L554.708,48.074z M557.186,50.175c-0.765-0.458-1.457-1.261-2.078-2.407
		l-0.07,1.086c0.466,0.631,0.932,1.055,1.39,1.274L557.186,50.175z M558.63,56.574l-1.081-0.875l-0.71-0.043l0.022-0.377
		l1.506-0.571L558.63,56.574z M558.735,60.897l0.017-0.238l-0.759-0.046L558.735,60.897z M558.812,41.599l0.028-0.377l-0.38-0.024
		l-0.025,0.379L558.812,41.599z M558.844,59.197l-0.378-0.025l0.023-0.377l0.38,0.023L558.844,59.197z M560.093,56.666l-1.108,0.309
		l0.048-0.755L560.093,56.666z M560.521,61.911l-0.776,0.33l-0.264-0.396l0.332-0.737l0.756,0.048L560.521,61.911z M561.259,63.047
		l-1.141-0.782l1.207-0.304L561.259,63.047z M561.062,59.335l-0.352-0.401l-0.049,0.755L561.062,59.335z M562.392,9.671
		c-0.757,0.49-1.311,0.945-1.653,1.366l0.707,0.851C561.885,10.935,562.198,10.197,562.392,9.671z M562.361,57.568l-0.474-0.029
		l-0.016,0.283L562.361,57.568z M563.43,57.92l0.065-1.039l-0.849,0.706l0.357,0.306L563.43,57.92z M564.251,8.745l0.022-0.379
		l-0.352-0.401l-0.4,0.354L564.251,8.745z M564.559,56.569l0.049-0.803l-0.266-0.301l-0.42,0.637l-0.024,0.425L564.559,56.569z
		 M564.983,8.411l-0.285-0.017l-0.022,0.377L564.983,8.411z M571.713,9.215l-0.352-0.403l0.023-0.377l-0.781,0.33L571.713,9.215z
		 M572.759,9.944l-0.69-0.328l-0.395,0.26l-0.024,0.378L572.759,9.944z"/>
	<path fill="#182987" d="M633.818,17.717c-0.332,0.44-0.732,0.776-1.202,1.011c-0.138,1.223-0.575,2.031-1.316,2.426
		c-0.192,1.725-1.1,2.896-2.721,3.509c-1.37,2.897-2.421,4.655-3.156,5.272l-0.375-0.042l-0.088,0.8
		c-0.789,1.119-1.58,2.237-2.369,3.356c-1.113,1.465-2.072,2.39-2.88,2.778l0.053,0.386c-1.58,2.239-2.938,4.2-4.076,5.884
		c-0.418,0.049-0.81,0.149-1.177,0.298c-0.027,0.251,0.198,0.529,0.671,0.836l-1.035,0.742l-0.539,0.132l-0.141,1.27
		c-0.221,2.039-1.396,3.607-3.518,4.707c-0.191,1.153-0.595,2.505-1.209,4.057l-0.157,1.412c0.192,0.56,0.274,0.967,0.25,1.217
		c-0.077,0.659-0.314,1.593-0.718,2.802c-0.403,1.21-0.638,2.143-0.713,2.802l-0.02,0.188l0.424,0.047l-0.467,0.33
		c-0.022,0.22,0.049,0.848,0.222,1.882c-0.136,0.365-0.319,0.742-0.554,1.129l-0.073,0.659c-0.172,1.568-0.134,2.51,0.118,2.823
		c0.017-0.156,0.036-0.313,0.051-0.471l0.375,0.042l-0.426,0.429c-0.002,0.317,0.071,0.93,0.225,1.834
		c0.138,0.777,0.184,1.386,0.135,1.824l-0.404,3.669c-0.387,0.593-1.081,1.294-2.091,2.104c-0.254-0.282-0.743-0.59-1.469-0.924
		c-0.424,0.08-1.062,0.263-1.919,0.55l-0.332-0.418c-0.229,0.039-0.462,0.14-0.703,0.303c-0.226-0.533-0.589-0.826-1.094-0.882
		c-0.19,0.295-0.468,0.521-0.834,0.67c-0.201-0.214-0.423-0.365-0.664-0.455l0.371-0.34l-0.403-0.236l-0.68,0.117l-3.214-1.927
		l-0.085,0.752l-0.334-0.417l1.334-1.329l0.204-1.835c0.076-0.689,0.05-1.725-0.085-3.104c-0.134-1.38-0.163-2.415-0.089-3.105
		c0.037-0.312,0.086-0.609,0.148-0.888c-0.187-0.623-0.255-1.154-0.206-1.594l0.818-7.434c0.624-0.47,1.068-0.898,1.333-1.281
		c-0.184-0.337-0.398-0.853-0.635-1.547c0.333-0.47,0.545-1.098,0.635-1.882c0.164-1.505-0.211-2.547-1.133-3.125
		c0.083-0.783-0.301-2.318-1.16-4.604c-0.651-1.564-1.289-3.143-1.905-4.734c-0.309-0.351-0.65-0.881-1.015-1.589l0.165-1.504
		c-0.165-0.526-0.58-1.064-1.249-1.614c0.051-0.186,0.174-0.425,0.365-0.723l-1.299-1.618l0.088-0.8
		c-0.705-1.094-1.221-2.023-1.547-2.79l0.241-2.212c-0.723-0.08-1.435-1.523-2.141-4.332c-0.562-0.665-1.12-2.345-1.681-5.043
		c0.051-0.184,0.175-0.44,0.371-0.769l0.072-0.659l-0.737,0.206c-0.398-1.568-1.001-2.874-1.807-3.915
		c0.039-0.376,0-0.953-0.119-1.727c-0.122-0.776-0.142-1.397-0.058-1.864l-0.129-0.538c0.562-0.192,1.921-0.167,4.087,0.07
		l0.085-0.752c0.283,0.286,1.612,0.909,3.981,1.868l-0.375-0.042l-0.046,0.423l0.229,0.502c0.231-0.102,0.49-0.106,0.764-0.012
		l-0.242-0.408c0.091-0.244,0.226-0.595,0.402-1.051c0.267,0.158,0.748,0.273,1.44,0.35c0.655,0.073,1.556,0.109,2.699,0.108
		c0.255,0.282,0.728,0.46,1.42,0.537c0.043,0.734,0.159,1.827,0.353,3.276l0.125-0.272c0.395,0.457,0.786,1.341,1.181,2.655
		c0.476,1.45,0.847,2.395,1.115,2.836l-0.159,1.46l0.336,0.417c0.153,0.62,0.447,1.542,0.885,2.765l0.356,0.229l0.396-0.146
		l1.291,1.666c-0.322,0.06-0.588,0.157-0.794,0.293c0.004,0.255,0.105,0.505,0.298,0.748l-0.062,0.563
		c-0.043,0.409,0.187,0.625,0.692,0.647l-0.245,2.212c0.473,0.306,0.906,0.845,1.3,1.619c-0.135,0.334-0.288,0.587-0.467,0.758
		c0.307,0.383,0.617,1.021,0.933,1.912c0.367,0.137,0.74,0.32,1.13,0.554c0.399-0.178,0.76-0.281,1.079-0.309
		c0.625-1.042,1.248-2.084,1.872-3.127c0.246-0.258,0.4-0.622,0.453-1.092l0.377,0.042c0.689-0.241,1.34-0.52,1.946-0.833
		l-1.033-0.115l0.04-0.376c0.228-0.039,0.462-0.156,0.707-0.351l-0.241-0.407l0.532-0.513c0.188-0.55,0.325-1.218,0.411-2.003
		c0.413-0.873,1.214-1.929,2.398-3.164c1.289-1.92,3.212-4.819,5.768-8.696c0.319-0.028,0.685-0.13,1.08-0.309l2.543,0.709
		c0.005-0.316-0.085-0.692-0.258-1.124l1.175,0.129l0.337,0.418c-0.289,0.032-0.691,0.083-1.208,0.152l1.459,0.162
		c0.219,0.31,0.472,0.48,0.751,0.512c0.442,0.047,1.067-0.025,1.884-0.222l0.33,0.465c0.195-0.042,0.421-0.08,0.68-0.117
		c0.156,0.018,0.404,0.077,0.739,0.178c0.342,0.101,0.605,0.162,0.792,0.183c0.016-0.157,0-0.286-0.053-0.387
		c-0.145-0.143-0.336-0.275-0.576-0.397c0.313,0.034,0.506,0.168,0.576,0.397c0.146,0.111,0.29,0.255,0.43,0.428l2.962,0.327
		C633.447,15.186,633.589,16.073,633.818,17.717z M586.935,11.069l0.043-0.376c-0.746,0.14-1.257,0.45-1.531,0.928
		c0.241,0.662,0.532,1.2,0.869,1.618l0.2-1.834L586.935,11.069z M588.949,13.529c-0.311-0.35-0.643-0.642-0.999-0.871
		c-0.355,0.055-0.62,0.154-0.794,0.292l-0.084,0.753c0.218,0.309,0.614,0.496,1.178,0.558l0.187,0.021L588.949,13.529z
		 M589.878,21.537l0.036-0.377l-0.278-0.031l-0.043,0.377L589.878,21.537z M591.539,28.054l-0.801-0.09
		c0.053,0.387,0.146,0.668,0.286,0.842C591.159,28.473,591.328,28.221,591.539,28.054z M602.334,28.196
		c-0.313-0.065-0.844-0.283-1.599-0.652c-0.842-0.411-1.272-0.695-1.285-0.856l-0.375-0.042c0.036-0.345-0.062-0.61-0.295-0.794
		l-0.782,1.056l-0.139-0.491l0.261-0.638l-0.799-0.089l-0.079,0.753l-0.38-0.042l0.084-0.753c0.422-0.081,1.028-0.251,1.817-0.513
		l-0.188-0.021c0.084-0.753-0.365-1.438-1.346-2.054l-0.699,0.304c-0.335-0.132-0.586-0.287-0.759-0.465l0.078-0.706
		c0.352-0.025,0.632-0.12,0.843-0.288l0.583,0.731l0.076-0.659c0.035-0.345-0.008-1.095-0.134-2.252
		c-0.295,0.063-0.68,0.243-1.156,0.539c-0.037-0.257-0.135-0.491-0.305-0.7l-0.407,0.24c-0.474-0.306-0.681-0.693-0.632-1.164
		l-0.256,0.59l-0.567,0.414c-0.099-0.265-0.328-0.511-0.684-0.741c-0.185,0.265-0.431,0.46-0.731,0.585l-0.421-0.047l0.114,0.679
		l-0.245,0.498l-0.375-0.042c-0.029-0.32-0.124-0.6-0.289-0.841l-0.418,0.335c0.032,0.289,0.114,0.696,0.249,1.218l1.172,0.13
		c0.043-0.377,0.163-0.618,0.367-0.723l0.755,0.083l0.087-0.8l0.376,0.042l0.336,0.418l-0.842,0.718l-0.376-0.042
		c-0.035,0.027-0.072,0.057-0.105,0.083c-0.179,0.171-0.4,0.464-0.667,0.878c0.141,0.174,0.315,0.591,0.528,1.249l-1.208,1.011
		c0.224,0.563,0.314,1.065,0.265,1.505c-0.033,0.282-0.33,0.52-0.89,0.711l0.968,1.154c0.688-0.209,1.34-0.487,1.948-0.832
		l-0.071,0.657c-0.262,0.353-0.526,0.578-0.791,0.675c0.363,0.453,0.363,1.041-0.002,1.762l0.137,0.492l-0.426,0.381l1.18,0.13
		l0.574,0.825l0.418-0.335l0.041-0.376l0.422,0.046c0-0.285,0.127-0.43,0.382-0.434c0.131-0.017,0.361,0.024,0.703,0.125
		c0.044-0.406-0.03-0.891-0.223-1.453l-1.08-0.119c-0.223-0.311-0.303-0.717-0.248-1.218c0.504,0.055,0.907-0.026,1.218-0.246
		l0.578,0.825c0.169-0.108,0.322-0.346,0.456-0.71c0.388,0.233,0.833,0.663,1.335,1.29c0.319-0.314,0.877-0.633,1.679-0.958
		l1.853,0.013L602.334,28.196z M593.857,9.594l-1.416-0.535l0.043-0.377l1.416,0.537L593.857,9.594z M594.146,41.532l0.043-0.377
		l-0.424-0.046l-0.043,0.376L594.146,41.532z M594.647,77.539c-0.237,0.164-0.521,0.276-0.844,0.335l0.045-0.423L594.647,77.539z
		 M595.065,22.395l-0.799,0.341c-0.11-0.138-0.195-0.386-0.252-0.742C594.214,22.206,594.564,22.339,595.065,22.395z
		 M596.164,49.563l0.038-0.329l-0.283-0.032L596.164,49.563z M596.571,60.133l0.03-0.282l-0.41,0.24L596.571,60.133z
		 M597.523,75.237l0.082-0.752l-0.416,0.334L597.523,75.237z M599.075,30.075l-0.333-0.417l-0.417,0.336l0.332,0.417L599.075,30.075
		l-0.113,1.036c0.587-0.412,0.903-0.854,0.955-1.324C599.711,29.924,599.431,30.019,599.075,30.075z M600.798,31.313l0.071-0.659
		l-0.283-0.032l-0.072,0.66L600.798,31.313z M604.997,75.681c0.041-0.377-0.052-0.815-0.282-1.317
		c0.108,0.458,0.062,1.007-0.136,1.652L604.997,75.681z M607.037,74.048l0.038-0.377L606.7,73.63L607.037,74.048z M608.894,43.825
		l-0.755-0.083c-0.13,0.335-0.3,0.569-0.506,0.706l0.425,0.047L608.894,43.825z M610.383,43.703l0.083-0.752l-0.537,0.131
		l-0.64-0.261C609.512,43.101,609.877,43.395,610.383,43.703z M611.946,29.543l0.028-0.283l-0.8-0.088l-0.03,0.282L611.946,29.543z
		 M616.348,40.552c-0.119-0.362-0.341-0.64-0.668-0.835c0.171,0.178,0.27,0.442,0.293,0.793L616.348,40.552z M620.871,12.956
		l-0.336-0.418l0.375,0.042L620.871,12.956z M621.742,25.338l0.073-0.659c-0.367,0.15-0.641,0.342-0.828,0.576L621.742,25.338z
		 M625.27,17.537c-0.207,0.167-0.487,0.264-0.84,0.287l0.08-0.751c-0.496,0.484-1.205,1.278-2.117,2.385
		c0.192,0.245,0.293,0.492,0.295,0.746l0.435-0.047l0.366,0.135l0.078-0.705l-0.375-0.042l0.039-0.376
		c0.28-0.223,0.764-0.297,1.457-0.221C624.83,18.488,625.027,18.018,625.27,17.537z M627.359,18.862
		c-0.054-0.355-0.234-0.867-0.545-1.536c-0.277,0.223-0.669,0.307-1.169,0.252l-0.088,0.8l0.421-0.383
		c0.222,0.311,0.307,0.685,0.259,1.125c-0.111,1.003-1.179,1.631-3.209,1.884c0.356,0.23,0.939,0.549,1.754,0.955
		C626.103,20.899,626.964,19.866,627.359,18.862z M625.039,23.083l0.029-0.283l-0.758-0.464l-0.043,0.376L625.039,23.083z
		 M626.094,13.532l-0.41,0.242l-0.39-0.33l0.038-0.376L626.094,13.532z M626.455,23.62l0.072-0.659l-0.358,0.246L626.455,23.62z
		 M627.604,16.65c-0.129-0.267-0.291-0.524-0.485-0.767l-0.519-0.058c0.101,0.52,0.297,0.907,0.587,1.161L627.604,16.65z
		 M630.986,16.643l-0.34-0.37c-0.527,0.196-0.818,0.528-0.871,0.999l-0.086,0.753l0.339,0.417l-0.047,0.423
		C630.572,18.106,630.909,17.365,630.986,16.643z M632.067,14.191l-0.801-0.089l0.043-0.376L632.067,14.191z"/>
	<path fill="#182987" d="M632.581,60.963l-0.229-0.328l0.312-0.138c-0.402-0.837-0.524-1.706-0.372-2.609l-0.217-0.42l0.544-1.493
		c-0.229-0.903-0.029-2.646,0.603-5.228l-0.326-0.343c0.321-1.129,0.487-1.725,0.496-1.788c0.051-0.281,0.111-0.925,0.187-1.937
		l-0.046-0.009l0.057-0.038c0.028-0.731,0.114-1.325,0.254-1.781l-0.371-0.063l0.311-1.819c0.126-0.747,0.462-1.97,1.007-3.67
		l1.074,0.183c-0.347-0.41-0.729-1.084-1.144-2.019c0.689-0.105,1.362-0.391,2.019-0.856l0.111-0.652l-1.186,0.47l-0.157,0.358
		c-0.275-1.008-0.274-2.32,0-3.938l0.207-1.212l0.884-0.666l-0.183-1.184c0.54-0.9,1.494-2.112,2.876-3.638l0.198-1.167
		c1.94-1.236,4.144-2.989,6.611-5.257c0.789-0.122,1.625-0.604,2.504-1.446l0.309,0.437l0.764-0.253l0.188,0.032
		c0.776,0.132,1.783-0.225,3.016-1.071l0.356,0.157c0.878-0.073,1.528-0.22,1.947-0.435c0.062,0.01,0.805,0.073,2.225,0.187
		c0.825,0.045,1.547,0.232,2.164,0.561l0.482-0.302c0.715,0.123,1.424,0.373,2.129,0.748l1.526-0.507
		c0.798,0.391,1.556,0.648,2.27,0.771l0.342-0.326c1.229,0.882,2.448,1.218,3.67,1.011l-0.111,0.652l0.794-0.152l0.854,0.626
		l0.347,1.067l-2.259,2.256l1.512,2.13l0.435-0.309l0.375,0.064l-0.129-0.935l1.185-0.758l-0.564-1.2l1.264-0.938l0.621,0.875
		l-0.062,0.374l-0.492,0.636l0.683,0.501l0.792,0.134l0.198,1.091l-0.464,0.449l-1.402-1.056l-0.62,1.383l-0.387,0.317l0.569,0.866
		c-0.685-0.116-1.518-0.387-2.505-0.812l0.438-0.309l-0.31-0.438l-0.765,0.253c0.294,0.723,0.818,1.309,1.574,1.758l0.62,0.874
		l0.764-0.254l0.62,0.875c0.708-0.039,1.358-0.185,1.945-0.438l0.11,1.604l0.927-0.657l-0.071,0.419l0.575,1.154l0.497-0.107
		l0.154,0.219l0.905-0.519l0.323,0.344l1.186-0.471l-0.656-0.928l0.62-1.382l0.793,0.135c0.029,0.196,0.309,1.366,0.843,3.504
		l0.419,0.072c0.174,0.671,0.545,1.485,1.118,2.448l-1.557,0.119l0.175,1.229l0.374,0.063l0.502-0.683l0.572,0.867l0.435-0.311
		c-0.126,0.747-0.091,2.035,0.11,3.86l-0.482,0.59L684,41.309l-0.491,0.636c0.114,0.82,0.071,1.821-0.13,3.003l0.66,0.928
		l-1.031,1.266l0.526,1.675l-0.417-0.072l-0.559,1.01c0.11,1.044,0.252,1.818,0.421,2.329l-0.482,0.301
		c-0.168,1.156-0.228,2.907-0.178,5.251l-0.528,1.399l0.281,0.047l-0.261,0.965c0.106,0.69,0.137,1.367,0.087,2.031l0.039,0.055
		l-0.047-0.009c-0.012,0.255-0.04,0.506-0.079,0.755l-0.529-0.858l0.608,0.103l0.008-0.046l-0.264-0.43l-1.146,0.238
		c-0.02,1.629-0.131,3.019-0.327,4.169l-0.372-0.063l0.199,1.09l-0.994,1.319l0.42-0.216l-0.245,1.445l0.245,0.811l-0.111,0.653
		l-0.371-0.064c-0.751,1.763-1.485,3.541-2.21,5.338c-0.67,1.294-1.88,2.865-3.634,4.709l0.217,0.421l-0.282-0.048l-1.297,0.835
		l-0.068,0.42c-1.714,0.668-4.075,2.026-7.08,4.075l-0.357-0.445c-0.692,0.489-2.634,0.815-5.833,0.974l-0.11,0.653l-6.999-1.193
		l-1.253,0.602l-0.94-0.976l-0.81,0.246l-0.418-0.073c-1.247-0.21-1.796-0.561-1.648-1.047c-0.355-0.158-0.963-0.261-1.818-0.31
		l-0.308-0.726l-0.374-0.063l-0.437,0.309c-1.182-0.202-2.073-0.881-2.679-2.042l0.467,0.08c0.953-0.702,1.758-1.189,2.409-1.461
		l0.312,0.438l0.503-0.684l1.198,1.694c0.707-0.199,1.769-0.516,3.184-0.945c-0.138-0.505-0.414-0.951-0.825-1.342l-0.747-0.126
		l0.301,0.483l-0.5,0.683l-0.793-0.135l0.249-1.446l-0.423-0.359l-0.651,0.463l-1.822-0.31l0.175-1.026l0.588,0.484l0.504-0.682
		l0.062-0.373c-0.476-0.401-0.859-0.963-1.154-1.685l-1.229,0.173l-0.111,0.654l1.031,0.992l-0.548,0.675l-0.062,0.373l-1.027-0.174
		l-0.911,0.563l-0.677-0.546l0.11-0.653l0.75,0.127l-0.312-0.437l1.294-0.547l-0.66-0.354l-1.626-0.036l0.312,0.437l-0.892,1.001
		l0.58,0.818l-0.126,0.747l1.055,0.565l-0.062,0.372l-0.492,0.638l-1.824-0.312c-0.25-0.778-1.023-1.406-2.316-1.883l0.499-0.684
		l0.281,0.048l0.493-0.348l-1.521,0.173c-0.433-0.842-1.059-1.574-1.881-2.193l1.462-0.135l-1.026-0.175
		c-0.324-0.728-1.128-2.018-2.415-3.869l0.116-0.653l-0.749-0.127l0.572-1.103c-0.208-0.675-0.67-1.604-1.397-2.784l0.764-0.253
		l-0.421-0.072l-0.145-0.841l0.265-0.435c0-2.242,0.036-3.579,0.111-4.016l0.312,0.437l0.126-0.746l-0.31-0.436l0.372,0.063
		l0.12-0.7l0.737-0.115l-0.039,0.234L632.581,60.963z M633.631,64.119l-0.545-1.581l-0.375-0.064
		C632.89,62.92,633.197,63.468,633.631,64.119z M633.532,53.154l-0.82,0.581l0.283,0.047L633.532,53.154z M633.584,61.854
		l-0.255-0.764l0.081-0.466l-0.452,0.402L633.584,61.854z M633.304,51.962l0.199-1.165l-0.281-0.049l-0.198,1.167L633.304,51.962z
		 M633.747,49.35l0.193-1.12l-0.28-0.048l-0.193,1.12L633.747,49.35z M633.578,46.681l0.671-0.27l-0.229-0.328l-0.431,0.55
		L633.578,46.681z M634.717,50.715l-0.376-0.063l-0.111,0.652L634.717,50.715z M636.291,45.991l-0.316-0.391l-0.137,0.793
		L636.291,45.991z M637.046,41.559l-0.7-0.408l-0.117,0.7L637.046,41.559z M637.268,69.252l0.048-0.279
		c-0.191-0.001-0.472,0.047-0.843,0.144L637.268,69.252z M646.025,37.903c-0.125-0.596-0.225-1.494-0.312-2.692l-1.166,0.089
		l-0.651-0.399l0.481-1.119l-0.548-0.189l-0.743-0.703l0.946-1.039l-0.748-0.128l-1.297,0.548l-0.896-0.921l-0.482,0.3
		c0.179,0.64,0.214,1.271,0.106,1.893l-0.23-0.04c-0.936-0.16-2.188,0.155-3.765,0.942l-0.11,0.653l0.613,0.921
		c0.431-0.278,1.119-0.657,2.066-1.136l1.537,0.263l0.481,1.138l-1.164,0.617l-0.421-0.07l-0.683,1.755l0.438-0.309
		c1.026,0.175,1.815,0.79,2.374,1.845l0.371,0.063l0.987-1.272l0.154,0.794c0.471-0.527,0.949-0.975,1.427-1.34l0.312,0.437
		L646.025,37.903z M637.793,45.911l-0.747-0.127l-0.057,0.326l-0.36,0.419l0.283,0.048L637.793,45.911z M638.198,66.05l-0.746-0.127
		l-0.54,0.629l0.729,0.507L638.198,66.05z M637.775,39.811l0.111-0.653l-0.417-0.072l-0.111,0.653L637.775,39.811z M638.586,70.246
		l0.127-0.747c-0.529,0.294-0.93,0.483-1.198,0.564L638.586,70.246z M642.09,45.492l-2.757-1.575l-1.658,0.438l-0.128,0.747
		l0.684,0.5l-0.066,0.374l0.794,0.135l0.629-1.429l0.279,0.047l-0.127,0.747l0.436-0.31l0.341,0.826l0.635,0.493L642.09,45.492z
		 M639.333,68.117c-0.163-0.54-0.581-0.995-1.253-1.366l0.459,1.23L639.333,68.117z M640.675,29.021l-0.487-1.668l-0.276-0.047
		l-0.992,1.031l0.244,0.811l-0.619,1.383l0.729,0.508C639.777,30.517,640.245,29.844,640.675,29.021z M639.898,40.604l-0.3-0.484
		l0.371,0.064l-0.312-0.437l-0.416-0.072l0.356,0.445l-0.494,0.349l0.356,0.444L639.898,40.604z M640.717,70.994
		c-0.303,0.076-0.704,0.281-1.207,0.611l0.322,0.342C640.057,71.761,640.352,71.444,640.717,70.994z M641.278,43.481l0.355-0.949
		l0.02-1.245l-0.421-0.072c-0.571,0.352-0.995,0.774-1.271,1.271l0.651,0.111l0.12-0.7L641.278,43.481z M641.281,69.938
		l-0.502,0.682l0.309,0.438L641.281,69.938z M645.167,42.942l0.111-0.652l-0.62-0.875l-0.438,0.31l-0.371-0.064l-0.24-0.857
		l0.438-0.31l1.492,0.255l0.309-1.82c-0.845,0.465-1.995,1.292-3.445,2.486l1.944,1.82L645.167,42.942z M643.911,43.545l-0.53-0.282
		l-0.919,0.036l0.511,1.239l0.544-0.387L643.911,43.545z M643.083,37.402l-0.11,0.653l-0.371-0.063L643.083,37.402z M643.406,46.484
		l-0.305-0.436l-0.438,0.309l0.309,0.437L643.406,46.484z M643.299,42.625l0.045-0.281l-0.416-0.071
		C642.947,42.341,643.07,42.458,643.299,42.625z M645.092,76.301l0.375,0.064l0.072-2.677l-1.4-0.239l-0.604,1.002l-0.076-0.109
		l-0.297,0.046l0.244,0.81l1.252-0.844l0.245,0.81l-0.655-0.11l-0.032,0.762l-0.149,0.312l0.653,0.11l0.133-0.793l0.375,0.064
		L645.092,76.301z M644.471,53.484l-0.299-0.485l-0.575,1.104L644.471,53.484z M644.667,36.855l-0.865,0.285l0.494-0.348
		L644.667,36.855z M668.604,60.625l-0.684-0.5c0.308-1.804,0.608-3,0.9-3.591c-0.131-0.727-0.217-1.527-0.26-2.398l0.481-0.59
		l-0.126-1.509l0.51-0.73l-0.245-0.811l0.5-0.683l-0.326-0.343l0.264-1.54l-0.312-0.437l0.494-0.635l1.071,0.471l0.109-0.654
		l-1.426-0.627l0.811-0.247l-0.892-1.255l0.892-1.001l-1.436-2.55l0.498-0.683l-0.436,0.31c-0.495-1.045-0.741-1.966-0.73-2.766
		c-0.816-0.842-1.157-1.653-1.023-2.431l-1.575-1.757l-1.28,0.455l-0.261-0.717c-0.751-0.479-1.876-1.199-3.374-2.16
		c-0.192-0.001-0.596,0.011-1.208,0.034c-0.486,0.045-0.887,0.041-1.198-0.013l-0.231-0.04l-0.303-0.482l-0.134,0.792
		c-0.754,0.095-1.788,0.424-3.098,0.984c-1.312,0.561-2.299,0.896-2.959,1.008c-0.131,0.778-0.319,1.498-0.56,2.162l-1.752,0.419
		l0.172,0.127c-0.496,1.035-1.189,2.549-2.074,4.543l0.019,1.875l-0.439,0.597c0.104,0.69,0.046,1.705-0.184,3.043l-0.451,0.689
		l-0.202,1.167l0.684,0.788l-0.268,0.435l0.069,0.731c-0.251,0.341-0.51,0.922-0.776,1.74l0.681,0.5
		c-0.38,0.161-0.921,0.42-1.622,0.78l0.504,1.286l-0.689,0.94c-0.02,0.861,0.043,1.527,0.186,1.999
		c-0.382,2.24-0.545,3.766-0.493,4.575l0.482-0.014l-0.497,2.939c0.615,1.065,1.63,2.616,3.044,4.648
		c0.199,0.707,0.601,1.272,1.201,1.694l0.372,0.064c1.035,0.688,2.638,1.618,4.809,2.788c0.545-0.387,1.094-0.694,1.646-0.919
		l0.61,0.92c1.677-0.834,3.204-1.726,4.586-2.674l0.356,0.444c0.652,0.111,1.359-0.375,2.121-1.462
		c0.522-0.808,1.044-1.615,1.568-2.423l0.06-0.372l0.81-0.247l-0.392-1.076l0.901-1.911l0.376-0.224l0.746,0.127l-0.684-0.5
		l0.135-0.793l0.303,0.483l0.882-0.665l0.375-2.193L668.604,60.625z M646.364,77.574l-1.025-0.463l-0.049,0.281L646.364,77.574z
		 M646.3,77.948l-0.35,0.372l0.277,0.048L646.3,77.948z M646.037,79.488l0.373,0.063l-0.152-0.218L646.037,79.488z M650.007,83.237
		l-0.547-1.294c-0.703,0.361-1.267,0.761-1.691,1.201l-0.375-0.065l-0.129,0.747l1.029,0.175l0.062-0.373l1.279-0.455l0.249,0.233
		L650.007,83.237z M648.515,78.757l-0.302-0.484l-0.817,0.293L648.515,78.757z M650.709,79.132l0.072-0.421l-0.749-0.127
		l-0.071,0.42L650.709,79.132z M650.517,80.252l-0.311-0.438l-0.127,0.747l0.375,0.064L650.517,80.252z M652.153,83.891
		l-0.628-0.827l-0.494,0.637L652.153,83.891z M652.091,82.008l-0.241-0.856l-0.746-0.127l0.177,1.229L652.091,82.008z
		 M658.605,83.503c-0.416-0.389-0.812-0.858-1.202-1.405l0.652,0.112c-0.353-0.188-0.941-0.385-1.771-0.59l0.253,0.764l-0.372-0.065
		l-0.906-0.875l-1.214,0.081l0.237,0.857l-1.155,0.571l0.064-0.372l-0.793-0.136l-0.127,0.747l0.671,0.835l0.331-0.232l0.324,0.343
		l-0.062,0.373c0.398,0.292,0.812,0.763,1.247,1.413l0.309-1.819l-0.326,0.232l-0.676-0.835l-0.028-0.389l0.53-0.294l0.702,0.12
		l-0.13,0.747l1.421,0.962l0.794-0.152l0.17,0.701l0.309-1.82L658.605,83.503z M653.671,81.462l0.047-0.28l-0.727-0.508
		L653.671,81.462z M656.238,79.643l-0.81-0.33l-1.383-0.044l0.983,0.985L656.238,79.643z M667.344,81.537l0.062-0.372l-0.793-0.136
		l-0.062,0.374L667.344,81.537z M668.743,81.776l0.062-0.374l-0.747-0.127l-0.062,0.374L668.743,81.776z M669.106,57.686
		l-0.373-0.063l0.31,0.436L669.106,57.686z M669.288,56.613l-0.371-0.063l-0.111,0.652l0.371,0.065L669.288,56.613z M669.307,34.288
		l-0.356-0.444l-0.129,0.747L669.307,34.288z M670.236,51.061l0.126-0.747l-0.371-0.063l-0.128,0.747L670.236,51.061z
		 M670.689,54.883l-0.342,0.325l0.216,0.422L670.689,54.883z M672.743,69.302l0.375-2.193c-0.116,0.494-0.338,1.208-0.655,2.146
		L672.743,69.302z M673.565,53.502c0.049-0.664,0.039-1.162-0.032-1.495l-0.521,0.247L673.565,53.502z M674.42,64.258l-0.421-0.072
		l-0.571,1.103l0.372,0.064L674.42,64.258z M679.899,27.357l-0.312,1.819l-0.652-0.112l0.117-0.7l-0.977,0.939
		c-0.382-0.577-1.195-0.973-2.438-1.185c0.765-0.35,1.319-0.687,1.662-1.013l-0.248-0.235l1.225-0.992l0.237,0.857l0.731,0.508
		L679.899,27.357z M676.73,50.727l0.323-1.913l-0.419-0.072l-0.327,1.914L676.73,50.727z M676.741,52.89l0.056-0.326l-0.371-0.063
		l-0.056,0.326L676.741,52.89z M678.232,66.109l-0.198-0.802l0.209-0.109l-0.138-0.311l-0.57,1.103L678.232,66.109z M678.312,38.898
		l0.138-0.794l-0.9-0.921C677.671,37.589,677.927,38.16,678.312,38.898z M678.057,67.136l-0.261-0.43l-0.064,0.374L678.057,67.136z
		 M679.789,65.991l-1.118-0.191l0.311,0.438L679.789,65.991z M680.488,61.885l-1.047-0.611l-0.199,1.167l0.31,0.437l0.285-0.528
		L680.488,61.885z M680.8,60.065l0.136-0.793l-1.118-2.448c-0.172,0.996-0.135,2.283,0.109,3.86L680.8,60.065z M680.623,36.892
		l-0.699-0.408l0.627,0.827L680.623,36.892z M681.562,35.611l-0.564-0.912l-0.51,0.729l-0.062,0.373l0.438-0.308L681.562,35.611z
		 M681.325,37.012l0.044-0.281l-0.466,0.208l-0.072,0.42L681.325,37.012z"/>
</g>
<g>
	<path fill="#231815" d="M99.949,201.252v-23.345c0-2.212-2.519-3.41-4.159-1.979l-2.513,2.191c-1.436,1.253-3.652,0.505-4.09-1.377
		l-2.564-11.031v42.549c0,1.434-1.131,2.596-2.525,2.596h-8.78c-1.395,0-2.526-1.162-2.526-2.596v-18.8
		c0-1.853-2.393-2.516-3.282-0.903c-0.157,0.284-0.316,0.57-0.477,0.861c-0.559,1-1.889,1.213-2.721,0.434l-4.115-3.861
		c-0.7-0.656-0.984-1.663-0.735-2.602l9.286-35.006c0.438-1.652-0.771-3.279-2.437-3.279h-4.31c-1.396,0-2.526-1.162-2.526-2.599
		v-12.33c0-1.436,1.13-2.598,2.526-2.598h6.265c1.394,0,2.524-1.162,2.524-2.596v-5.869c0-1.627-1.452-2.851-3.007-2.548
		c-0.755,0.147-1.436,0.272-2.026,0.375c-1.387,0.244-2.683-0.727-2.903-2.157l-1.527-9.919c-0.157-1.02,0.29-2.04,1.138-2.595
		l24.115-15.804c1.509-0.989,3.513-0.095,3.84,1.714l3.174,17.518c0.198,1.095-0.286,2.216-1.238,2.747
		c-1.904,1.064-3.967,2.055-6.12,2.938c-0.966,0.396-1.614,1.337-1.614,2.406v11.195c0,1.434,1.131,2.596,2.525,2.596h5.511
		c1.394,0,2.524,1.162,2.524,2.598v12.33c0,1.437-1.13,2.599-2.524,2.599h-5.511c-1.395,0-2.525,1.162-2.525,2.596v0.21
		c0,2.164,2.423,3.377,4.081,2.044l0,0c1.263-1.015,3.117-0.591,3.817,0.891c0.186,0.39,0.386,0.823,0.602,1.306
		c1.136,2.53,4.827,1.72,4.827-1.067v-50.21c0-1.435,1.131-2.597,2.525-2.597h29.988c1.394,0,2.524,1.162,2.524,2.597v93.563
		c0,5.197-4.099,9.41-9.154,9.41h-23.358C101.08,203.846,99.949,202.686,99.949,201.252z M118.631,115.802h-2.326
		c-1.394,0-2.524,1.162-2.524,2.596v65.468c0,1.436,1.13,2.598,2.524,2.598h2.326c1.395,0,2.526-1.162,2.526-2.598v-65.468
		C121.157,116.964,120.025,115.802,118.631,115.802z"/>
	<path fill="#231815" d="M212.388,230.607c-3.481-11.463-5.595-22.212-6.854-30.403c-0.305-1.985-3.069-2.034-3.459-0.062
		c-2.958,14.977-5.905,26.267-7.069,30.553c-0.278,1.025-1.347,1.561-2.313,1.184l-6.612-2.575
		c-0.772-0.301-1.237-1.111-1.119-1.951l9.103-64.735c-0.75,2.368-1.376,4.184-1.816,5.41c-0.362,1.011-1.493,1.479-2.432,1.003
		l-5.727-2.91v2.246h-10.813c-0.972,0-1.76-0.812-1.76-1.81v-37.042c0-0.997-0.788-1.806-1.759-1.806h-18.862
		c-0.971,0-1.759-0.812-1.759-1.812v-13.905c0-1,0.788-1.811,1.759-1.811h33.865c0.972,0,1.761,0.811,1.761,1.811v15.718h-2.431
		v25.374l6.98-45.63c0.165-1.08,1.217-1.764,2.237-1.455l10.932,3.316c0.846,0.257,1.38,1.128,1.247,2.025
		c-0.589,3.951-1.257,7.738-1.9,11.301c-0.201,1.113,0.632,2.124,1.733,2.124h17.546c0.993,0,1.791,0.825,1.76,1.842
		c-0.176,5.971-1.232,25.206-7.622,39.662c-0.359,0.812-1.259,1.219-2.095,0.977l-5.404-1.57c-0.793-0.229-1.325-0.995-1.28-1.842
		l0.426-7.945c-0.785,8.358-1.874,16.614-3.06,24.334c-0.238,1.546,1.403,2.648,2.685,1.807l2.252-1.482
		c0.963-0.633,2.249-0.168,2.615,0.945l12.969,39.376c0.236,0.718,0.013,1.512-0.561,1.987l-10.369,8.619
		C214.217,232.271,212.758,231.822,212.388,230.607z M171.516,229.504v-39.7c0-1-0.788-1.811-1.759-1.811h-18.862
		c-0.971,0-1.759-0.811-1.759-1.811v-13.904c0-1,0.788-1.809,1.759-1.809h33.865c0.972,0,1.761,0.809,1.761,1.809v15.715h-2.431
		v41.511c0,1-0.789,1.811-1.76,1.811h-9.053C172.304,231.314,171.516,230.504,171.516,229.504z M150.896,163.75v-30.028
		c0-0.998,0.789-1.809,1.76-1.809h14.585c0.972,0,1.761,0.811,1.761,1.809v30.028c0,1.002-0.789,1.811-1.761,1.811h-14.585
		C151.685,165.561,150.896,164.752,150.896,163.75z M150.896,223.336v-29.188c0-1,0.789-1.809,1.76-1.809h14.585
		c0.972,0,1.761,0.809,1.761,1.809v25.319c0,0-0.449,5.678-5.464,5.678h-10.882C151.685,225.145,150.896,224.336,150.896,223.336z
		 M160.284,145.513L160.284,145.513c-0.972,0-1.76,0.811-1.76,1.811v2.829c0,0.998,0.788,1.811,1.76,1.811l0,0
		c0.972,0,1.76-0.812,1.76-1.811v-2.829C162.044,146.323,161.256,145.513,160.284,145.513z M160.284,205.381L160.284,205.381
		c-0.972,0-1.76,0.808-1.76,1.806v2.692c0,0.998,0.788,1.807,1.76,1.807l0,0c0.972,0,1.76-0.809,1.76-1.807v-2.692
		C162.044,206.188,161.256,205.381,160.284,205.381z M207.543,142.289h-6.638c-0.816,0-1.528,0.594-1.716,1.409
		c-0.392,1.703-0.762,3.277-1.15,4.814c-0.245,0.975,0.318,1.968,1.266,2.219l7.437,1.949c1.074,0.28,2.13-0.518,2.191-1.654
		l0.367-6.83C209.356,143.159,208.554,142.289,207.543,142.289z"/>
	<path fill="#231815" d="M238.321,227.782V138.17c0-0.998,0.788-1.809,1.76-1.809h11.149c0.971,0,1.759,0.811,1.759,1.809v72.229
		c0,0.998,0.788,1.809,1.76,1.809h6.875c0.972,0,1.759-0.811,1.759-1.809v-98.027c0-0.998,0.788-1.808,1.76-1.808h11.147
		c0.973,0,1.761,0.811,1.761,1.808v98.027c0,0.998,0.788,1.809,1.76,1.809h6.875c0.972,0,1.759-0.811,1.759-1.809V138.17
		c0-0.998,0.788-1.809,1.761-1.809h11.149c0.972,0,1.76,0.811,1.76,1.809v82.439c0,4.962-3.912,8.983-8.738,8.983h-54.295
		C239.108,229.593,238.321,228.782,238.321,227.782z"/>
	<path fill="#231815" d="M356.939,204.476l-4.75-32.219c-0.415-2.814-2.879-4.818-5.64-4.587l-17.965,1.507
		c-3.004,0.253-5.603-2.13-5.698-5.225l-0.25-8.078c-0.09-2.888,2.041-5.341,4.843-5.572l16.571-1.381
		c2.955-0.244,5.132-2.947,4.816-5.977l-0.554-5.32c-0.304-2.931-2.833-5.075-5.689-4.823l-11.674,1.023
		c-3.01,0.266-5.62-2.12-5.717-5.225l-0.25-8.078c-0.089-2.88,2.031-5.328,4.824-5.572l10.562-0.918
		c2.952-0.257,5.118-2.965,4.794-5.993l-1.559-14.545c-0.264-2.463,1.13-4.795,3.386-5.667l4.983-1.924
		c3.031-1.17,6.376,0.704,7.021,3.966c1.045,5.292,1.974,10.945,2.785,16.756c0.4,2.86,2.927,4.889,5.724,4.609l8.91-0.895
		c3.024-0.306,5.669,2.073,5.781,5.193l0.286,8.075c0.102,2.863-1.981,5.313-4.755,5.592l-8.048,0.807
		c-2.881,0.288-4.981,2.911-4.737,5.875c0.15,1.828,0.291,3.648,0.421,5.461c0.218,3,2.784,5.231,5.7,4.971
		c2.923-0.261,6.541-0.585,9.497-0.849c3.013-0.27,5.623,2.118,5.719,5.226l0.251,8.09c0.088,2.87-2.018,5.313-4.801,5.57
		l-9.903,0.91c-2.793,0.254-4.901,2.726-4.796,5.607c0.528,14.388,0.542,26.31,0.521,32.814c-0.007,2.49-1.672,4.642-4.03,5.219
		l-0.124,0.029C360.372,209.669,357.402,207.61,356.939,204.476z"/>
	<path fill="#231815" d="M423.625,231.453c-1.433,0-2.646-1.113-2.812-2.574c-2.779-24.292-3.639-45.38-3.639-61.495v-0.419h-7.99
		c-1.558,0-2.823-1.301-2.823-2.903v-10.317c0-1.603,1.265-2.905,2.823-2.905h5.622c1.505,0,2.75-1.213,2.82-2.756
		c0.321-7.057,0.751-12.149,1.029-14.98c0.146-1.482,1.359-2.592,2.808-2.592h7.807c1.56,0,2.824,1.299,2.824,2.903v14.523
		c0,1.604,1.264,2.901,2.823,2.901h22.124c1.742,0,3.077,1.594,2.791,3.362c-1.199,7.376-4.724,22.174-9.616,33.102
		c-0.608,1.358-2.157,1.978-3.522,1.459l-2.059-0.781c-1.093-0.416-1.826-1.478-1.846-2.675l-0.254-15.488
		c-0.025-1.583-1.282-2.853-2.823-2.853h-5.048c-1.457,0-2.675,1.139-2.811,2.631l-5.418,59.227
		C426.299,230.314,425.082,231.453,423.625,231.453L423.625,231.453z"/>
	<path fill="#231815" d="M476.33,166.674c-1.788-9.574-2.347-37.835,0.017-49.318c0.27-1.318,1.438-2.24,2.748-2.24h9.564
		c1.627,0,2.92,1.411,2.818,3.08c-0.582,9.507-2.298,38.314-2.338,47.919c-0.007,1.598-1.27,2.871-2.824,2.871h-7.218
		C477.754,168.985,476.581,168.03,476.33,166.674z M507.966,228.096c4.336-42.365,3.29-79.233-0.07-119.662
		c-0.143-1.693,1.151-3.16,2.804-3.16h13.367c1.498,0,2.744,1.211,2.828,2.75c0.726,13.347,1.017,26.408,1.017,38.61
		c0,42.037-10.82,74.809-13.708,82.804c-0.411,1.137-1.464,1.876-2.64,1.876h-0.801C509.086,231.314,507.791,229.81,507.966,228.096
		z"/>
	<path fill="#231815" d="M641.724,220.25c3.326-7.213,27.147-59.435,29.165-79.539c0.174-1.714-1.141-3.189-2.816-3.189h-30.954
		c-1.558,0-2.821-1.299-2.821-2.901v-12.423c0-1.602,1.264-2.901,2.821-2.901h54.585c1.828,0,3.161,1.75,2.747,3.581
		c-3.56,15.688-21.682,65.108-47.598,101.811c-1.465,2.075-4.632,1.345-5.08-1.175l-0.269-1.51
		C641.397,221.403,641.471,220.799,641.724,220.25z"/>
	<path fill="#231815" d="M697.846,218.037V207.72c0-1.604,1.265-2.903,2.823-2.903h15.556c1.562,0,2.827-1.304,2.824-2.909
		l-0.074-40.317c-0.004-1.602-1.266-2.898-2.823-2.898h-10.452c-1.559,0-2.823-1.299-2.823-2.903v-10.317
		c0-1.604,1.265-2.903,2.823-2.903h39.953c1.559,0,2.823,1.299,2.823,2.903v10.317c0,1.604-1.265,2.903-2.823,2.903h-9.297
		c-1.573,0-2.842,1.301-2.824,2.918c0.024,2.035,0.024,4.563,0.024,7.738c0,8.621-0.353,20.195-1.642,32.23
		c-0.186,1.723,1.111,3.238,2.8,3.238h15.967c1.561,0,2.824,1.299,2.824,2.903v10.317c0,1.602-1.264,2.903-2.824,2.903h-50.012
		C699.11,220.94,697.846,219.639,697.846,218.037z"/>
	<path fill="#231815" d="M813.286,164.04l2.799-28.438c0.211-2.14-1.424-3.998-3.516-3.998h-40.001c-1.95,0-3.532-1.627-3.532-3.63
		V117.01c0-2.006,1.582-3.631,3.532-3.631h60.439c2.303,0,3.992,2.21,3.432,4.507c-2.369,9.712-9.379,29.56-16.35,47.852
		c-0.762,1.996-3.035,2.88-4.893,1.905l0,0C813.898,166.963,813.139,165.531,813.286,164.04z M778.632,221.848
		c2.311-10.27,12.606-57.294,12.593-80.477c0-2.532,2.418-4.296,4.731-3.434l10.087,3.761c1.565,0.583,2.522,2.187,2.297,3.877
		c-1.366,10.318-6.615,40.875-22.833,78.777c-0.981,2.297-3.899,2.874-5.664,1.144l-0.208-0.204
		C778.732,224.405,778.35,223.098,778.632,221.848z"/>
	<path fill="#231815" d="M591.841,166.918l2.844-29.746c0.163-1.712-1.146-3.191-2.818-3.188l-41.495,0.126
		c-1.559,0.003-2.827-1.292-2.832-2.896l-0.034-12.421c-0.005-1.602,1.256-2.905,2.815-2.911l62.049-0.186
		c1.816-0.004,3.176,1.712,2.769,3.53c-2.115,9.434-9.475,30.474-16.726,49.624c-0.604,1.596-2.416,2.304-3.905,1.528l-1.13-0.587
		C592.338,169.251,591.728,168.107,591.841,166.918z M557.073,224.677c2.143-9.481,13.024-58.845,12.683-81.943
		c-0.03-2.022,1.931-3.429,3.78-2.741l11.579,4.316c1.242,0.461,2.012,1.741,1.84,3.088c-1.248,9.772-6.453,41.21-23.313,80.304
		c-0.79,1.833-3.126,2.301-4.536,0.92l-1.228-1.207C557.157,226.706,556.849,225.675,557.073,224.677z"/>
</g>
</svg>
